<svg width="80" height="80" viewBox="0 0 80 80" fill="none" xmlns="http://www.w3.org/2000/svg">
<g id="EGG-ALIEN">
<g id="Layer_2-2">
<g id="ALIEN_-_FULL_COLOUR">
<path id="Vector" d="M65.1456 35.0314C67.313 34.248 68.8043 31.7851 68.6734 28.9774C68.5597 26.5403 67.519 24.8092 65.6821 23.7489C65.5598 23.6786 65.4868 23.6106 65.4696 23.4393C65.4053 22.8013 65.2679 22.1844 65.0727 21.5839C65.019 21.4197 65.0362 21.3095 65.1263 21.1664C66.034 19.7614 66.3795 18.1687 66.1499 16.4282C65.6778 12.8417 62.7615 10.5594 59.7981 11.4273C58.8582 11.7018 58.0449 12.2483 57.3453 13.081C57.326 13.0458 57.311 13.0153 57.2917 12.9919C55.5192 10.6814 52.9227 9.95896 50.4592 11.1036C50.3262 11.1646 50.2596 11.0989 50.1717 11.0262C48.7575 9.85575 47.1803 9.2928 45.4851 9.61884C42.8907 10.1185 41.0324 11.8261 40.0474 14.7769C39.9938 14.9364 39.9444 14.9575 39.8114 14.9153C39.4809 14.805 39.1397 14.7769 38.7985 14.7417C37.408 14.5916 36.0239 14.6549 34.6419 14.8895C33.2643 15.1217 31.9188 15.5252 30.5733 15.9356C26.9919 17.024 23.8803 19.1093 21.2237 22.161C19.4641 24.1852 18.0564 26.5121 17.0114 29.1463C16.0951 31.459 15.4642 33.8774 15.1702 36.4154C14.9749 38.0948 14.9578 39.7767 15.035 41.4679C15.1874 44.8362 15.7432 48.0966 16.6895 51.275C17.4921 53.9701 18.6401 56.4612 19.8268 58.9264C21.4126 62.2197 23.4147 65.1025 25.994 67.3801C26.8588 68.1424 27.7558 68.832 28.8137 69.137C30.1098 69.5099 31.4253 69.5522 32.7407 69.3387C35.0067 68.9681 37.1912 68.2433 39.2749 67.1057C41.2319 66.036 43.0087 64.6029 44.7834 63.1744C46.4207 61.8561 47.9035 60.3057 49.3369 58.6895C50.7146 57.1367 52.0214 55.5112 53.06 53.6089C53.1416 53.4611 53.2145 53.501 53.3111 53.5479C54.4913 54.0968 55.6952 54.132 56.9119 53.7731C59.4268 53.0295 61.2423 50.522 61.4869 47.4563C61.5084 47.1959 61.5792 47.0481 61.7852 46.9379C62.5148 46.5415 63.1542 45.9856 63.7122 45.303C65.9224 42.5985 66.4331 38.7118 65.0212 35.3505C64.9289 35.1323 64.9804 35.0924 65.1435 35.0338L65.1456 35.0314ZM61.0556 15.5603C61.9268 15.5697 62.5899 16.3743 62.5877 17.4181C62.5877 18.4525 61.8903 19.2641 61.0127 19.2617C60.1586 19.2594 59.4762 18.3493 59.5062 17.4275C59.5406 16.3485 60.1736 15.551 61.0577 15.5603H61.0556ZM61.8538 23.7982C61.9268 24.1805 61.9483 24.5676 61.9483 24.9593C61.9461 26.7373 61.3066 28.14 60.1564 29.2307C60.0041 29.3738 60.0105 29.4512 60.1114 29.6295C60.6479 30.5747 60.7036 31.574 60.223 32.5638C59.7616 33.5115 59.0363 33.9853 58.1136 33.9126C56.5514 33.793 55.6351 31.9258 56.1072 30.3801C56.1694 30.176 56.1479 30.1009 55.9655 30.0165C54.236 29.2354 53.2188 27.7483 52.972 25.5645C52.6738 22.9116 54.2059 20.3431 56.4183 19.7285C58.8711 19.0483 61.3023 20.8662 61.8538 23.7959V23.7982ZM54.8196 33.1667C54.8175 35.8548 52.9162 37.9353 50.7446 37.7195C49.2125 37.5671 47.9528 36.162 47.6696 34.2855C47.2382 31.4473 49.191 28.8272 51.6115 28.9891C53.0729 29.0876 54.3561 30.4082 54.7102 32.1745C54.781 32.531 54.8132 32.8899 54.8196 33.1667ZM52.7596 14.8824C54.1501 14.8824 55.1909 16.1303 55.193 17.8028C55.1952 19.3861 54.0772 20.6973 52.7317 20.6902C51.3948 20.6832 50.3026 19.3673 50.3026 17.7652C50.3026 16.1702 51.4034 14.8824 52.7596 14.8824ZM42.0538 19.9232C42.4744 19.6324 42.9014 19.3509 43.3714 19.1843C43.528 19.128 43.5409 19.0413 43.4872 18.8677C42.7255 16.3696 44.0602 14.2397 45.9636 13.8856C47.3842 13.6205 48.8348 14.7159 49.2425 16.5267C49.5236 17.777 49.294 18.9122 48.5837 19.8927C48.4421 20.0874 48.4356 20.1883 48.6116 20.3454C49.9464 21.5487 50.7189 23.1508 50.9721 25.1141C51.0987 26.104 51.0257 27.0797 50.7918 28.0415C50.7468 28.2315 50.6695 28.2807 50.5107 28.2713C49.088 28.1892 47.8799 28.7475 46.9249 30.0141C46.3048 30.8351 45.9529 31.8132 45.8391 32.9063C45.8177 33.1057 45.7619 33.1901 45.5881 33.2089C42.3564 33.556 39.5195 30.8937 39.0667 27.0774C39.0281 26.7607 38.9981 26.4417 39.0067 26.1133C39.1032 23.4135 40.0603 21.3095 42.0559 19.9256L42.0538 19.9232ZM50.8026 39.4131C50.7317 39.338 50.6545 39.4389 50.5901 39.4835C49.9614 39.9104 49.676 40.8744 49.8755 41.74C50.1695 43.0207 51.5515 43.7924 52.5879 43.2623C52.6609 43.2248 52.7532 43.1239 52.8261 43.2013C52.8948 43.274 52.8476 43.3983 52.8283 43.4992C52.2553 46.6165 51.1674 49.4594 49.5751 52.0279C48.7683 53.3321 47.8091 54.4674 46.8262 55.5769C45.3885 57.2 43.8907 58.7435 42.2276 60.0336C40.8886 61.0703 39.571 62.1517 38.1247 62.982C36.1226 64.1314 34.0153 64.8445 31.8051 65.1166C31.1227 65.201 30.436 65.1541 29.7622 64.9758C29.3223 64.8609 28.9446 64.5771 28.5777 64.2768C26.4854 62.5645 24.8653 60.3268 23.4919 57.8146C23.2494 57.3736 23.0306 56.9139 22.7988 56.4635C22.7323 56.3345 22.7344 56.2594 22.8761 56.2031C24.0069 55.7669 24.4855 54.7465 24.5327 53.4212C24.5949 51.6667 24.2172 50.0083 23.5821 48.4391C22.7666 46.4242 21.5435 44.7869 20.1444 43.3209C19.756 42.9151 19.3525 42.5304 18.9062 42.2161C18.771 42.1223 18.6852 42.0003 18.6766 41.8056C18.6294 40.7243 18.5671 39.6477 18.6229 38.564C18.7538 35.9744 19.2817 33.5044 20.2173 31.1729C22.301 25.9796 25.6443 22.4213 30.2193 20.5565C32.127 19.7801 34.0904 19.2477 36.1054 19.0061C37.0174 18.8958 37.923 18.985 38.8307 19.06C39.0024 19.0741 39.1676 19.1492 39.3178 19.2969C38.8607 19.6558 38.4316 20.0405 38.0432 20.4885C36.8543 21.8631 36.217 23.5496 35.981 25.4894C35.5561 28.9609 37.2256 32.47 39.6054 33.9548C41.5452 35.1651 43.5495 35.3551 45.6095 34.4357C45.8005 34.3512 45.8499 34.4075 45.8906 34.6092C46.073 35.5053 46.3778 36.3286 46.9249 36.9994C48.058 38.3904 49.4249 38.8713 51.0064 38.4209C52.0021 38.1371 52.942 38.571 53.427 39.5796C53.8497 40.4616 53.6437 41.5312 52.9463 42.0707C52.2296 42.6243 51.3562 42.4202 50.8433 41.5781C50.5279 41.0621 50.4721 40.5015 50.6588 39.9033C50.6867 39.8142 50.7296 39.7321 50.7532 39.643C50.7725 39.5656 50.8669 39.4835 50.8004 39.4131H50.8026ZM55.3561 49.6964C54.0986 49.6893 53.0042 48.3007 53.0064 46.7151C53.0085 45.1622 54.1587 43.8323 55.4913 43.837C56.8196 43.8417 57.9054 45.1716 57.9033 46.7878C57.9033 48.4063 56.766 49.7034 55.3561 49.6964ZM58.5642 43.525C56.5471 43.5203 54.9656 41.6133 54.9656 39.1809C54.9656 36.8282 56.5986 34.9024 58.5878 34.9095C60.3131 34.9142 62.2122 36.6476 62.1929 39.3122C62.1757 41.625 60.5513 43.5297 58.5642 43.525ZM63.5856 31.0087C62.7894 30.9946 62.165 30.2159 62.18 29.2542C62.195 28.2315 62.813 27.5278 63.6821 27.5418C64.4718 27.5536 65.0791 28.3323 65.0662 29.3128C65.0533 30.2768 64.4031 31.0228 63.5856 31.0087Z" fill="#FFFFFF"/>
<path id="Vector_2" d="M45.7325 37.3748C45.5008 36.8447 45.1317 36.5397 44.6811 36.3826C43.7905 36.0706 42.8785 36.0424 41.9644 36.2324C40.4386 36.5491 38.9966 37.1566 37.6297 38.0269C36.7799 38.5687 35.9645 39.1645 35.1898 39.8494C33.0654 41.7306 31.3895 44.0716 30.1255 46.8347C29.3187 48.5986 28.7951 50.4587 28.7822 52.4877C28.7672 53.4377 28.926 54.3431 29.2264 55.2204C29.3595 55.6097 29.5848 55.8466 29.9431 55.8748C30.4346 55.9123 30.9238 55.9897 31.4217 55.9405C32.4452 55.8396 33.4667 55.7223 34.4516 55.3611C36.1855 54.7254 37.87 53.9443 39.4751 52.9263C40.4923 52.2813 41.4472 51.5354 42.342 50.6745C43.2004 49.8512 43.9772 48.927 44.6446 47.8785C45.3034 46.8441 45.8763 45.7463 46.2411 44.5149C46.6896 43.0019 46.8377 41.4562 46.5608 39.8705C46.4063 38.9815 46.078 38.1746 45.7282 37.3748H45.7325Z" fill="#FFFFFF"/>
</g>
</g>
</g>
</svg>
