<svg width="80" height="80" viewBox="0 0 80 80" fill="none" xmlns="http://www.w3.org/2000/svg">
<g id="EGG-ANGEL">
<path id="Vector" fill-rule="evenodd" clip-rule="evenodd" d="M19.4159 15C19.2947 15.2796 19.1735 15.5592 19.0523 15.8387C18.8777 16.333 18.7052 16.8251 18.5306 17.3194C18.0274 19.0483 17.5406 22.5643 17.9185 24.8234C18.9127 30.7572 22.1827 34.1278 25.0131 38.0531C26.0874 39.5427 27.3301 40.8825 28.4125 42.3475C28.924 43.0386 29.5464 43.7409 30.1811 44.2979C30.6268 44.7586 31.0725 45.2194 31.5182 45.6801C32.2803 46.3712 33.0444 47.0624 33.8085 47.7535C35.2319 48.9277 36.5588 50.0572 37.594 51.6542C39.1489 54.0541 39.7713 57.1921 40.4943 60.5158C40.6463 61.5849 40.7963 62.654 40.9483 63.7254C40.9791 64.0452 41.0078 64.3673 41.0386 64.6871H41.0612C41.09 63.5174 41.3036 62.2045 41.5152 61.0839C42.2464 57.1854 43.0146 53.7544 44.8468 51.1129C45.9211 49.5629 47.4225 48.4446 48.8357 47.2637C49.7498 46.4003 50.6638 45.537 51.5778 44.6714C51.9414 44.2755 52.3029 43.8818 52.6665 43.486C53.638 42.428 54.5747 41.3343 55.4312 40.1533C56.8012 38.2701 58.3068 36.5098 59.6481 34.5751C61.3016 32.1909 62.9654 29.8133 63.8404 26.5791C64.093 25.6442 64.0766 24.7048 64.2265 23.5932C64.3251 22.8596 64.284 21.9068 64.1814 21.2C64.0684 20.3031 63.9554 19.4062 63.8404 18.5093C63.5549 17.2545 63.1584 16.1407 62.684 15.1029V15.0783C63.0804 15.2147 64.1464 16.5612 64.4299 16.9548C66.4244 19.726 67.7328 23.7363 66.1532 28.1604C64.9537 31.5221 63.2098 34.2016 61.3714 36.8476C59.8535 39.0328 58.1281 40.9809 56.8156 43.4121C55.4086 46.0178 55.0902 49.9141 56.3165 53.0141C49.4786 51.0906 44.7256 56.9282 42.8071 61.652C42.3655 62.7368 41.9486 63.8462 41.5378 64.9846C41.3714 65.5281 41.205 66.0716 41.0386 66.6129H41.016C40.749 65.4163 40.2971 64.2734 39.8822 63.2065C38.3376 59.2342 36.3616 56.0828 33.0813 54.0004C31.2224 52.8195 28.3982 52.2782 25.7608 53.0141C26.8083 50.0997 26.7899 47.0713 25.6704 44.2777C24.7338 41.9427 23.1049 40.1533 21.7493 38.2544C19.9582 35.7472 18.2184 33.336 16.8299 30.3568C15.3243 27.1249 14.4986 22.9938 16.2404 19.2496C17.0579 17.4916 18.1999 16.2548 19.4138 15.0045L19.4159 15ZM18.6004 15.0246H18.6682L18.6004 15.123C18.0294 15.4138 17.2694 16.3666 16.8771 16.9012C15.2565 19.111 13.5681 22.2378 14.4061 26.4785C14.5889 27.4045 14.8108 28.2767 15.1086 29.0954C16.91 34.0495 20.0301 37.5029 22.7023 41.4864C24.1977 43.7141 26.0093 46.823 25.1056 50.8647C24.8365 52.068 24.4626 53.1438 24.0621 54.1973C24.7954 53.8774 25.5122 53.609 26.3975 53.4077C28.6138 52.9 30.978 53.6873 32.3131 54.5439C35.54 56.6128 37.6392 59.7397 39.2044 63.6024C39.5515 64.5641 39.8986 65.5281 40.2478 66.4899C40.0055 66.1365 39.7651 65.7831 39.5228 65.4275C39.0688 64.7542 38.5183 64.1615 37.9822 63.5755C36.491 61.9517 34.9176 60.8893 32.611 59.8985C31.167 59.2767 29.4437 58.9434 27.4882 58.9367H26.377C24.972 59.2118 22.9365 59.4221 21.55 59.0351C16.2835 57.5701 13.2497 52.5019 11.2368 47.3844C10.7171 46.0648 10.3145 44.6915 9.89959 43.2131C9.7743 42.7658 9.43744 41.8935 9.51344 41.4864C10.2919 42.4414 11.0704 43.3943 11.8489 44.3493C12.309 44.8257 12.7711 45.3043 13.2312 45.7808C13.7365 46.2751 14.2439 46.7671 14.7491 47.2614C15.7186 48.0823 16.7128 48.7846 17.8096 49.4824C18.5758 49.97 19.3892 50.3189 20.3032 50.6678C20.5579 50.764 21.0714 51.0369 21.3467 50.9631C21.0591 50.7819 20.7716 50.6007 20.486 50.4196C19.8144 49.9007 19.1407 49.384 18.469 48.8651C15.0429 46.0514 11.5798 42.2222 9.90165 37.5365C9.59971 36.6955 9.48879 35.8232 9.31214 34.8212C9.04101 33.2757 8.86642 30.2674 9.13139 28.5273C9.23409 27.8518 9.04306 27.0533 9.26695 26.4785L9.28955 26.5277C9.56068 27.4246 9.83386 28.3215 10.105 29.2184C10.9184 31.4729 11.8674 33.6604 13.4366 35.0918C13.9337 35.5459 14.8231 36.5255 15.5215 36.6709V36.5971C15.0223 36.4517 13.983 34.6624 13.6174 34.0048C11.7831 30.7102 10.7171 25.2953 12.4158 20.9965C13.2312 18.9343 14.7327 17.3485 16.4047 16.2078C16.9038 15.9193 17.403 15.6307 17.9 15.3444C18.1342 15.2371 18.3683 15.1297 18.6025 15.0246H18.6004ZM63.4337 15.0246C64.1731 15.255 64.8653 15.7113 65.4733 16.1116C67.9484 17.7309 69.5629 19.8938 70.3701 23.3427C70.4831 23.8281 70.4461 24.3 70.5283 24.848C70.6474 25.642 70.6105 26.691 70.4831 27.4648C70.3393 28.3416 70.251 29.205 70.0292 30.0079C69.489 31.965 68.7783 33.6648 67.8088 35.141C67.4431 35.6979 66.9358 36.1341 66.562 36.6709C67.3733 36.3824 68.0224 35.6554 68.6242 35.1164C70.3516 33.5664 71.2308 31.2068 72.114 28.7241C72.3625 28.024 72.6624 27.2434 72.7939 26.4539H72.8391C72.9048 29.4666 73.2622 33.09 72.6357 35.8321C71.7648 39.6479 70.0702 41.6966 68.1477 44.2979C67.5171 45.1523 66.755 45.9798 65.9725 46.6665C64.7585 47.7311 63.6288 48.8517 62.3225 49.8515C61.848 50.2138 61.3201 50.7282 60.7367 50.9385V50.9877H60.7593C63.2468 50.1825 65.0913 49.1178 66.9029 47.6305C67.3856 47.1787 67.8704 46.7246 68.3531 46.2728C68.9796 45.7248 69.6841 45.0762 70.1894 44.3963C70.9822 43.4256 71.7751 42.4549 72.57 41.4842H72.5926C72.4406 42.1171 72.2906 42.7501 72.1387 43.3853C71.6991 44.9085 71.2739 46.3198 70.7337 47.6797C69.0083 52.0143 66.3689 56.4339 62.5505 58.268C61.8357 58.6102 60.899 58.8942 60.2828 59.0821C59.2784 59.3908 57.7872 59.2409 56.8156 59.0329C56.4377 58.9993 56.0597 58.968 55.6818 58.9345C55.1005 58.9434 54.5192 58.9501 53.9359 58.9591C53.5127 58.9926 53.0896 59.024 52.6665 59.0575C51.4587 59.3192 50.4337 59.4534 49.2897 59.9454C47.4595 60.735 46.1388 61.7571 44.9598 62.7592C44.6517 63.0208 43.4151 64.1548 43.3042 64.412C43.2755 64.4814 41.9157 66.3982 41.8541 66.4362C42.232 65.4006 42.61 64.3628 42.9879 63.3273C44.4524 59.7061 46.5393 56.6061 49.5608 54.6647C50.7213 53.9199 53.0917 52.9425 55.1601 53.3317C55.7105 53.4458 56.2631 53.5621 56.8156 53.6761C57.2161 53.8483 57.6167 54.0228 58.0172 54.195V54.1704C57.6249 53.2467 57.3086 52.2402 57.0416 51.1845C56.2775 48.1628 57.1463 45.2596 58.2432 43.3115C59.4982 41.0793 61.0654 39.252 62.4827 37.2144C63.8301 35.2775 65.0728 33.3092 66.1327 31.0435C66.6832 29.8648 67.2028 28.5854 67.5376 27.1674C67.6896 26.5254 67.6999 25.9126 67.8088 25.1924C67.8848 24.6869 67.9176 23.9108 67.8314 23.3651C67.363 20.3836 66.7345 18.9454 65.3378 17.0219C64.9064 16.5455 64.4771 16.0669 64.0458 15.5905C63.8589 15.4272 63.5467 15.2572 63.4337 15.0224V15.0246ZM40.6545 34.9174C37.1072 35.0426 32.728 34.4946 29.9099 33.5351C28.8439 33.1705 27.7511 32.882 26.9624 32.3743C26.11 31.8241 23.9286 30.8444 24.5592 28.9925C25.2267 27.0354 28.3448 26.1072 30.3618 25.5122C36.1644 23.799 46.4797 23.705 52.1448 25.6353C54.0262 26.2749 56.7499 27.0511 57.4708 28.8695C58.2308 30.7863 55.8584 32.0254 54.7965 32.5219C51.2738 34.1681 46.603 34.9263 41.4453 34.9151C41.9034 37.9905 42.6387 39.6166 45.1857 40.4441C45.9971 40.708 46.9173 40.7684 47.8149 40.9384C49.0226 41.0368 50.2325 41.1352 51.4423 41.2337V41.2583C48.8521 41.2896 44.4935 41.7257 43.2816 42.9849C42.4847 43.8147 42.0287 44.7899 41.6959 46.1431C41.3488 47.5455 41.4556 49.0306 41.1742 50.5605C41.092 51.0078 41.2255 52.1239 41.0386 52.3878C40.9852 51.5983 40.9318 50.8087 40.8805 50.0192C40.8353 49.3683 40.7901 48.7197 40.7449 48.0688C40.3772 46.1789 40.2047 44.2487 39.1592 43.2802C38.4444 42.6204 37.5838 42.2312 36.53 41.9225C35.2196 41.5401 33.7181 41.6653 32.2679 41.3544C31.9475 41.2851 30.8281 41.3835 30.6822 41.2068C31.8119 41.2225 33.0361 41.1285 34.0816 40.9362C35.1004 40.7483 36.0473 40.7326 36.9367 40.4419C39.2372 39.6948 40.4573 37.9122 40.6545 34.9129V34.9174ZM41.3118 33.6089C44.7133 33.6447 48.0819 33.3428 50.7193 32.4481C51.2964 32.2513 53.2745 31.6049 52.7363 30.6208C52.1674 29.5807 50.0332 29.2497 48.7248 28.9433C47.7348 28.7107 46.6174 28.6793 45.5513 28.4736C45.007 28.4333 44.4627 28.3908 43.9184 28.3506C43.2077 28.3349 42.497 28.317 41.7884 28.3013H40.293C39.5823 28.326 38.8716 28.3506 38.163 28.3752C37.7994 28.3908 37.4379 28.4087 37.0744 28.4244C36.0022 28.6167 34.8766 28.61 33.8783 28.8449C32.5493 29.1557 29.5792 29.5248 29.2773 30.7952C29.0513 31.7436 30.9041 32.2938 31.5203 32.4973C32.804 32.9223 34.2665 33.0475 35.7372 33.336C36.3719 33.3942 37.0066 33.4524 37.6413 33.5083C38.6991 33.5485 39.7569 33.591 40.8147 33.6313C40.8969 32.4302 40.9811 31.2291 41.0633 30.028H41.0859C41.1619 31.2202 41.2379 32.4145 41.3118 33.6067V33.6089Z" fill="#FFFFFF"/>
</g>
</svg>
