<svg width="80" height="80" viewBox="0 0 80 80" fill="none" xmlns="http://www.w3.org/2000/svg">
<g id="EGG-HUMAN">
<g id="Layer_2-2">
<g id="uCgvpx">
<path id="Vector" d="M55.606 67.41C54.6954 67.8922 53.7919 68.388 52.8742 68.8529C51.7536 69.4219 50.5942 69.8617 49.3536 69.9987C48.286 70.1144 47.2236 70.0913 46.1718 69.8637C45.5418 69.7267 44.9171 69.5647 44.2977 69.3814C43.8071 69.2348 43.3271 69.0438 42.8435 68.8644C42.0494 68.5693 41.2465 68.3205 40.4223 68.143C39.6212 67.9694 38.8147 67.8074 38.0435 67.4833C37.4082 67.2171 36.8152 66.8679 36.2523 66.4551C35.7229 66.0674 35.2552 65.6102 34.8529 65.0662C34.4893 64.5724 34.2088 64.0323 34.0129 63.4343C33.6705 62.3849 33.6758 61.3336 33.8911 60.2553C34.0799 59.3082 34.4946 58.4864 34.9658 57.684C35.1705 57.3348 35.3452 56.9587 35.4829 56.5729C35.7794 55.7492 35.9982 54.8966 36.1429 54.0227C36.2611 53.309 36.4005 52.6011 36.5276 51.8873C36.6335 51.2855 36.4376 50.7782 36.1005 50.3191C35.6699 49.7307 35.0894 49.3314 34.5582 48.8704C33.8805 48.2821 33.2399 47.6532 32.7282 46.8874C32.4934 46.5363 32.2781 46.1582 32.1105 45.7647C31.8528 45.1571 31.6852 44.5089 31.6958 43.8299C31.7099 42.9831 31.994 42.2424 32.5005 41.6019C32.8764 41.1255 33.337 40.7667 33.8152 40.4214C34.2599 40.1012 34.6605 39.7077 35.0911 39.3604C35.3929 39.1174 35.6894 38.8512 36.0229 38.6776C36.3617 38.502 36.7376 38.3631 37.11 38.3188C37.5953 38.2609 37.9359 38.0256 38.2111 37.6108C38.5923 37.036 38.9664 36.4515 39.4606 35.977C39.8118 35.6394 40.1841 35.3365 40.59 35.08C41.64 34.4164 42.7871 34.2023 43.9747 34.1502C44.5694 34.1232 45.1465 33.9824 45.72 33.8242C46.7295 33.5464 47.7424 33.259 48.7924 33.3188C49.2548 33.3439 49.7242 33.4423 50.1672 33.5889C50.7601 33.7837 51.3283 34.0615 51.9107 34.293C52.126 34.3778 52.3678 34.4415 52.5566 34.2621C52.6978 34.129 52.8319 33.9438 52.8919 33.7528C53.1531 32.9195 53.4954 32.1267 53.8254 31.3262C54.3813 29.9778 54.706 28.56 54.6654 27.0785C54.6443 26.2741 54.5066 25.4697 54.3795 24.675C54.1907 23.4944 53.9613 22.3235 53.7548 21.1469C53.5413 19.9335 53.4531 18.7067 53.4689 17.474C53.4795 16.6523 53.5254 15.8286 53.799 15.0512C54.0442 14.3549 54.4272 13.7684 55.0078 13.3479C55.7101 12.8367 56.4549 12.7673 57.2419 13.0566C58.2019 13.4096 58.9749 14.0501 59.5802 14.9258C59.9508 15.4621 60.1343 16.0852 60.1308 16.768C60.1255 18.0354 60.1573 19.3027 60.1237 20.5701C60.0955 21.606 60.0178 22.6438 59.9225 23.6758C59.8431 24.5322 59.7002 25.3829 59.5925 26.2355C59.4937 27.011 59.4531 27.7903 59.6225 28.56C59.6914 28.8783 59.7937 29.1888 59.8978 29.4955C60.0725 30.0067 60.0849 30.5276 60.0143 31.058C59.9102 31.8528 59.6225 32.5723 59.2943 33.2841C58.8761 34.1888 58.7437 35.134 59.0278 36.1274C59.1725 36.6367 59.4108 37.0862 59.6525 37.5414C59.9067 38.0159 60.1467 38.504 60.3425 39.0094C60.6567 39.8234 60.9267 40.6587 61.0026 41.546C61.0414 42.0012 61.0308 42.4623 61.0555 42.9214C61.0643 43.068 61.0943 43.2223 61.1455 43.3573C61.2496 43.6293 61.3802 43.8897 61.4949 44.1579C61.7826 44.8253 61.9926 45.5217 62.1302 46.2412C62.3826 47.5683 62.5979 48.9032 62.8538 50.2284C62.9543 50.7492 63.1238 51.2566 63.2632 51.7677C63.4149 52.3233 63.5985 52.8692 63.7167 53.4344C63.8685 54.1674 63.9955 54.9101 64.0855 55.6547C64.2073 56.6539 64.1632 57.6512 63.9602 58.6388C63.7926 59.4509 63.542 60.2283 63.1467 60.9401C62.7726 61.6153 62.3102 62.2171 61.8214 62.7939C61.1455 63.5925 60.4078 64.3178 59.6367 65.0026C59.1743 65.4135 58.6925 65.7954 58.1455 66.0732C57.2931 66.5072 56.4513 66.9663 55.6043 67.4158L55.606 67.41ZM58.3396 44.5437C58.2655 44.3758 58.1914 44.208 58.1172 44.0402C57.9708 43.7065 57.736 43.4731 57.4237 43.338C56.7866 43.066 56.2872 42.5684 55.7825 42.0938C55.4543 41.7852 55.1807 41.4071 54.8754 41.0676C54.5384 40.6934 54.166 40.3751 53.6878 40.2478C53.5025 40.1996 53.3154 40.1629 53.1284 40.1205C52.7631 40.0375 52.4895 39.7713 52.1895 39.5572C51.7907 39.2717 51.3989 38.9746 50.926 38.8531C50.5272 38.7509 50.1266 38.6448 49.7224 38.5734C49.2177 38.4847 48.7077 38.3921 48.1977 38.3766C47.7477 38.3631 47.2907 38.4287 46.8442 38.504C46.4665 38.5676 46.0995 38.7065 45.7218 38.7856C45.4271 38.8473 45.1218 38.8531 44.8571 39.0364C44.5889 39.2216 44.3189 39.4067 44.0524 39.5938C43.98 39.644 43.9059 39.6961 43.8424 39.7597C43.4647 40.1417 43.1347 40.5718 42.8788 41.058C42.6971 41.4013 42.4571 41.6463 42.1324 41.8161C41.9418 41.9164 41.7529 42.0417 41.5977 42.198C41.3647 42.4295 41.2112 42.7285 41.1035 43.0525C41.0347 43.2551 40.89 43.3747 40.7647 43.34C40.6253 43.3033 40.53 43.1451 40.5776 42.9252C40.6447 42.6166 40.7294 42.3079 40.8494 42.0225C40.9606 41.7582 41.1776 41.5383 41.2624 41.2682C41.4441 40.6876 41.7106 40.1725 42.0953 39.7289C42.3194 39.4704 42.533 39.1984 42.7782 38.965C42.9159 38.8338 43.1312 38.801 43.2671 38.6679C43.6077 38.3361 43.9994 38.1104 44.4071 37.904C44.7512 37.7304 45.0124 37.4469 45.2295 37.1132C45.4359 36.7968 45.2506 36.573 44.9771 36.5287C44.4389 36.4399 44.0294 36.7756 43.6024 37.0302C43.3041 37.2077 43.0324 37.4372 42.7412 37.6301C42.443 37.8288 42.1271 37.9928 41.8377 38.203C41.4353 38.4962 41.1759 38.9052 41.0365 39.4222C40.8847 39.9893 40.6871 40.541 40.5106 41.1004C40.4912 41.1602 40.4823 41.2239 40.4665 41.2836C40.38 41.6289 40.3235 41.9897 40.1982 42.3176C40.0218 42.7825 39.7817 43.2184 39.5912 43.6795C39.5117 43.8724 39.4553 44.0923 39.4447 44.3025C39.4112 44.9024 39.2488 45.4638 39.0529 46.0174C38.8853 46.4919 38.8359 46.9838 38.82 47.4873C38.8094 47.8268 38.7935 48.1663 38.7582 48.5039C38.7317 48.7469 38.6382 48.9861 38.6294 49.2273C38.61 49.7288 38.467 50.186 38.2782 50.6316C38.1494 50.9383 38.047 51.2469 38.0223 51.5922C37.9853 52.1343 37.8229 52.6281 37.4682 53.0312C37.2917 53.2319 37.2105 53.4768 37.2176 53.7565C37.2229 54.0305 37.2317 54.3082 37.1064 54.5571C36.9476 54.8715 36.9547 55.2091 36.9441 55.5505C36.9317 55.9498 36.8488 56.3433 36.6194 56.6578C36.33 57.0532 36.067 57.4602 35.8588 57.9135C35.6911 58.28 35.4476 58.6022 35.3505 59.0111C35.2676 59.3583 35.1758 59.7036 35.0752 60.0451C34.9605 60.4328 34.8211 60.8128 34.7135 61.2005C34.5158 61.9085 34.6288 62.5875 34.9199 63.2376C34.9711 63.3533 35.0629 63.4131 35.1758 63.3205C35.2429 63.2646 35.3205 63.2048 35.3576 63.1257C35.4794 62.8672 35.6046 62.6068 35.6911 62.3329C35.7811 62.0532 35.8023 61.7464 35.8976 61.4706C36.1464 60.7492 36.4217 60.0393 36.6776 59.3217C36.8029 58.9687 36.8911 58.5983 37.027 58.2511C37.1047 58.0543 37.2247 57.8653 37.3641 57.7168C37.4806 57.5933 37.5917 57.6705 37.5953 57.8557C37.6006 58.1566 37.6182 58.4633 37.5847 58.7604C37.5582 58.9841 37.4964 59.2233 37.387 59.4124C37.0994 59.9004 36.9123 60.427 36.7853 60.9864C36.7252 61.2488 36.6758 61.5246 36.5558 61.7561C36.39 62.0782 36.3476 62.4158 36.3105 62.7688C36.2841 63.0177 36.2099 63.2626 36.1323 63.4999C36.0582 63.7256 35.9364 63.932 35.8641 64.1577C35.6947 64.6766 35.7952 64.8714 36.2135 65.1897C36.4482 65.3691 36.6 65.263 36.697 65.0122C36.7835 64.7885 36.8347 64.5435 36.9458 64.339C37.2264 63.8259 37.3411 63.2472 37.537 62.7032C37.627 62.4525 37.7188 62.2017 37.8247 61.9586C37.9482 61.6751 38.1335 61.4127 38.2129 61.1176C38.3188 60.7164 38.3682 60.292 38.407 59.8734C38.4459 59.4625 38.4211 59.042 38.467 58.633C38.5094 58.2588 38.5094 57.9 38.4317 57.5316C38.3717 57.2461 38.3523 56.951 38.4459 56.6539C38.5041 56.4726 38.5041 56.27 38.5323 56.0791C38.5694 55.8437 38.5853 55.5987 38.6523 55.373C38.7953 54.8869 38.9012 54.4028 38.8941 53.8839C38.8888 53.5347 38.9982 53.2203 39.2523 52.9714C39.367 52.8596 39.4729 52.6975 39.5117 52.5374C39.6194 52.113 39.6988 51.6771 39.7694 51.2431C39.8223 50.9151 39.8135 50.5737 39.8823 50.2516C39.9953 49.7288 40.1559 49.2195 40.1929 48.6775C40.2194 48.3052 40.3447 47.9657 40.5865 47.6918C40.77 47.4854 40.8759 47.2462 40.9235 46.9626C40.9818 46.6077 41.0788 46.2624 41.1459 45.9094C41.2041 45.6007 41.2218 45.2844 41.2959 44.9815C41.3824 44.6227 41.4582 44.2427 41.6294 43.9322C41.8518 43.5271 42.1535 43.1683 42.4394 42.8095C42.8912 42.2424 43.4524 41.8083 43.9889 41.3473C44.34 41.0445 44.7071 40.7609 45.0636 40.4638C45.4624 40.132 45.8983 39.8716 46.3959 39.8002C46.8301 39.7385 47.2271 39.5958 47.6171 39.3894C47.7848 39.3006 47.993 39.2794 48.1854 39.2698C48.3901 39.2582 48.5983 39.2929 48.8065 39.3084C49.2513 39.3411 49.6977 39.372 50.116 39.563C50.4248 39.7038 50.7195 39.8871 51.0319 40.0182C51.5101 40.2188 51.9972 40.3828 52.5089 40.4793C52.9784 40.5661 53.3772 40.8708 53.7637 41.1583C54.2437 41.5151 54.7043 41.9067 55.156 42.3079C55.5072 42.6204 55.8301 42.9696 56.169 43.2994C56.4178 43.5425 56.6755 43.7721 56.919 44.0209C57.2366 44.345 57.5243 44.696 57.7043 45.1378C57.8719 45.5525 58.0819 45.9518 58.2037 46.382C58.3131 46.7659 58.4243 47.1439 58.5937 47.4989C58.6096 47.5317 58.6149 47.5702 58.6219 47.6069C58.6961 47.958 58.7684 48.311 58.9378 48.6293C59.0719 48.8839 59.1884 49.1482 59.3261 49.3989C59.3596 49.4607 59.4496 49.4877 59.5131 49.5301C59.5502 49.451 59.6314 49.3623 59.6172 49.2948C59.5378 48.9032 59.4602 48.5077 59.3384 48.1316C59.2308 47.7979 59.0455 47.4969 59.0137 47.1304C59.0031 47.0031 58.9308 46.8816 58.8955 46.7543C58.839 46.5575 58.7631 46.3608 58.7402 46.1582C58.6802 45.5988 58.6678 45.0278 58.3449 44.5456L58.3396 44.5437ZM50.086 47.6551C49.7807 47.223 49.5089 46.8006 49.2001 46.4109C48.8842 46.0135 48.5365 45.647 48.196 45.2747C47.9789 45.0394 47.7495 45.0722 47.5924 45.35C47.5377 45.4464 47.4883 45.5506 47.4601 45.6586C47.3754 45.9808 47.3242 46.3164 47.2236 46.6328C46.9571 47.4661 46.4348 47.9946 45.6106 48.0621C44.9347 48.1181 44.2536 48.1123 43.5759 48.1297C43.0006 48.1451 42.4253 48.1489 41.8482 48.1644C41.4141 48.176 41.0894 48.3785 41.0453 48.8897C41.01 49.3025 40.9765 49.7172 40.9482 50.13C40.9165 50.5911 41.1 50.8148 41.4424 50.8978C41.73 50.9672 42.0194 51.0232 42.3088 51.083C42.9935 51.2276 43.6765 51.3858 44.3647 51.5112C44.9083 51.6096 45.4589 51.7446 46.0095 51.6096C46.6501 51.4514 47.2959 51.4263 47.9454 51.436C48.533 51.4437 49.1207 51.4803 49.7101 51.4919C50.2819 51.5035 50.6383 51.1254 50.626 50.4946C50.6189 50.1647 50.5783 49.8291 50.513 49.507C50.386 48.882 50.2289 48.2628 50.086 47.6532V47.6551ZM53.6754 49.1424C53.9931 49.7211 54.1784 50.3557 54.3054 51.0116C54.406 51.5324 54.5066 52.0552 54.579 52.5818C54.6284 52.9329 54.639 53.2917 54.6495 53.6466C54.6619 54.0401 54.6513 54.4355 54.6548 54.831C54.6584 55.1435 54.6707 55.4579 54.6743 55.7704C54.676 55.9595 54.6619 56.1466 54.6672 56.3356C54.6778 56.7176 54.6937 57.1014 54.7148 57.4834C54.7307 57.7766 54.7378 58.0736 54.7872 58.3591C54.8472 58.7025 54.9654 59.0343 55.0237 59.3796C55.0801 59.7114 55.0978 60.0509 55.126 60.3865C55.1401 60.5543 55.1648 60.726 55.1507 60.8938C55.1084 61.3626 55.089 61.841 54.9848 62.2943C54.886 62.7206 54.7378 63.1527 54.526 63.523C54.2384 64.0246 54.0601 64.5589 53.9242 65.1183C53.8695 65.344 53.8678 65.5948 53.7742 65.7954C53.5872 66.1908 53.3525 66.5593 53.1372 66.9374C53.0436 67.1033 52.9325 67.2595 52.8531 67.4312C52.7754 67.599 52.8531 67.7032 53.0207 67.6743C53.356 67.6164 53.6419 67.4389 53.919 67.2364C54.2701 66.976 54.3795 66.54 54.5719 66.1638C54.7784 65.7568 54.9601 65.3324 55.186 64.9389C55.4366 64.5049 55.6096 64.0516 55.6131 63.5366C55.6149 63.1778 55.726 62.8653 55.8654 62.545C56.0401 62.1457 56.1884 61.7252 56.2925 61.2989C56.4407 60.6874 56.5713 60.0701 56.8855 59.5339C57.1837 59.0266 57.2578 58.4729 57.2737 57.8904C57.2878 57.3503 57.3108 56.8101 57.3408 56.272C57.3566 55.9768 57.4131 55.6855 57.4219 55.3904C57.436 54.9371 57.4184 54.4838 57.4237 54.0285C57.4325 53.3052 57.3443 52.603 57.1113 51.9201C57.0125 51.6308 56.9931 51.3106 56.9349 51.0039C56.8943 50.7897 56.8607 50.5737 56.8025 50.3673C56.7531 50.186 56.6507 50.0181 56.6137 49.8349C56.5254 49.3951 56.3596 48.9919 56.1796 48.5926C56.1143 48.4479 56.0843 48.284 56.0402 48.1258C55.8372 47.3909 55.5796 46.6868 55.0766 46.1254C54.8613 45.8862 54.6495 45.6316 54.4007 45.4368C54.1995 45.2805 54.0372 45.1204 53.9348 44.8735C53.8607 44.696 53.7795 44.5128 53.6666 44.3623C53.5042 44.1463 53.3031 43.9765 53.0295 43.9592C52.7966 43.9457 52.6607 44.1096 52.6872 44.3585C52.7172 44.6208 52.8707 44.8041 53.0242 44.9815C53.2519 45.2439 53.4689 45.5139 53.5907 45.8573C53.7425 46.2855 54.0072 46.6193 54.2913 46.953C54.5878 47.3002 54.8172 47.7149 55.0943 48.0834C55.2496 48.2898 55.3431 48.5077 55.3713 48.7739C55.396 49.0035 55.4419 49.233 55.5019 49.4549C55.6131 49.86 55.7666 50.2516 55.8619 50.6605C55.9978 51.2431 56.0878 51.8391 56.2131 52.4236C56.3525 53.0717 56.3702 53.7295 56.3754 54.3893C56.3754 54.6593 56.3243 54.9294 56.3243 55.1975C56.3243 55.5794 56.3613 55.9633 56.3666 56.3453C56.3772 57.0493 56.3702 57.7554 56.3825 58.4594C56.3878 58.8009 56.416 59.1423 56.2978 59.4683C56.2378 59.6342 56.1354 59.7673 55.9572 59.7769C55.7772 59.7866 55.6766 59.6612 55.599 59.4972C55.4719 59.2272 55.4596 58.9359 55.4807 58.6485C55.5143 58.2106 55.5866 57.7746 55.6237 57.3368C55.659 56.9297 55.7225 56.515 55.6837 56.1138C55.5937 55.1859 55.6254 54.2446 55.4472 53.3244C55.366 52.9039 55.3696 52.4641 55.2901 52.0436C55.1543 51.3183 54.9954 50.5988 54.6584 49.941C54.5525 49.7346 54.4925 49.4973 54.4307 49.2658C54.2666 48.6505 54.0601 48.0602 53.6189 47.6127C53.4248 47.4179 53.2184 47.2385 53.0066 47.0649C52.9572 47.0243 52.8389 47.0089 52.8019 47.0456C52.7525 47.0919 52.7225 47.2076 52.7384 47.2809C52.7684 47.4256 52.8107 47.5838 52.8936 47.6976C53.1125 48.0023 53.3278 48.3071 53.4637 48.6698C53.5237 48.8299 53.6013 48.9823 53.6701 49.1385L53.6754 49.1424ZM57.6319 46.7099C57.5225 46.5074 57.4149 46.3029 57.3019 46.1042C57.2137 45.9499 57.1202 45.7975 57.0249 45.647C56.9278 45.4908 56.8413 45.323 56.7249 45.1879C56.5343 44.97 56.3102 44.7886 56.1213 44.5707C55.8249 44.2312 55.5019 43.9225 55.2778 43.5039C55.0713 43.1162 54.7025 42.8963 54.3425 42.6957C54.2719 42.6571 54.1413 42.6571 54.0866 42.7053C54.0372 42.7497 54.039 42.8809 54.0407 42.9754C54.0407 43.0487 54.0584 43.1355 54.0972 43.1895C54.2525 43.4055 54.3954 43.6428 54.5878 43.8106C54.8631 44.0498 55.0872 44.3122 55.2213 44.669C55.2637 44.7809 55.3184 44.887 55.3801 44.9873C55.6731 45.4619 55.9996 45.9152 56.2572 46.4128C56.5572 46.9935 56.799 47.6108 57.0655 48.2126C57.0884 48.2647 57.1096 48.3168 57.1255 48.3708C57.2119 48.6447 57.2984 48.9186 57.3831 49.1945C57.4308 49.3488 57.4819 49.5031 57.519 49.6613C57.6019 50.0201 57.669 50.3847 57.759 50.7415C57.8666 51.1659 58.0237 51.5787 58.1031 52.0069C58.1914 52.4776 58.2213 52.9618 58.2655 53.4421C58.2919 53.7237 58.2813 54.0073 58.3078 54.287C58.3625 54.8484 58.4755 55.4078 58.479 55.9672C58.4808 56.515 58.3855 57.0648 58.3113 57.6107C58.2725 57.8962 58.1896 58.1682 58.2355 58.4672C58.3131 58.9706 58.2213 59.4413 57.9531 59.8715C57.8702 60.0026 57.7978 60.1589 57.7713 60.3132C57.7078 60.6778 57.6796 61.0481 57.6249 61.4147C57.5755 61.7503 57.526 62.0879 57.4449 62.4158C57.346 62.8132 57.2155 63.2009 57.099 63.5925C56.9631 64.0516 56.8307 64.5126 56.6913 64.9698C56.6472 65.1145 56.5749 65.2476 56.5343 65.3942C56.4743 65.6141 56.5766 65.724 56.7778 65.67C57.286 65.535 57.6337 65.2071 57.8225 64.665C57.9355 64.3429 58.0466 64.0169 58.2884 63.7661C58.5019 63.5423 58.5725 63.2453 58.6202 62.9289C58.7014 62.3888 58.8037 61.8506 58.9114 61.3144C59.0225 60.753 59.1743 60.1975 59.2625 59.6323C59.3367 59.1635 59.3384 58.6813 59.3825 58.2048C59.4125 57.8865 59.4902 57.5702 59.499 57.2519C59.5184 56.5555 59.5167 55.8572 59.5096 55.1589C59.5043 54.7191 59.4743 54.2812 59.4461 53.8433C59.4196 53.4248 59.3772 53.0062 59.3525 52.5856C59.3208 52.061 59.2272 51.5594 58.9784 51.1003C58.929 51.0097 58.9025 50.9016 58.8796 50.7975C58.7931 50.4078 58.6855 50.0259 58.5002 49.6767C58.209 49.1269 58.0625 48.5212 57.9478 47.904C57.8719 47.495 57.8366 47.0745 57.6302 46.7041L57.6319 46.7099ZM45.743 68.7217C45.8153 68.6407 45.8912 68.5847 45.93 68.5056C46.0995 68.1739 46.1789 67.8131 46.1842 67.4331C46.1895 67.0068 46.2318 66.5882 46.3783 66.187C46.493 65.8706 46.5706 65.5369 46.6906 65.2244C46.8371 64.8444 46.8301 64.4528 46.7612 64.0709C46.6571 63.4903 46.6677 62.9405 46.8689 62.3811C47.0224 61.9548 47.123 61.5053 47.2342 61.0636C47.2977 60.809 47.3418 60.5466 47.3806 60.2862C47.4054 60.1203 47.4248 59.9505 47.4177 59.7847C47.393 59.2368 47.4301 58.7063 47.5959 58.1817C47.7283 57.7631 47.8412 57.331 47.9012 56.895C48.0071 56.1118 48.0618 55.321 48.1465 54.5339C48.203 54.0035 48.2754 53.4749 48.3407 52.9444C48.383 52.5991 48.2701 52.4294 47.9524 52.3908C47.8448 52.3773 47.7336 52.387 47.6259 52.4005C47.3542 52.4371 47.2624 52.5316 47.2359 52.8364C47.1989 53.2878 47.1706 53.7392 47.153 54.1925C47.1318 54.7191 47.0206 55.211 46.7895 55.6817C46.6059 56.0559 46.4612 56.4552 46.4436 56.8931C46.4295 57.2307 46.3695 57.5547 46.2001 57.8441C46.0801 58.0486 46.043 58.2743 46.0642 58.5134C46.1012 58.9417 46.0959 59.3487 45.8065 59.7017C45.6848 59.8502 45.6106 60.0605 45.5489 60.2553C45.4571 60.5428 45.4059 60.8456 45.3142 61.133C45.2242 61.4127 45.1589 61.6924 45.1871 61.9856C45.2153 62.2846 45.2171 62.5971 45.3106 62.873C45.5295 63.5211 45.5453 64.1577 45.3918 64.8193C45.2771 65.3151 45.1871 65.8166 45.0953 66.3182C45.0406 66.6152 45.0142 66.9162 44.8694 67.1862C44.7636 67.383 44.6506 67.5913 44.6065 67.8112C44.52 68.2375 44.4671 68.4343 44.9842 68.606C45.1183 68.6503 45.2506 68.7024 45.3883 68.7256C45.5047 68.7448 45.6265 68.7256 45.743 68.7217ZM47.8483 69.011C47.9365 68.8818 48.046 68.7082 48.1677 68.5442C48.4995 68.1006 48.6071 67.5508 48.7713 67.028C48.8083 66.9084 48.7924 66.7676 48.7942 66.6365C48.7977 66.3857 48.7607 66.1253 48.8065 65.8841C48.8771 65.5022 48.9883 65.126 49.1066 64.7576C49.2866 64.1982 49.3889 63.6234 49.4507 63.0369C49.4736 62.8248 49.5354 62.6164 49.5513 62.4042C49.6113 61.6326 49.6413 60.8591 49.7189 60.0914C49.7754 59.5281 49.8813 58.9726 49.9783 58.4151C50.1283 57.5644 50.1971 56.706 50.1742 55.8399C50.1689 55.6527 50.1619 55.4618 50.1213 55.2804C50.0207 54.831 49.9695 54.3835 50.0048 53.9186C50.0313 53.5694 50.0189 53.2145 49.9995 52.8653C49.9836 52.5934 49.8389 52.4776 49.5971 52.4699C49.2742 52.4583 49.1913 52.6763 49.1736 52.956C49.1401 53.4826 49.1366 54.0112 49.0995 54.5378C49.0783 54.8445 49.0095 55.1454 48.9724 55.4502C48.9495 55.647 48.9442 55.8476 48.9371 56.0482C48.9283 56.3279 48.9371 56.6095 48.916 56.8892C48.8877 57.2827 48.8454 57.6763 48.7995 58.0698C48.7377 58.5868 48.6742 59.1057 48.5948 59.6188C48.5683 59.7885 48.5154 59.9679 48.4271 60.1087C48.2383 60.4116 48.106 60.7202 48.1536 61.0964C48.1624 61.1716 48.1607 61.2468 48.1642 61.3221C48.1907 61.8506 48.0001 62.3271 47.8801 62.8228C47.8236 63.0562 47.7883 63.3089 47.8042 63.5501C47.8483 64.2117 47.9542 64.8676 47.9048 65.5389C47.8783 65.8957 47.7971 66.1986 47.5959 66.4802C47.4407 66.6982 47.2536 66.9239 47.1936 67.1785C47.0754 67.6878 47.0259 68.2182 46.9712 68.7429C46.9624 68.8259 47.0471 68.9647 47.1212 69.0033C47.3348 69.1171 47.5659 69.1171 47.8536 69.013L47.8483 69.011ZM60.4361 46.4109C60.4202 46.4148 60.4061 46.4206 60.3902 46.4244C60.3267 46.2798 60.2843 46.1158 60.1925 45.9943C60.0214 45.7628 59.8343 45.5409 59.6296 45.3461C59.5043 45.2265 59.349 45.3191 59.3402 45.5043C59.3349 45.6239 59.3578 45.757 59.4037 45.865C59.6102 46.355 59.8272 46.8411 60.0478 47.3233C60.1873 47.6281 60.2737 47.9406 60.2861 48.284C60.2949 48.527 60.309 48.7778 60.369 49.0093C60.4978 49.5147 60.4837 50.0066 60.3937 50.5197C60.2896 51.1215 60.092 51.7079 60.1837 52.3464C60.2508 52.8094 60.2137 53.2878 60.2596 53.7565C60.309 54.2542 60.3867 54.75 60.4784 55.2399C60.5455 55.6064 60.6055 55.9672 60.5561 56.3414C60.5367 56.4919 60.4943 56.6385 60.4873 56.7889C60.4502 57.8074 60.3973 58.824 60.2243 59.831C60.1537 60.2438 60.1625 60.672 60.1061 61.0867C60.0408 61.5516 59.9473 62.0107 59.7461 62.4351C59.612 62.7187 59.5061 63.0119 59.5325 63.3437C59.5484 63.5288 59.6367 63.5983 59.7867 63.5192C60.1431 63.334 60.3937 63.0331 60.5949 62.6685C60.7731 62.3464 60.7449 61.9741 60.8261 61.6269C60.9655 61.0211 61.1137 60.4174 61.2637 59.8155C61.2937 59.694 61.3749 59.586 61.3943 59.4644C61.449 59.1365 61.4967 58.8067 61.5231 58.4749C61.562 57.9926 61.5761 57.5084 61.6026 57.0243C61.6131 56.8449 61.6696 56.65 61.6273 56.488C61.5443 56.1851 61.4014 55.9016 61.2884 55.6084C61.2002 55.3808 61.1508 55.1474 61.1826 54.8927C61.2302 54.5204 61.2761 54.1443 61.2867 53.7681C61.2955 53.392 61.2567 53.0158 61.2443 52.6397C61.2373 52.4197 61.262 52.196 61.2408 51.978C61.1578 51.1138 61.089 50.2535 61.0996 49.3816C61.1049 48.9784 61.0361 48.5695 60.969 48.1721C60.9337 47.9638 60.812 47.7766 60.752 47.5702C60.639 47.1864 60.5402 46.7987 60.4361 46.4109ZM38.0011 39.0518C38.0064 39.073 38.0117 39.0942 38.017 39.1155C37.6764 39.2158 37.5088 39.4839 37.4276 39.8292C37.3605 40.1108 37.3147 40.4002 37.2353 40.676C37.0341 41.3666 36.84 42.0591 36.6017 42.7343C36.457 43.1451 36.2452 43.5271 36.187 43.9746C36.1288 44.4221 35.9982 44.8658 35.9841 45.3133C35.9576 46.1621 35.7864 46.9838 35.6805 47.8191C35.6452 48.0988 35.5799 48.3978 35.7723 48.6158C36.0582 48.9398 36.3758 49.2311 36.6935 49.5205C36.8117 49.6285 36.9441 49.5571 37.0058 49.3893C37.0694 49.2176 37.1258 49.044 37.1964 48.8762C37.5847 47.9657 37.7876 47.0108 37.7911 46.0058C37.7911 45.6355 37.747 45.2593 37.7841 44.8947C37.8123 44.6227 37.9394 44.3604 38.0259 44.0961C38.1953 43.5849 38.3664 43.0738 38.5394 42.5626C38.6559 42.2192 38.7776 41.8759 38.8906 41.5306C38.9294 41.411 38.9488 41.2856 38.9876 41.166C39.0441 40.9904 39.1217 40.8207 39.1729 40.6413C39.2647 40.3192 39.3459 39.9932 39.4306 39.671C39.4765 39.4993 39.5365 39.3315 39.5629 39.1579C39.5947 38.9553 39.6106 38.747 39.607 38.5425C39.6035 38.3593 39.48 38.313 39.3459 38.4326C39.2665 38.504 39.2029 38.6004 39.1182 38.6602C38.9664 38.7644 38.8094 38.8782 38.64 38.9341C38.4353 39.0016 38.2164 39.0132 38.0047 39.0499L38.0011 39.0518ZM59.942 41.7543C60.1414 41.6174 60.1237 41.355 59.9984 41.2007C59.7672 40.9152 59.5114 40.6529 59.2537 40.3963C58.7702 39.9102 58.1843 39.5919 57.6231 39.2331C57.0143 38.8435 56.379 38.5194 55.6996 38.2995C55.0466 38.0873 54.3901 37.8848 53.7389 37.6687C53.4142 37.5607 53.0984 37.4199 52.7754 37.308C51.6954 36.9318 50.6136 36.5634 49.5318 36.1911C49.493 36.1776 49.4542 36.1602 49.4136 36.1564C48.7995 36.1081 48.1854 36.0638 47.573 36.0117C47.2183 35.9828 46.8918 36.1139 46.5618 36.2123C46.3836 36.2644 46.2036 36.3416 46.0483 36.4477C45.8983 36.5499 45.93 36.7621 46.0942 36.8431C46.1771 36.8836 46.2742 36.9145 46.3624 36.9068C46.7771 36.874 47.1848 36.8971 47.5977 36.982C47.9965 37.063 48.4148 37.0399 48.8171 37.1093C49.403 37.2096 49.9854 37.3427 50.5642 37.4816C50.873 37.5549 51.1766 37.6591 51.4766 37.769C51.6901 37.8481 51.8948 37.9581 52.1013 38.0603C52.2425 38.1317 52.3907 38.1973 52.5125 38.2976C52.9272 38.6429 53.4142 38.7972 53.896 38.9631C54.1554 39.0518 54.4254 39.0595 54.6954 38.9746C54.8031 38.9399 54.9248 38.9303 55.0378 38.9438C55.6501 39.0132 56.2237 39.2486 56.7513 39.5649C57.2896 39.8871 57.7837 40.296 58.2955 40.6702C58.5231 40.838 58.7437 41.0194 58.9696 41.1911C59.1849 41.355 59.3984 41.5286 59.6243 41.6733C59.7143 41.7312 59.8361 41.7292 59.9437 41.7543H59.942ZM45.4095 42.063C45.0477 42.198 44.8589 42.4179 44.6594 42.632C44.4071 42.904 44.1124 43.1278 43.8477 43.3882C43.6147 43.6177 43.6253 43.8145 43.8565 44.044C43.9924 44.1791 44.1247 44.3392 44.0806 44.5475C44.01 44.8793 43.9183 45.2092 43.8 45.5236C43.7118 45.7589 43.5459 45.8149 43.3641 45.7377C43.1965 45.6663 43.1471 45.5236 43.2 45.2632C43.2336 45.0973 43.2777 44.9314 43.2936 44.7636C43.3006 44.698 43.2565 44.5861 43.2106 44.5668C43.1418 44.5379 43.0112 44.5379 42.9741 44.5861C42.8312 44.779 42.6741 44.9777 42.5965 45.2053C42.4906 45.5101 42.4465 45.8399 42.39 46.164C42.3318 46.4862 42.3882 46.6617 42.7341 46.6636C42.8735 46.6636 43.013 46.7524 43.1524 46.8044C43.2265 46.8314 43.2953 46.8874 43.3712 46.897C43.56 46.9221 43.6941 46.7794 43.8124 46.5074C44.0665 45.9267 44.3153 45.3423 44.6012 44.779C44.8042 44.3797 45.0477 43.9997 45.3053 43.639C45.4977 43.3708 45.7112 43.0815 45.9742 42.9194C46.5036 42.5934 47.0612 42.3137 47.6312 42.0823C47.9683 41.9453 48.3265 41.8218 48.706 41.8508C49.0766 41.8797 49.4507 41.8894 49.823 41.899C49.9254 41.9029 50.0295 41.8643 50.1319 41.8758C50.4866 41.9144 50.8395 41.9742 51.196 42.0032C51.2789 42.0109 51.3989 41.953 51.443 41.8836C51.473 41.8353 51.4289 41.6694 51.3725 41.627C51.1025 41.4283 50.8272 41.2277 50.5342 41.0772C49.8442 40.7204 49.0924 40.7667 48.3548 40.732C48.0795 40.7185 47.8042 40.7069 47.5289 40.7223C47.3665 40.732 47.1795 40.7512 47.0489 40.8458C46.7312 41.0753 46.4489 41.3647 46.0853 41.5171C46.0659 41.5248 46.0518 41.5518 46.0342 41.5672C45.8012 41.7524 45.5683 41.9376 45.4095 42.0649V42.063ZM53.1601 61.7966C53.1442 61.7966 53.1284 61.7966 53.1125 61.7947C53.0684 61.8757 53.026 61.9567 52.9819 62.0358C52.7684 62.4197 52.5619 62.8074 52.4348 63.2395C52.2936 63.7217 52.1313 64.1982 51.9813 64.6785C51.9301 64.8406 51.8878 65.0064 51.8507 65.1743C51.7801 65.481 51.7183 65.7877 51.4819 66.0134C51.2083 66.2757 50.9525 66.295 50.6736 66.1407C50.5007 66.0442 50.3683 65.7954 50.5113 65.5446C51.0107 64.6592 51.4025 63.7275 51.3283 62.6531C51.2983 62.2113 51.2225 61.7715 51.1536 61.3336C51.143 61.27 51.0619 61.2044 51.0001 61.1755C50.9736 61.1639 50.8942 61.2372 50.8695 61.2912C50.8219 61.3896 50.776 61.4976 50.7672 61.6056C50.7195 62.2383 50.5977 62.8595 50.3136 63.4092C50.0877 63.8471 50.0524 64.2811 50.0701 64.7634C50.0895 65.317 50.266 65.8649 50.1389 66.4262C50.1336 66.4474 50.153 66.4744 50.1548 66.4995C50.1954 67.0068 50.1954 67.5084 50.0083 67.9906C49.9501 68.1411 49.9077 68.305 49.8866 68.4671C49.8742 68.5635 49.8107 68.6966 49.9554 68.7641C50.0895 68.8259 50.1795 68.768 50.2572 68.6561C50.3472 68.5249 50.4213 68.3803 50.5219 68.2607C50.9401 67.763 51.3672 67.273 51.7854 66.7753C51.9972 66.5226 52.1754 66.2506 52.2813 65.9169C52.3572 65.6758 52.4736 65.4405 52.6113 65.2341C52.7825 64.9814 52.8689 64.7094 52.9219 64.4046C53.0313 63.7796 53.0154 63.1372 53.1813 62.518C53.2395 62.3001 53.1707 62.0397 53.1584 61.8005L53.1601 61.7966ZM43.1488 56.976C43.2388 57.0378 43.3306 57.1535 43.4153 57.1477C43.4877 57.1419 43.553 56.9992 43.6183 56.9143C43.6359 56.8912 43.6341 56.8526 43.65 56.8256C43.7524 56.6365 43.8441 56.4398 43.9624 56.2623C44.0771 56.0906 44.2571 56.0694 44.4018 56.2122C44.4989 56.3067 44.58 56.4263 44.6471 56.5478C44.783 56.8005 45.0106 56.8719 45.1447 56.6809C45.2083 56.5902 45.2506 56.4745 45.2771 56.3626C45.3512 56.0694 45.3883 55.7627 45.4836 55.4791C45.5983 55.1358 45.7871 54.8214 45.893 54.4741C46.0377 54.0054 46.1418 53.5231 46.2424 53.039C46.2653 52.9251 46.2353 52.7457 46.1648 52.6724C45.9424 52.4448 45.383 52.6763 45.3124 53.0081C45.293 53.0988 45.2912 53.1952 45.2718 53.2878C45.1836 53.689 45.1077 54.0922 44.9965 54.4857C44.8959 54.8368 44.5306 54.9506 44.3312 54.6979C44.2465 54.5918 44.2094 54.4105 44.2094 54.2619C44.2094 53.7951 44.2359 53.3302 44.25 52.8634C44.2589 52.5856 44.1071 52.4197 43.8283 52.3966C43.5318 52.3735 43.3853 52.4718 43.373 52.7631C43.3553 53.1759 43.3571 53.5926 43.3747 54.0073C43.4083 54.7423 43.3677 55.4656 43.2 56.1794C43.1418 56.4263 43.05 56.679 43.1541 56.978L43.1488 56.976ZM33.217 45.892C33.2329 45.9132 33.2805 45.9769 33.3229 46.0425C33.4499 46.2354 33.5717 46.4341 33.704 46.6231C33.7799 46.7311 33.8646 46.8372 33.9635 46.9202C34.0129 46.9626 34.1011 46.9491 34.1735 46.9626C34.1752 46.8835 34.2088 46.7794 34.1735 46.7331C34.0693 46.5961 33.9493 46.4649 33.8152 46.3646C33.6882 46.2662 33.6229 46.1524 33.6246 45.9885C33.6299 45.4561 33.8417 45.3423 34.2052 45.2149C34.4258 45.1378 34.6129 45.0471 34.6729 44.7655C34.7117 44.5861 34.7646 44.3913 34.8635 44.2466C35.1052 43.8897 35.2411 43.502 35.2658 43.0622C35.2799 42.8172 35.2623 42.5626 35.317 42.3311C35.4211 41.8913 35.5711 41.4669 35.6911 41.0329C35.7317 40.8843 35.7564 40.7242 35.7582 40.5699C35.7582 40.4773 35.7211 40.3307 35.6629 40.3018C35.5852 40.2632 35.4582 40.2921 35.3752 40.3404C35.2499 40.4117 35.1476 40.5294 35.0311 40.622C34.8017 40.8091 34.5723 40.9982 34.3376 41.1795C34.0923 41.3685 33.8682 41.5672 33.847 41.9337C33.8417 42.0398 33.8117 42.1459 33.7746 42.2462C33.6493 42.5934 33.5982 42.9522 33.6017 43.3245C33.6017 43.4538 33.5823 43.5907 33.5435 43.7142C33.4235 44.0942 33.2787 44.4665 33.164 44.8484C33.0652 45.1783 33.0458 45.5159 33.2117 45.894L33.217 45.892ZM38.3047 66.2892C38.3153 66.2777 38.3417 66.2545 38.3664 66.2275C38.5817 65.9902 38.6382 65.6816 38.6823 65.371C38.7264 65.0547 38.79 64.7422 39.0635 64.5628C39.2929 64.4104 39.4341 64.1943 39.5206 63.9224C39.5559 63.8143 39.6 63.7121 39.6494 63.6118C39.8365 63.2337 40.0712 62.8826 40.1682 62.4563C40.2512 62.0879 40.3429 61.7214 40.4082 61.3491C40.44 61.1716 40.4188 60.9806 40.2812 60.8475C39.9829 60.5601 39.66 60.4019 39.3282 60.7935C38.917 61.2816 38.7653 61.9027 38.677 62.5277C38.6188 62.9366 38.6806 63.3668 38.6806 63.7873C38.6806 64.0516 38.7 64.3255 38.4847 64.5223C38.2782 64.7094 38.13 64.9351 38.1 65.2321C38.0682 65.5369 38.0364 65.8417 38.0259 66.1484C38.0206 66.2834 38.1706 66.3567 38.3029 66.2912L38.3047 66.2892ZM41.2094 51.9163C40.9623 52.0899 40.8353 52.2558 40.8141 52.493C40.7929 52.7245 40.8018 52.9599 40.7665 53.1894C40.7294 53.4286 40.68 53.6736 40.59 53.8935C40.4171 54.3179 40.2282 54.7326 40.177 55.2014C40.1594 55.3673 40.1859 55.5254 40.3323 55.6084C40.4788 55.6933 40.5759 55.5698 40.6835 55.4811C40.7929 55.3904 40.9182 55.319 41.0382 55.2438C41.1529 55.1724 41.2518 55.2033 41.3224 55.3229C41.4388 55.5177 41.5535 55.7145 41.6612 55.9151C41.7335 56.0501 41.8147 56.0328 41.8712 55.9228C41.9594 55.7511 42.0441 55.5698 42.0971 55.3827C42.1888 55.0567 42.2577 54.721 42.3335 54.3893C42.3935 54.1327 42.4606 53.88 42.3759 53.6119C42.2541 53.228 42.2259 52.8287 42.2453 52.4236C42.2559 52.2018 42.1782 52.0802 41.9894 52.0031C41.9135 51.9722 41.8324 51.9491 41.7529 51.9433C41.5518 51.9279 41.3488 51.924 41.2094 51.9182V51.9163ZM44.58 62.6164C44.4583 62.3888 44.3383 62.3348 44.1459 62.4737C44.0418 62.5489 43.9518 62.6724 43.8953 62.7977C43.7788 63.0524 43.6853 63.3205 43.5865 63.5867C43.5036 63.8085 43.4083 64.0246 43.3518 64.2541C43.2177 64.8039 43.1241 65.3672 42.9724 65.9111C42.8453 66.3683 42.6565 66.8023 42.5065 67.2518C42.4535 67.4119 42.4288 67.6009 42.6018 67.6993C42.7959 67.8093 42.9988 67.9115 43.2088 67.9713C43.4577 68.0427 43.6977 67.9501 43.7612 67.5276C43.8089 67.2113 43.8318 66.8911 43.8794 66.5747C43.9818 65.8996 44.0894 65.2225 44.3294 64.5859C44.5271 64.0593 44.5871 63.5095 44.6206 62.9521C44.6277 62.8421 44.5942 62.7302 44.5783 62.6203L44.58 62.6164ZM53.6331 54.5397C53.6225 54.5416 53.6119 54.5436 53.6013 54.5455C53.5889 54.5166 53.5766 54.4876 53.5625 54.4587C53.4866 54.3121 53.2731 54.1771 53.1601 54.2272C53.0242 54.287 52.9695 54.4298 52.9713 54.5783C52.9731 54.8792 53.0031 55.1801 52.9995 55.4811C52.9889 56.6288 52.9678 57.7766 52.9554 58.9224C52.9519 59.1963 52.9431 59.476 52.9784 59.7461C53.0242 60.1049 53.1107 60.4579 53.1831 60.8109C53.1901 60.8475 53.2184 60.8977 53.2466 60.9054C53.2713 60.9131 53.3119 60.8765 53.3384 60.8495C53.6631 60.5119 53.7972 60.0856 53.8095 59.6072C53.8254 59.0092 53.8589 58.4151 53.9048 57.819C53.956 57.1496 53.889 56.4668 53.836 55.7936C53.8025 55.3711 53.7019 54.9544 53.6331 54.5359V54.5397ZM42.0671 62.8074C42.0759 62.8151 42.0847 62.8209 42.0953 62.8286C42.2541 62.6511 42.4218 62.4814 42.5683 62.2923C42.8735 61.8969 43.1753 61.5053 43.6218 61.2796C43.8283 61.1755 43.9836 60.9826 44.063 60.7453C44.183 60.3826 44.0841 60.1242 43.71 60.0972C43.6765 60.0952 43.6412 60.0894 43.6077 60.0837C43.3465 60.0374 43.2265 59.8985 43.1841 59.611C43.14 59.3159 43.2088 59.0459 43.3271 58.7874C43.403 58.6195 43.5036 58.4633 43.4612 58.2569C43.433 58.1219 43.3641 58.0736 43.253 58.1412C43.2088 58.1682 43.1718 58.2125 43.1418 58.2569C42.8788 58.6465 42.6018 59.0285 42.3618 59.4336C42.2612 59.6053 42.2065 59.829 42.1835 60.0354C42.1447 60.3904 42.1482 60.7511 42.1288 61.1099C42.1077 61.5208 42.0371 61.9066 41.7071 62.1766C41.6382 62.2326 41.5906 62.3329 41.5535 62.4235C41.46 62.6531 41.5765 62.8865 41.7812 62.8826C41.8765 62.8826 41.97 62.8344 42.0635 62.8074H42.0671ZM51.2401 52.2423C51.2172 52.2539 51.1942 52.2674 51.1713 52.2789C51.1589 52.3908 51.1325 52.5008 51.1342 52.6126C51.143 53.2029 51.1677 53.7913 51.1713 54.3815C51.1748 54.8792 51.1748 55.3788 51.1519 55.8765C51.1077 56.8603 50.9966 57.8422 51.0583 58.8298C51.0795 59.1809 51.0777 59.5339 51.1007 59.883C51.106 59.9621 51.1766 60.0374 51.2189 60.1126C51.2772 60.0586 51.3583 60.0161 51.3901 59.9486C51.6107 59.4644 51.7448 58.9552 51.8366 58.4189C51.9654 57.6763 52.0095 56.9413 51.9283 56.1909C51.8878 55.8167 51.8719 55.4406 51.8401 55.0663C51.8048 54.6555 51.7872 54.2388 51.7148 53.8337C51.6301 53.3746 51.4289 52.9464 51.3848 52.4699C51.3777 52.3889 51.293 52.3156 51.2436 52.2384L51.2401 52.2423ZM51.7607 48.9186C51.7766 48.9128 51.7925 48.9051 51.8083 48.8993C51.9213 49.2774 52.0342 49.6555 52.1472 50.0336C52.2195 50.2786 52.3025 50.5216 52.3607 50.7705C52.4754 51.2623 52.6625 51.7176 52.9272 52.1323C53.0666 52.3484 53.2978 52.3889 53.4619 52.2577C53.5572 52.1805 53.6101 51.8796 53.5466 51.6906C53.4742 51.4765 53.3648 51.2739 53.3137 51.054C53.1848 50.5081 53.0737 49.9583 52.966 49.4067C52.8831 48.9823 52.7278 48.6061 52.426 48.311C52.1683 48.0602 51.9178 47.8017 51.6548 47.5587C51.5154 47.4294 51.3636 47.3137 51.203 47.2192C51.1466 47.1864 51.0319 47.2018 50.9807 47.2481C50.9383 47.2867 50.9225 47.4082 50.9436 47.4757C50.9842 47.6069 51.0407 47.7439 51.1254 47.8422C51.3972 48.1605 51.6319 48.502 51.7607 48.9205V48.9186ZM58.9943 18.0855C59.2784 17.9312 59.3561 17.3467 59.1814 17.1403C59.0878 17.0304 58.9555 16.9108 58.8302 16.8934C58.3008 16.822 57.7678 16.7777 57.2349 16.741C57.0425 16.7275 56.8378 16.8163 56.6578 16.77C56.2713 16.6696 55.899 16.5095 55.5196 16.3803C55.4154 16.3456 55.306 16.3186 55.1984 16.3166C55.0113 16.3128 54.9248 16.4768 54.9919 16.6658C55.0801 16.9146 55.2319 17.1017 55.4472 17.2156C56.0543 17.5358 56.7037 17.7094 57.3637 17.8386C57.7325 17.91 58.1013 17.9833 58.4719 18.0431C58.6714 18.0759 58.8761 18.0778 58.9961 18.0875L58.9943 18.0855ZM60.5437 44.1694C60.3814 43.7933 60.1449 43.4885 59.8378 43.2474C59.5943 43.0564 59.3067 42.9175 59.1037 42.686C58.5514 42.0533 57.9143 41.5363 57.279 41.0174C57.0408 40.8226 56.7655 40.6818 56.499 40.5352C56.3896 40.4754 56.2484 40.46 56.1566 40.5873C56.056 40.7262 56.1549 40.8516 56.2113 40.9712C56.2307 41.0117 56.2802 41.0367 56.3172 41.0676C56.506 41.2219 56.7107 41.357 56.8819 41.5344C57.3902 42.0591 57.8808 42.6031 58.3837 43.1316C58.6396 43.3998 58.8919 43.666 59.2449 43.8068C59.4972 43.9071 59.7196 44.1038 59.9437 44.2775C60.1308 44.4221 60.2967 44.5957 60.4784 44.7501C60.5173 44.7828 60.6037 44.8137 60.6267 44.7925C60.6637 44.7578 60.6884 44.6729 60.6778 44.6189C60.6443 44.4665 60.5896 44.3199 60.5437 44.1694ZM54.886 18.805C54.6513 18.9285 54.579 19.0655 54.6001 19.3278C54.616 19.5207 54.6866 19.6924 54.879 19.7387C55.0696 19.7831 55.2637 19.8043 55.4578 19.8293C55.7472 19.8679 56.0631 19.8178 56.3066 20.03C56.5802 20.2672 56.8837 20.3251 57.2172 20.3174C57.7078 20.3077 58.1878 20.3772 58.6449 20.5894C58.7402 20.6337 58.8443 20.6569 58.9467 20.6762C59.0737 20.6993 59.1567 20.6357 59.1919 20.4968C59.2361 20.3212 59.1796 20.1727 58.9908 20.0647C58.7614 19.9335 58.5196 19.8236 58.2831 19.7059C58.1049 19.6172 57.9319 19.5342 57.8172 19.3355C57.7466 19.2121 57.6337 19.1079 57.5225 19.025C57.3955 18.9324 57.2419 18.8668 57.1043 19.0037C57.0355 19.0732 56.9843 19.1696 56.9455 19.2642C56.8396 19.5207 56.7002 19.7329 56.4196 19.7387C56.3402 19.7387 56.2202 19.6731 56.1902 19.6017C56.1319 19.4667 56.1054 19.3047 56.1019 19.1542C56.0966 18.8803 56.0401 18.6874 55.7049 18.7125C55.4825 18.7279 55.2584 18.7452 55.036 18.7684C54.969 18.7742 54.9019 18.7993 54.886 18.805ZM47.1283 43.7663C46.973 43.8974 46.8283 44.0113 46.6942 44.1386C46.3306 44.48 46.0942 44.9295 45.833 45.3577C45.5895 45.7589 45.3459 46.1582 45.2189 46.627C45.1747 46.7929 45.1571 46.9375 45.2983 47.0533C45.3918 47.1304 45.6477 47.1092 45.7536 47.0263C45.96 46.8642 46.0324 46.6154 46.1189 46.3762C46.2089 46.1274 46.2759 45.865 46.3889 45.6297C46.5548 45.2863 46.7401 44.9487 46.9448 44.6324C47.2077 44.2234 47.5783 43.9977 48.046 44.0865C48.2771 44.1308 48.4942 44.2582 48.7201 44.3334C48.9971 44.4241 49.2813 44.4356 49.5477 44.3006C49.7489 44.1984 49.7542 44.0074 49.576 43.8743C49.2866 43.6602 48.9618 43.5869 48.6195 43.6004C48.2877 43.6139 47.9542 43.6351 47.6224 43.6679C47.453 43.6852 47.2854 43.7354 47.1283 43.7682V43.7663ZM55.4596 14.133C55.3343 14.2777 55.1984 14.4108 55.089 14.569C54.999 14.6963 55.059 14.8988 55.1843 14.9548C55.276 14.9972 55.3713 15.0416 55.4684 15.057C56.236 15.1901 57.0037 15.3194 57.7713 15.4428C57.9937 15.4795 58.2161 15.5103 58.4402 15.5219C58.6096 15.5296 58.7084 15.3984 58.6414 15.2634C58.4702 14.92 58.2372 14.6423 57.8649 14.5767C57.6919 14.5458 57.5031 14.596 57.3355 14.5497C56.9119 14.4301 56.4955 14.2796 56.079 14.1369C55.8796 14.0694 55.6837 14.0443 55.4631 14.1311L55.4596 14.133ZM57.8031 34.4106C58.0872 34.2525 58.1208 34.0287 58.1208 33.7876C58.1208 33.5696 57.9796 33.4731 57.8208 33.4211C57.3143 33.2494 56.8043 33.0893 56.296 32.9272C56.2131 32.9002 56.1284 32.8771 56.0419 32.8655C55.7278 32.8192 55.2443 33.2204 55.2125 33.5696C55.2054 33.6487 55.246 33.7741 55.3025 33.8126C55.419 33.8937 55.5584 33.9477 55.6943 33.9805C56.2925 34.1232 56.8907 34.2582 57.4908 34.3894C57.6108 34.4145 57.7361 34.4106 57.8049 34.4145L57.8031 34.4106ZM55.6819 26.006C55.6607 26.0311 55.6166 26.0716 55.5884 26.1217C55.5037 26.2761 55.5407 26.496 55.6466 26.6368C55.7807 26.8162 55.9625 26.8586 56.1549 26.8798C56.7496 26.9454 57.316 27.119 57.8561 27.3987C57.9708 27.4585 58.0784 27.5376 58.1966 27.582C58.3943 27.6553 58.5019 27.6071 58.5761 27.445C58.7825 26.9975 58.5849 26.5866 58.1349 26.5133C57.8613 26.469 57.5861 26.4304 57.3196 26.3532C57.0266 26.2683 56.746 26.1275 56.4549 26.0349C56.2131 25.9578 55.9625 25.898 55.6819 26.0079V26.006ZM41.8288 64.3487C41.7459 64.2136 41.6471 64.1384 41.5341 64.2021C41.4159 64.2676 41.2871 64.3641 41.2253 64.4856C41.0876 64.7538 40.9976 65.0527 40.8688 65.3286C40.6535 65.7877 40.4206 66.2352 40.2 66.6905C40.1153 66.8641 40.1523 67.0184 40.3165 67.0936C40.4665 67.1611 40.6323 67.2016 40.7929 67.219C41.0153 67.2422 41.1459 67.1187 41.1988 66.8795C41.2359 66.7078 41.2588 66.5304 41.3082 66.3625C41.4688 65.8108 41.6418 65.2649 41.7988 64.7132C41.8306 64.5994 41.82 64.4702 41.8288 64.3487ZM47.7777 34.4222C47.7777 34.4492 47.7777 34.4762 47.7759 34.5032C47.8183 34.5322 47.8571 34.5746 47.903 34.5881C48.3407 34.7038 48.7783 34.8292 49.2195 34.9237C49.7577 35.0395 50.2783 35.1996 50.7707 35.4697C50.9719 35.5796 51.1907 35.7031 51.4307 35.595C51.5295 35.5507 51.6178 35.4735 51.7113 35.4118C51.6389 35.3327 51.5807 35.2189 51.4942 35.1803C50.9895 34.9469 50.4848 34.7135 49.9677 34.5167C49.4577 34.3219 48.9283 34.2158 48.3848 34.2872C48.1801 34.3142 47.9789 34.3778 47.7759 34.4261L47.7777 34.4222ZM58.9325 29.3528C58.8337 29.2525 58.7296 29.0847 58.5849 29.0114C58.2514 28.8435 57.9037 28.7066 57.5525 28.587C57.3937 28.533 57.2137 28.5291 57.0443 28.5349C56.8855 28.5388 56.7884 28.7008 56.8007 28.8783C56.8202 29.131 56.9843 29.2506 57.1696 29.3258C57.5666 29.4859 57.9725 29.6229 58.3325 29.8813C58.4666 29.9778 58.6184 30.0492 58.7702 30.1051C58.9572 30.1746 59.0631 30.08 59.0419 29.864C59.0261 29.7097 58.9784 29.5611 58.9308 29.3528H58.9325ZM57.4713 31.3551C57.3513 31.112 57.1431 31.0619 56.9155 31.0484C56.716 31.0368 56.5325 30.9789 56.3754 30.8343C56.0825 30.5623 55.7243 30.5237 55.3625 30.5276C55.1807 30.5295 55.0748 30.6587 55.0696 30.8188C55.0643 30.9886 55.1666 31.0445 55.2848 31.0985C55.6396 31.2586 55.9854 31.438 56.3454 31.5808C56.6172 31.6869 56.8996 31.7718 57.1855 31.8161C57.3919 31.8489 57.616 31.6329 57.4731 31.357L57.4713 31.3551ZM41.1865 58.4787C41.1141 58.4884 41.07 58.4807 41.04 58.5019C40.6482 58.77 40.32 58.743 40.0482 58.2935C39.9618 58.1527 39.8541 58.1759 39.7747 58.3205C39.7429 58.3803 39.7094 58.4498 39.7076 58.5154C39.697 58.8645 39.6882 59.2156 39.6935 59.5648C39.6953 59.7017 39.7782 59.8039 39.9035 59.8367C40.1347 59.8946 40.6341 59.7094 40.7735 59.4625C40.8953 59.2503 41.0082 59.0304 41.1124 58.8067C41.1547 58.716 41.16 58.606 41.1865 58.4768V58.4787ZM42.84 35.9191C42.9547 35.84 43.1012 35.7667 43.2124 35.6529C43.2777 35.5873 43.3412 35.4272 43.3112 35.3636C43.2724 35.2825 43.1277 35.1996 43.0483 35.217C42.8859 35.2555 42.7306 35.3501 42.5841 35.4407C42.4641 35.514 42.3688 35.6664 42.2453 35.6934C41.7212 35.8149 41.4741 36.2798 41.1794 36.683C41.1353 36.7428 41.1494 36.9164 41.1988 36.9762C41.2447 37.0321 41.3929 37.0495 41.46 37.0109C41.6418 36.9068 41.8077 36.7679 41.9771 36.6367C42.2647 36.411 42.4465 36.0348 42.84 35.921V35.9191ZM62.4955 52.3175C62.4708 52.2751 62.4496 52.2268 62.4179 52.1921C62.372 52.142 62.3173 52.1015 62.2661 52.0552C62.229 52.1227 62.1655 52.1863 62.1584 52.2577C62.1302 52.5432 62.0949 52.8326 62.1055 53.12C62.1196 53.5019 62.1708 53.8819 62.2149 54.26C62.2343 54.4201 62.2608 54.5841 62.3155 54.7326C62.3367 54.7905 62.4496 54.8503 62.5079 54.8387C62.5643 54.8271 62.6226 54.7326 62.649 54.6593C62.679 54.5802 62.6702 54.4857 62.6861 54.4008C62.8237 53.6832 62.7973 52.9869 62.4937 52.3175H62.4955ZM58.9325 23.0816C58.9855 23.0141 59.0455 22.9717 59.0543 22.9215C59.0896 22.7036 59.1231 22.4836 59.1284 22.2637C59.1284 22.1789 59.0525 22.0921 59.0102 22.0072C58.9325 22.0554 58.8549 22.1017 58.779 22.1538C58.6908 22.2136 58.6096 22.2985 58.5143 22.3313C58.4578 22.3505 58.3766 22.2927 58.3096 22.2599C58.1084 22.1576 57.8984 22.2271 57.8137 22.4316C57.7519 22.584 57.8578 22.7518 58.0696 22.8328C58.269 22.91 58.4684 22.991 58.6696 23.0566C58.7525 23.0836 58.8461 23.0758 58.9325 23.0836V23.0816ZM40.5829 56.4706C40.5653 56.542 40.53 56.6057 40.5441 56.6539C40.5653 56.7311 40.6094 56.8101 40.6623 56.8642C40.8494 57.0571 41.0453 57.2422 41.2359 57.4294C41.3329 57.5239 41.4671 57.5181 41.5324 57.3946C41.6506 57.1747 41.7353 56.9432 41.6912 56.6751C41.6524 56.434 41.6135 56.4108 41.4088 56.4533C41.2447 56.488 41.0718 56.488 40.9041 56.4938C40.8088 56.4976 40.7118 56.4803 40.5829 56.4687V56.4706ZM55.4578 21.8857C55.4719 21.8895 55.486 21.8953 55.5019 21.8992C55.5319 21.9455 55.5566 21.9995 55.5937 22.0342C55.8425 22.2715 56.1354 22.3583 56.4602 22.3428C56.589 22.337 56.7107 22.2811 56.7072 22.1384C56.7055 22.0419 56.6296 21.9088 56.5519 21.8606C56.3207 21.7198 56.0772 21.5963 55.8284 21.4999C55.7384 21.4651 55.5831 21.4902 55.5178 21.5558C55.4578 21.6175 55.4754 21.7718 55.4596 21.8857H55.4578ZM53.5148 35.3462C53.5025 35.3327 53.4584 35.2768 53.4054 35.2324C53.2219 35.0858 53.0207 35.1437 52.8513 35.2362C52.6025 35.3732 52.6025 35.5449 52.8495 35.7088C52.9713 35.7899 53.1301 35.8362 53.2713 35.8381C53.5131 35.8381 53.6313 35.6182 53.5166 35.3462H53.5148ZM58.8496 24.6557C58.7614 24.4609 58.3996 24.3818 58.2619 24.5303C58.1878 24.6113 58.1384 24.7116 58.2178 24.8177C58.2884 24.9123 58.3696 25.001 58.4561 25.082C58.5602 25.1804 58.6802 25.2228 58.7878 25.0936C58.8937 24.9663 58.9202 24.8158 58.8496 24.6557ZM63.1026 56.9278C62.882 57.2596 62.9173 57.6415 62.859 57.9888C62.8361 58.1238 62.8043 58.307 62.9667 58.4074C63.1926 58.145 63.2896 57.2442 63.1026 56.9278ZM56.4196 36.0792C56.3013 36.1448 56.2466 36.249 56.2925 36.3879C56.3296 36.4978 56.5219 36.5422 56.6296 36.4824C56.7319 36.4245 56.8096 36.2335 56.7655 36.1467C56.7178 36.0503 56.536 36.0156 56.4196 36.0792ZM55.7631 28.8435C55.869 28.7876 55.9378 28.6005 55.8778 28.4905C55.8213 28.3844 55.7384 28.2996 55.6078 28.369C55.5125 28.4192 55.4437 28.6642 55.4984 28.7702C55.5601 28.8918 55.6554 28.9014 55.7631 28.8435Z" fill="#FFFFFF"/>
<path id="Vector_2" d="M31.4881 41.2382C30.5775 41.597 29.7075 41.5622 28.8905 40.9295C27.9093 40.1695 27.0887 39.2185 26.2346 38.3042C25.5551 37.5769 24.9975 36.7378 24.3728 35.9604C23.9563 35.4415 23.5275 34.9361 23.1004 34.4269C22.4228 33.6206 21.6833 32.8856 20.9016 32.2008C20.1833 31.572 19.4668 30.9373 18.768 30.2815C18.2315 29.7799 17.7127 29.2552 17.2045 28.7209C16.8251 28.3216 16.4915 27.8702 16.2815 27.3378C16.008 26.6395 15.9145 25.9142 16.0874 25.16C16.2621 24.3961 16.668 23.8347 17.2768 23.4277C17.9915 22.9513 18.7645 22.8664 19.5586 23.04C20.658 23.2792 21.5033 23.9756 22.1775 24.9266C22.3222 25.131 22.3822 25.405 22.5039 25.6345C22.6804 25.9682 22.8428 26.3232 23.0757 26.6048C23.5857 27.224 24.1398 27.7969 24.6692 28.3988C25.2057 29.0083 25.7563 29.6063 26.261 30.2467C27.0287 31.2228 27.8334 32.1584 28.6787 33.0554C29.5222 33.9504 30.3446 34.8725 31.1581 35.8022C31.4952 36.1861 31.8217 36.5912 32.0899 37.0329C32.3705 37.494 32.5258 38.0109 32.4587 38.6012C32.3934 39.1896 32.3952 39.7856 32.2081 40.3528C32.1005 40.6788 31.8287 41.0954 31.4881 41.2401V41.2382ZM21.9657 26.5083C21.8757 26.3463 21.798 26.1746 21.6939 26.0222C21.5404 25.7985 21.4116 25.8062 21.3022 26.0647C21.2122 26.2788 21.1592 26.5161 21.108 26.7475C21.0286 27.1102 20.9227 27.4728 20.9069 27.8393C20.8769 28.5068 20.7957 29.153 20.6227 29.7953C20.4586 30.4088 20.4957 30.6962 21.0039 31.028C21.2157 31.1669 21.3304 31.1225 21.408 30.864C21.5086 30.5361 21.6039 30.2082 21.6939 29.8783C21.731 29.7452 21.7663 29.6102 21.7733 29.4732C21.8033 28.9408 21.8227 28.4123 22.0257 27.9126C22.2163 27.44 22.2498 26.9655 21.9639 26.5083H21.9657ZM20.6686 24.7549C20.5469 24.5022 20.3951 24.3749 20.2063 24.3209C20.0545 24.2784 19.9363 24.3074 19.8339 24.4906C19.571 24.9613 19.488 25.4975 19.3415 26.0087C19.1263 26.761 18.9498 27.5249 18.7433 28.2811C18.618 28.7402 18.768 29.1549 19.1633 29.3748C19.3415 29.4732 19.5251 29.3903 19.5992 29.1607C19.6627 28.962 19.7174 28.7595 19.7651 28.5569C19.8233 28.3062 19.9027 28.0554 19.9168 27.7988C19.9363 27.4381 19.9998 27.1005 20.1445 26.7765C20.231 26.5836 20.3227 26.3907 20.3827 26.1862C20.4886 25.8178 20.5769 25.4416 20.6598 25.0654C20.6845 24.9497 20.6686 24.8224 20.6704 24.753L20.6686 24.7549ZM17.1127 27.006C17.1339 27.0523 17.1462 27.1063 17.1762 27.143C17.2892 27.2857 17.3527 27.5268 17.5592 27.5076C17.7674 27.4902 17.8239 27.2645 17.8839 27.0813C18.1309 26.3116 18.3745 25.5419 18.6162 24.7722C18.6515 24.6584 18.6815 24.5408 18.6974 24.4231C18.7362 24.1337 18.5774 23.9621 18.3127 24.0006C18.0127 24.045 17.7551 24.1916 17.5204 24.3961C17.2151 24.6642 17.0703 25.0269 17.0086 25.4358C16.9274 25.9682 16.8886 26.4987 17.1127 27.006ZM23.8239 28.8424C23.6492 28.6707 23.4957 28.5029 23.3263 28.3582C23.1075 28.1711 22.9504 28.2213 22.8728 28.5164C22.7563 28.9543 22.6504 29.396 22.5569 29.8416C22.4369 30.4068 22.3292 30.9759 22.2269 31.5449C22.1651 31.8902 22.2269 32.1989 22.5163 32.4111C22.6575 32.5152 22.7881 32.5017 22.8728 32.3378C22.931 32.2259 22.9522 32.0909 22.9892 31.9655C23.2592 31.0588 23.5328 30.1541 23.7957 29.2437C23.8292 29.126 23.8151 28.9929 23.8239 28.8405V28.8424ZM30.8458 36.8458C30.7522 36.7378 30.5775 36.5121 30.3799 36.3173C30.2087 36.1514 30.0869 36.1996 30.0217 36.435C29.9599 36.6587 29.9317 36.8979 29.8522 37.112C29.6652 37.6136 29.7499 38.1865 29.5028 38.6687C29.5011 38.6726 29.5064 38.6803 29.5064 38.688C29.4958 39.0893 29.4764 39.4924 29.4799 39.8936C29.4799 40.1598 29.704 40.4087 29.9422 40.4473C30.1328 40.4781 30.3005 40.3817 30.3622 40.1753C30.4328 39.9342 30.4875 39.6872 30.5405 39.4403C30.5934 39.1973 30.5052 39.016 30.3146 38.8829C30.2281 38.8231 30.1417 38.7575 30.0728 38.6765C29.8558 38.4257 29.8946 38.2096 30.1787 38.0707C30.2617 38.0302 30.3534 38.0071 30.4434 37.9878C30.8352 37.901 31.0823 37.3705 30.8493 36.8458H30.8458ZM25.8022 36.3424C25.9098 36.4697 26.0069 36.6105 26.1269 36.7224C26.2663 36.8516 26.381 36.8343 26.4781 36.6722C26.6493 36.3867 26.681 36.0665 26.6722 35.7309C26.6616 35.3566 26.6599 34.9805 26.6863 34.6082C26.6987 34.423 26.7957 34.2455 26.824 34.0584C26.8681 33.7691 26.8822 33.4739 26.914 33.1807C26.9316 33.0148 26.981 32.849 26.981 32.6831C26.981 32.5133 26.8452 32.4188 26.7181 32.4014C26.6475 32.3918 26.531 32.4902 26.4869 32.5731C26.3351 32.8567 26.2999 33.1788 26.2734 33.5029C26.224 34.1298 26.0246 34.7143 25.8428 35.3046C25.7422 35.6306 25.6716 35.9759 25.8022 36.3424ZM25.3487 30.5438C25.2181 30.4011 25.1069 30.2583 24.9763 30.1406C24.8281 30.0056 24.694 30.0288 24.6075 30.2139C24.521 30.3991 24.4451 30.5978 24.4063 30.7984C24.3234 31.2151 24.2704 31.6395 24.2016 32.06C24.161 32.303 24.2439 32.4689 24.424 32.494C24.6798 32.5287 25.0345 32.2973 25.1069 32.0253C25.2022 31.6742 25.2887 31.3173 25.3593 30.9585C25.384 30.8312 25.354 30.6923 25.3487 30.5438ZM28.8675 34.6545C28.7669 34.5002 28.6769 34.3555 28.5058 34.3786C28.3346 34.4018 28.3381 34.585 28.301 34.7201C28.2746 34.8146 28.2658 34.9168 28.2534 35.0171C28.2305 35.1908 28.2022 35.3644 28.1899 35.538C28.181 35.6691 28.2358 35.8022 28.361 35.7965C28.4616 35.7926 28.6081 35.7289 28.6469 35.6421C28.7528 35.4126 28.8216 35.1618 28.8852 34.913C28.9063 34.83 28.8728 34.7317 28.8675 34.6564V34.6545ZM28.361 37.9627C28.2428 37.6927 28.1758 37.6502 28.0187 37.7332C27.8246 37.8373 27.6446 38.144 27.6675 38.3466C27.6922 38.5646 27.9269 38.8694 28.1299 38.8867C28.2022 38.8925 28.3205 38.8153 28.3522 38.744C28.4722 38.4662 28.4193 38.1807 28.3593 37.9647L28.361 37.9627Z" fill="#FFFFFF"/>
<path id="Vector_3" d="M30.3963 17.0092C30.541 17.5165 30.6645 17.9428 30.7845 18.3711C30.9081 18.8109 30.9839 19.2835 31.3192 19.6037C31.471 19.7484 31.6669 19.8699 31.861 19.922C32.3128 20.0435 32.701 20.2866 33.0434 20.6087C33.6663 21.1971 34.1216 21.932 34.4305 22.7615C34.7269 23.562 34.9228 24.3953 34.7587 25.2653C34.6034 26.0871 34.2257 26.768 33.5004 27.1229C33.0169 27.3602 32.4928 27.3756 31.974 27.2734C31.2081 27.1229 30.5128 26.7834 29.9004 26.2588C29.3851 25.8189 28.958 25.2827 28.5927 24.6924C27.9027 23.5774 27.2163 22.4606 26.3639 21.4806C25.9686 21.0273 25.5786 20.5644 25.2045 20.0898C24.8145 19.5921 24.4756 19.0501 24.2551 18.4386C23.9339 17.5493 23.858 16.635 24.0803 15.6975C24.1827 15.2693 24.3133 14.8642 24.5427 14.4938C24.8762 13.9595 25.3545 13.7164 25.921 13.6778C26.3798 13.645 26.8492 13.6778 27.2639 13.8997C27.6274 14.0945 27.9769 14.3453 28.2874 14.6288C28.748 15.0532 29.1786 15.5162 29.5986 15.9868C29.8986 16.3225 30.1598 16.6986 30.3981 17.0054L30.3963 17.0092ZM31.081 20.819C31.0475 20.8518 31.0051 20.8788 30.9787 20.9174C30.8145 21.1739 30.6275 21.4189 30.5004 21.6967C30.2004 22.3545 29.8616 22.9737 29.3816 23.5003C29.2404 23.6565 29.1645 23.8842 29.3092 24.1118C29.401 24.2565 29.4857 24.4069 29.5828 24.5477C29.6763 24.6847 29.7963 24.8544 29.9551 24.7889C30.0645 24.7426 30.1439 24.5651 30.2039 24.4301C30.4281 23.9227 30.6239 23.4019 30.8587 22.9004C31.0122 22.5724 31.2045 22.2657 31.3951 21.959C31.5204 21.7565 31.6792 21.579 31.8151 21.3822C31.891 21.2742 31.9545 21.143 31.8557 21.0177C31.7022 20.8248 31.2822 20.6955 31.0828 20.817L31.081 20.819ZM25.8451 14.7021C25.7798 14.7889 25.6774 14.8815 25.628 15.0011C25.5557 15.1767 25.508 15.3676 25.471 15.5547C25.3862 15.9772 25.3033 16.3977 25.0668 16.7604C24.998 16.8665 24.9292 16.988 24.9045 17.1134C24.8392 17.4452 24.9327 17.7519 25.0898 18.0335C25.178 18.1917 25.3315 18.1936 25.4304 18.0354C25.6386 17.7036 25.8451 17.3699 26.0321 17.0227C26.2174 16.6755 26.3604 16.3032 26.6215 16.0061C26.8245 15.7747 26.9321 15.4814 26.9586 15.1689C26.9692 15.0513 26.9127 14.868 26.8298 14.8082C26.5404 14.5941 26.2121 14.6115 25.8451 14.7021ZM33.2393 22.3622C33.2251 22.3294 33.2181 22.3101 33.2093 22.2947C33.1122 22.1056 33.0063 21.9108 32.784 21.8992C32.5722 21.8876 32.4663 22.067 32.3693 22.2445C32.2475 22.4644 32.1398 22.7017 31.9845 22.8907C31.7322 23.1974 31.5981 23.5601 31.471 23.9362C31.3757 24.214 31.2398 24.4744 31.1445 24.7522C31.0475 25.0338 30.8904 25.3116 30.9663 25.6299C30.9892 25.7244 31.0828 25.8286 31.1675 25.8652C31.2257 25.8903 31.3545 25.8286 31.3951 25.763C31.5257 25.5489 31.6228 25.3116 31.7445 25.0917C31.9598 24.7059 32.161 24.3085 32.4081 23.9497C32.6304 23.6257 32.9128 23.3518 33.1563 23.045C33.3187 22.8386 33.3822 22.6033 33.241 22.3641L33.2393 22.3622ZM27.7086 15.7129C27.428 15.9078 27.1845 16.1392 27.0733 16.5019C27.0151 16.689 26.9604 16.88 26.8792 17.0555C26.6445 17.5532 26.4274 18.0451 26.4663 18.6334C26.4768 18.7974 26.3657 18.9691 26.3163 19.1388C26.2686 19.3047 26.2139 19.4706 26.1892 19.6404C26.1821 19.6924 26.2545 19.7831 26.3092 19.8101C26.3445 19.8275 26.4433 19.7773 26.4645 19.731C26.5121 19.6288 26.5298 19.5092 26.5563 19.3954C26.6021 19.2063 26.6092 18.9941 26.6992 18.834C26.8368 18.591 27.0292 18.3846 27.2004 18.1647C27.5869 17.6689 28.0316 17.2272 28.3245 16.6466C28.5327 16.2338 28.4939 16.0563 28.0986 15.7341C27.9716 15.63 27.8463 15.6165 27.7086 15.711V15.7129ZM27.6204 20.7765C27.6345 20.7843 27.6486 20.79 27.6627 20.7978C27.9539 20.4679 28.261 20.1631 28.4163 19.7059C28.591 19.1967 28.9139 18.782 29.3198 18.4714C29.6886 18.1898 29.7981 17.8059 29.5457 17.4008C29.3586 17.0999 29.1645 17.0613 28.9157 17.3699C28.8451 17.4567 28.7939 17.5725 28.7622 17.6844C28.561 18.3827 28.2522 19.0289 27.9539 19.6809C27.7986 20.0223 27.728 20.41 27.6204 20.7765ZM33.1334 26.2221C33.1934 26.1739 33.264 26.1218 33.3328 26.0639C33.691 25.763 33.901 25.3695 33.9099 24.8718C33.9099 24.7754 33.8516 24.6287 33.7828 24.5921C33.7175 24.5574 33.5799 24.6133 33.5128 24.677C33.2446 24.9297 32.9922 25.2055 32.7293 25.4659C32.5634 25.6299 32.3763 25.7688 32.221 25.9405C32.0781 26.0986 32.1187 26.2375 32.3128 26.3128C32.5916 26.4208 32.8563 26.334 33.1334 26.224V26.2221ZM30.2816 19.7561C30.1934 19.5555 29.9886 19.5073 29.8669 19.6809C29.7204 19.8892 29.5863 20.113 29.4786 20.3464C29.3957 20.5277 29.3516 20.736 29.3163 20.9366C29.3039 21.0099 29.3533 21.1604 29.3939 21.1681C29.468 21.1836 29.5828 21.1469 29.6322 21.0852C29.8404 20.8267 30.0469 20.5624 30.2234 20.2769C30.3151 20.1303 30.3734 19.9432 30.2834 19.7522L30.2816 19.7561Z" fill="#FFFFFF"/>
<path id="Vector_4" d="M39.9278 19.9995C39.7037 19.4922 39.4708 18.9906 39.2572 18.4795C39.0419 17.9644 38.8478 17.4359 38.6396 16.917C38.3308 16.1512 38.0043 15.3931 37.706 14.6234C37.4166 13.8788 37.189 13.1091 37.1996 12.2874C37.2066 11.6508 37.3513 11.0451 37.6213 10.4799C37.8066 10.0941 38.0361 9.73917 38.3537 9.46718C38.8584 9.03701 39.4249 8.90391 40.0478 9.06788C40.5861 9.20869 41.0131 9.55012 41.4102 9.95521C41.9414 10.4953 42.4073 11.0991 42.8414 11.7318C43.0761 12.0733 43.2243 12.4668 43.3285 12.8834C43.3938 13.1458 43.4979 13.3946 43.5808 13.6512C43.7167 14.0678 43.8473 14.4864 43.9832 14.9031C44.0714 15.1712 44.1685 15.4355 44.2549 15.7056C44.3802 16.0933 44.4967 16.4829 44.6202 16.8707C44.7244 17.1986 44.8338 17.5265 44.9344 17.8564C45.0808 18.3406 45.2202 18.8286 45.3667 19.3147C45.4973 19.7468 45.575 20.1924 45.5714 20.6457C45.5626 21.5253 45.2308 22.2101 44.5302 22.6731C43.5685 23.3097 42.6385 23.1804 41.7261 22.5554C41.2108 22.2024 40.7996 21.7337 40.4855 21.1646C40.2773 20.7885 40.0778 20.4084 39.8731 20.0304C39.8908 20.0207 39.9102 20.0091 39.9278 19.9995ZM44.0326 17.8892C43.9408 17.6037 43.7502 17.4764 43.4908 17.4879C43.2685 17.4976 43.0479 17.5516 42.8255 17.5709C42.2661 17.621 41.7243 17.8082 41.1543 17.7947C40.939 17.7889 40.7114 17.9278 40.5067 18.0396C40.3531 18.1226 40.2208 18.275 40.2702 18.493C40.3178 18.6936 40.3743 18.898 40.4696 19.0736C40.5649 19.2472 40.7273 19.334 40.932 19.2781C41.082 19.2356 41.2337 19.2067 41.3873 19.1835C41.7049 19.1372 42.0243 19.1064 42.3402 19.0524C42.5608 19.0138 42.7743 18.925 42.9949 18.898C43.2967 18.8614 43.602 18.871 43.9055 18.844C44.1385 18.8228 44.2232 18.7013 44.1791 18.4486C44.1455 18.2576 44.0838 18.0744 44.0343 17.8872L44.0326 17.8892ZM39.4514 16.5775C39.4514 16.5775 39.4619 16.5736 39.4655 16.5717C39.4778 16.6006 39.4902 16.6295 39.5043 16.6585C39.6578 17.0018 39.8784 17.1504 40.1996 17.0153C40.5278 16.8765 40.8455 16.8687 41.1808 16.915C41.4631 16.9555 41.7296 16.8957 41.982 16.7376C42.1232 16.6488 42.2732 16.562 42.4302 16.5273C42.6808 16.4733 42.9402 16.4656 43.1961 16.4328C43.3832 16.4096 43.4732 16.2572 43.3655 16.0971C43.2402 15.9081 43.0779 15.7403 42.9173 15.586C42.8414 15.5127 42.7302 15.4567 42.6314 15.449C42.4496 15.4374 42.2661 15.4644 42.0843 15.4818C41.5726 15.5319 41.0537 15.4278 40.5455 15.6226C40.272 15.7287 39.9596 15.7171 39.6667 15.7615C39.4178 15.8001 39.3137 15.9351 39.349 16.1974C39.3667 16.3267 39.4178 16.4501 39.4549 16.5755L39.4514 16.5775ZM41.9467 21.1029C42.0102 21.3575 42.1655 21.5273 42.4002 21.5273C42.9208 21.5273 43.4449 21.5138 43.9638 21.4559C44.1985 21.4289 44.382 21.2514 44.4244 20.9505C44.4402 20.8309 44.4914 20.7113 44.5479 20.6052C44.6414 20.4297 44.6661 20.2599 44.5549 20.0882C44.4226 19.8818 44.2214 19.9127 44.0361 19.9339C43.3126 20.0111 42.589 20.1017 41.8655 20.1847C41.7226 20.2001 41.5761 20.1847 41.4384 20.2233C41.3573 20.2445 41.2937 20.339 41.2214 20.4007C41.2796 20.4779 41.3343 20.5589 41.3979 20.6322C41.419 20.6573 41.4614 20.665 41.4967 20.6708C41.7296 20.7132 41.8867 20.8502 41.9502 21.1029H41.9467ZM41.4896 11.3942C41.2743 11.1724 41.0767 10.9216 40.8384 10.7345C40.6108 10.559 40.399 10.64 40.219 10.8927C40.152 10.9872 40.0849 11.0817 40.0161 11.1763C39.8961 11.3383 39.7196 11.3595 39.5378 11.2804C39.3243 11.1878 39.1037 11.1049 38.8796 11.0567C38.5619 10.9872 38.3766 11.0933 38.2266 11.402C38.1825 11.4946 38.1613 11.6045 38.1472 11.7106C38.0978 12.081 38.4014 12.3935 38.7296 12.2816C38.9996 12.189 39.2502 12.027 39.5184 11.9189C39.6543 11.863 39.8061 11.8398 39.9508 11.8341C40.392 11.8186 40.8331 11.8341 41.2726 11.809C41.479 11.7974 41.5461 11.6296 41.4914 11.3942H41.4896ZM42.5043 13.1381C42.3649 12.8526 42.1849 12.7426 41.9079 12.8352C41.6873 12.9104 41.4702 13.0107 41.2673 13.1323C41.0273 13.2769 41.0078 13.4756 41.1773 13.7033C41.412 14.0196 41.9132 14.1701 42.2979 14.037C42.5749 13.9405 42.6614 13.8055 42.6085 13.5181C42.5855 13.3888 42.5396 13.2634 42.5061 13.1381H42.5043ZM39.4867 14.5404C39.6984 14.4478 39.792 14.2569 39.8837 14.0543C40.0161 13.7631 39.8343 13.5779 39.6543 13.574C39.3278 13.5644 38.9996 13.5798 38.6731 13.6126C38.4755 13.6319 38.4084 13.8209 38.4914 14.0215C38.5937 14.2665 38.7861 14.3996 38.989 14.5269C39.1584 14.633 39.3243 14.6543 39.4867 14.5404Z" fill="#FFFFFF"/>
<path id="Vector_5" d="M18.606 58.2568C19.4177 57.8633 20.256 57.6569 21.1366 57.7012C21.7878 57.734 22.4143 57.8884 23.0072 58.2182C23.5701 58.5307 24.0978 58.8972 24.6043 59.3042C25.4955 60.0218 26.3849 60.7413 27.2725 61.4647C27.6025 61.7348 27.832 62.0839 27.9184 62.5295C28.0402 63.1545 27.7314 63.9743 27.1631 64.2695C26.5331 64.5936 25.8713 64.7768 25.1955 64.9176C24.5443 65.0546 23.8843 65.0989 23.2207 65.07C22.6137 65.043 22.0137 64.9639 21.4295 64.7864C21.0078 64.6572 20.5807 64.5395 20.1766 64.364C19.5536 64.092 18.943 63.7814 18.3342 63.4709C17.9795 63.2895 17.6248 63.0986 17.2966 62.869C16.6877 62.4408 16.3295 61.7232 16.5201 60.8976C16.7107 60.072 17.1518 59.42 17.7448 58.8914C18.013 58.6522 18.3183 58.4671 18.6077 58.2568H18.606ZM20.3883 63.1815C20.4325 63.1044 20.5313 62.9674 20.5931 62.8131C20.7731 62.3733 20.9778 61.9392 21.1031 61.4801C21.3042 60.7356 21.4489 59.9717 21.6201 59.2174C21.6872 58.9262 21.5672 58.7178 21.2954 58.6812C21.1542 58.6619 21.0095 58.66 20.8684 58.6638C20.5895 58.6715 20.4201 58.8451 20.3583 59.1113C20.286 59.4258 20.196 59.7344 20.1166 60.0469C20.0654 60.2475 20.0178 60.4501 19.9772 60.6545C19.9013 61.0423 19.8289 61.4319 19.7654 61.8216C19.7178 62.1186 19.6666 62.4176 19.656 62.7166C19.6419 63.1179 20.0054 63.3879 20.3883 63.1835V63.1815ZM22.4884 63.9415C22.5643 63.8509 22.6737 63.7718 22.7107 63.6657C22.9243 63.0349 23.1554 62.408 23.3125 61.7599C23.436 61.2506 23.459 60.7143 23.6725 60.2244C23.7854 59.9678 23.7043 59.7749 23.4748 59.6187C23.3637 59.5415 23.249 59.4682 23.1325 59.4007C22.9401 59.2869 22.7919 59.3062 22.6966 59.5145C22.6243 59.6746 22.6119 59.8714 22.5925 60.0546C22.5766 60.2032 22.6225 60.369 22.5784 60.5021C22.4443 60.9227 22.3101 61.347 22.1231 61.7406C21.8654 62.2807 21.6695 62.8382 21.5301 63.4246C21.5001 63.5538 21.5195 63.6792 21.6148 63.7834C21.7401 63.9223 22.3084 64.0689 22.4884 63.9435V63.9415ZM18.5689 59.4316C18.5689 59.4316 18.5566 59.4161 18.5513 59.4084C18.4048 59.5396 18.2583 59.6688 18.1136 59.8019C17.8595 60.0373 17.743 60.317 17.803 60.6989C17.8366 60.9072 17.7924 61.1406 17.743 61.3509C17.6213 61.8737 17.7148 62.1167 18.1771 62.3154C18.3519 62.3906 18.5283 62.3347 18.6077 62.136C18.7683 61.7348 18.9713 61.3413 19.056 60.9207C19.1354 60.5253 19.1107 60.0971 19.0789 59.6881C19.0525 59.3351 18.883 59.2657 18.5866 59.4219C18.5813 59.4238 18.576 59.4277 18.5707 59.4296L18.5689 59.4316ZM25.6013 61.349C25.5855 61.349 25.5678 61.349 25.5519 61.349C25.4919 61.1368 25.139 60.8648 24.9502 60.8571C24.876 60.8532 24.7543 60.9342 24.7313 61.0075C24.5778 61.4705 24.4419 61.9392 24.306 62.4099C24.2796 62.5044 24.2566 62.6163 24.2796 62.707C24.3625 63.0484 24.4331 63.3841 24.3925 63.7448C24.3696 63.9473 24.5619 64.0419 24.7419 63.9647C24.899 63.8972 24.9784 63.7622 25.0296 63.6059C25.2184 63.0253 25.4108 62.4446 25.5802 61.8582C25.626 61.702 25.596 61.5207 25.6013 61.3509V61.349ZM26.7025 63.3937C26.9231 63.278 27.0572 63.06 27.0272 62.8787C27.0114 62.7861 26.9514 62.6703 26.8825 62.6318C26.8366 62.6067 26.7131 62.68 26.6637 62.7456C26.5861 62.8497 26.5261 62.979 26.4925 63.1082C26.4731 63.1835 26.4943 63.303 26.5419 63.3609C26.579 63.4072 26.6814 63.3899 26.7025 63.3937Z" fill="#FFFFFF"/>
<path id="Vector_6" d="M33.6066 31.9317C33.2995 31.1118 33.0348 30.3557 32.9589 29.5436C32.876 28.6524 33.1725 27.9136 33.8272 27.3966C34.3531 26.9818 34.9743 26.9182 35.6078 27.0802C36.4637 27.2963 37.1502 27.8383 37.7713 28.4807C38.1578 28.88 38.5143 29.3159 38.8602 29.7596C39.0614 30.0162 39.2255 30.3113 39.3825 30.6045C39.5272 30.8765 39.6543 31.1639 39.7619 31.4571C39.9367 31.9374 39.9631 32.4409 39.8467 32.9405C39.6631 33.7275 39.2114 34.285 38.539 34.611C38.0078 34.8676 37.4449 34.912 36.8802 34.775C36.1937 34.6091 35.5584 34.3043 35.006 33.8163C34.6143 33.471 34.2737 33.0736 34.0037 32.6087C33.8607 32.3637 33.716 32.1168 33.6101 31.9336L33.6066 31.9317ZM38.1508 30.2901C38.0308 30.1589 37.9143 30.0239 37.789 29.8985C37.6566 29.7673 37.4819 29.7885 37.3707 29.8869C37.0513 30.1705 36.716 30.4521 36.4637 30.7993C36.1178 31.2739 35.8319 31.8024 35.539 32.3194C35.4013 32.5624 35.3713 32.8402 35.5813 33.0678C35.8901 33.3996 36.1637 33.4845 36.4019 33.0543C36.8554 32.2306 37.376 31.4725 38.0255 30.8205C38.2055 30.6392 38.2213 30.5389 38.1525 30.292L38.1508 30.2901ZM34.219 31.1562C34.3125 31.2256 34.4042 31.3472 34.4995 31.351C34.586 31.3549 34.6972 31.2469 34.7607 31.1562C35.0784 30.7029 35.3713 30.2264 35.6996 29.7827C35.899 29.5108 36.1478 29.2812 36.3737 29.0324C36.5254 28.8665 36.5643 28.7102 36.4496 28.5848C36.1584 28.2666 35.7949 28.0814 35.456 28.554C35.156 28.9745 34.8225 29.3642 34.5048 29.7712C34.1113 30.2766 34.0478 30.5621 34.2207 31.1562H34.219ZM37.6584 33.6928C37.8596 33.8529 38.0502 33.7873 38.1013 33.5501C37.8631 33.4363 37.7713 33.4652 37.6584 33.6928Z" fill="#FFFFFF"/>
<path id="Vector_7" d="M44.7296 29.7357C44.3854 28.9969 44.3201 28.3044 44.4137 27.5907C44.4578 27.2589 44.6396 26.9985 44.8301 26.7497C45.1196 26.3696 45.476 26.0996 45.919 25.9858C46.2578 25.899 46.5525 26.034 46.8296 26.2346C47.4208 26.6628 47.7331 27.2782 47.8496 28.0266C47.9255 28.5128 47.9502 29.0008 47.8778 29.4888C47.7261 30.5151 46.8419 31.1285 46.009 30.8719C45.3966 30.6829 44.9219 30.326 44.7313 29.7338L44.7296 29.7357ZM46.429 28.2851C46.7643 28.1096 46.8684 27.7489 46.6707 27.5C46.5772 27.3804 46.4166 27.3013 46.2719 27.257C45.9807 27.1663 45.6772 27.1316 45.4549 27.4344C45.2254 27.7469 45.1884 28.1038 45.5396 28.2639C45.8466 28.4028 46.1696 28.3681 46.4307 28.2871L46.429 28.2851Z" fill="#FFFFFF"/>
<path id="Vector_8" d="M38.4931 54.0611C38.6043 54.3075 38.4808 54.6212 38.2266 54.7694C38.029 54.8849 37.8172 54.8136 37.7166 54.5962C37.5896 54.3248 37.7255 54.013 37.9602 53.8821C38.1631 53.7686 38.3961 53.8513 38.4914 54.0611H38.4931Z" fill="#FFFFFF"/>
<path id="Vector_9" d="M40.6967 44.6503C40.7849 44.8639 40.6878 45.2373 40.5078 45.3605C40.3261 45.4875 40.0261 45.2681 40.0437 44.9929C40.0543 44.8428 40.1214 44.6753 40.2078 44.556C40.342 44.3751 40.6084 44.4424 40.6967 44.6503Z" fill="#FFFFFF"/>
<path id="Vector_10" d="M39.8099 47.6546C39.6688 47.7315 39.4905 47.6507 39.4799 47.4833C39.4658 47.2465 39.4905 47.0194 39.6599 46.8251C39.757 46.7134 39.8435 46.7558 39.9017 46.8097C40.0835 46.979 40.0446 47.5968 39.8099 47.6546Z" fill="#FFFFFF"/>
<path id="Vector_11" d="M36.8019 47.8925C36.4877 48.0661 36.2266 47.9272 36.2266 47.6263C36.2266 47.3852 36.2548 47.1209 36.3519 46.9106C36.5072 46.5673 36.5672 46.2123 36.6077 45.8439C36.6572 45.4079 36.7119 44.9701 36.7842 44.538C36.8054 44.4087 36.8689 44.2602 36.9572 44.1811C37.153 44.0056 37.4372 44.1676 37.5095 44.4569C37.5925 44.7868 37.5519 45.1051 37.4213 45.3983C37.2466 45.7879 37.183 46.2008 37.1372 46.6232C37.1019 46.9415 37.0648 47.2617 36.9925 47.5723C36.9607 47.7131 36.8425 47.8308 36.8019 47.8963V47.8925Z" fill="#FFFFFF"/>
<path id="Vector_12" d="M38.6462 39.7308C38.6568 39.754 38.6691 39.7752 38.6762 39.8003C38.7379 40.0144 38.4838 40.8167 38.3003 40.9189C38.2226 40.9614 38.0832 40.9768 38.025 40.9266C37.9403 40.8553 37.852 40.7126 37.8556 40.6026C37.8679 40.2458 37.9597 39.9063 38.2015 39.6421C38.3568 39.4743 38.5544 39.5167 38.6462 39.7308Z" fill="#FFFFFF"/>
<path id="Vector_13" d="M37.7973 41.9079C37.8626 42.0545 37.815 42.2608 37.7197 42.2936C37.6191 42.3283 37.5132 42.3302 37.4532 42.1933C37.3861 42.0429 37.4144 41.906 37.5414 41.8366C37.665 41.7691 37.7497 41.8308 37.7973 41.906V41.9079Z" fill="#FFFFFF"/>
<path id="Vector_14" d="M34.5574 43.3755C34.6562 43.6006 34.5786 43.9875 34.418 44.0741C34.2803 44.1472 34.0262 44.0318 33.9503 43.8585C33.8603 43.6526 33.9945 43.31 34.2027 43.2157C34.3439 43.1522 34.4886 43.2157 34.5574 43.3755Z" fill="#FFFFFF"/>
<path id="Vector_15" d="M41.7337 54.2335C41.8449 54.4856 41.7708 54.7204 41.5378 54.8455C41.3437 54.9494 41.2978 54.9321 41.2025 54.7165C41.0896 54.4625 41.1619 54.1007 41.3419 54.0083C41.4955 53.9294 41.6331 54.0083 41.7319 54.2335H41.7337Z" fill="#FFFFFF"/>
</g>
</g>
</g>
</svg>
