<svg width="80" height="80" viewBox="0 0 80 80" fill="none" xmlns="http://www.w3.org/2000/svg">
<g id="EGG-HUMAN">
<g id="Layer_1-2">
<path id="LOGO_-_FULL_COLOUR" d="M65.7288 37.7661C65.6144 36.8088 65.4625 35.8605 65.2483 34.9282C65.0278 33.9596 64.7573 33.0045 64.4266 32.0722C64.0147 30.9103 63.5487 29.7779 62.8934 28.7523C62.5939 28.2816 62.3172 27.77 61.8179 27.504C61.5912 27.3834 61.379 27.2015 61.0982 27.2538C60.8673 27.297 60.7986 27.3993 60.834 27.6518C60.8693 27.9019 60.9525 28.1384 61.0274 28.3749C61.3083 29.2662 61.6203 30.144 61.8949 31.0376C62.4482 32.8408 62.779 34.6918 62.8893 36.5905C62.9226 37.1726 62.9392 37.7547 62.8997 38.3391C62.8726 38.7279 62.8747 39.1213 62.8289 39.5056C62.7249 40.3742 62.598 41.2383 62.3942 42.0888C62.0239 43.6373 61.5496 45.1449 60.9505 46.6025C60.5843 47.4961 60.1579 48.3579 59.6773 49.1902C58.8328 50.6432 57.8467 51.9598 56.6568 53.0922C55.7124 53.9904 54.6951 54.7703 53.6113 55.4571C52.3611 56.2484 51.0443 56.8623 49.6713 57.3421C49.0826 57.5468 48.4814 57.6741 47.8615 57.6855C47.0772 57.6991 46.3179 57.5695 45.569 57.3057C45.0802 57.1329 44.7286 56.7918 44.4623 56.3416C44.2564 55.9914 44.1024 55.6094 43.9964 55.2024C43.805 54.4543 43.7405 53.7175 44.0296 52.9808C44.2897 52.3213 44.714 51.8234 45.2528 51.4277C46.4323 50.5636 47.6368 50.4795 48.8808 51.264C49.4446 51.6187 49.9355 52.078 50.4452 52.5123C50.803 52.8171 51.1753 53.0945 51.633 53.19C51.8223 53.2286 52.0262 53.2673 52.2051 53.2036C52.775 52.999 53.1287 52.5715 53.2223 51.9075C53.2847 51.4595 53.137 51.0616 52.8728 50.7614C52.6003 50.4522 52.2259 50.2794 51.841 50.1498C51.2606 49.9542 50.6594 49.836 50.0957 49.5836C49.7441 49.4267 49.4154 49.2311 49.1762 48.8968C49.0015 48.6558 48.9515 48.3466 49.0722 48.0555C49.1741 47.8076 49.3572 47.6644 49.5714 47.5507C50.2184 47.2119 50.9278 47.1982 51.6205 47.1005C52.1905 47.0209 52.7688 46.9799 53.2868 46.6821C53.6966 46.4478 53.9733 46.0863 54.0523 45.561C54.1168 45.1222 53.9483 44.7629 53.7382 44.4332C53.6446 44.2831 53.5031 44.1307 53.3159 44.083C52.7771 43.9466 52.2675 44.0443 51.7724 44.2967C51.2024 44.5878 50.6761 44.9653 50.1144 45.2722C49.7483 45.4723 49.3613 45.6292 48.9619 45.5929C48.4585 45.5474 48.0945 45.3063 47.9301 44.6878C47.8011 44.2012 47.849 43.7146 47.926 43.228C48.0279 42.5822 48.186 41.9432 48.1465 41.277C48.1298 41.0178 48.0965 40.7608 47.9821 40.5266C47.8011 40.1582 47.5515 39.899 47.1646 39.7785C46.9607 39.7148 46.7569 39.7194 46.5821 39.7671C46.0142 39.924 45.5878 40.6721 45.6356 41.2929C45.6938 42.0501 45.8311 42.796 45.8748 43.5532C45.906 44.0875 45.8831 44.6174 45.5836 45.0858C45.2383 45.6292 44.66 45.6997 44.1898 45.3518C43.8632 45.1085 43.649 44.7674 43.443 44.415C43.0686 43.776 42.8023 43.062 42.3488 42.4753C42.0347 42.0683 41.6644 41.8295 41.1568 41.85C40.5078 41.875 40.1104 42.4753 40.0459 43.1007C39.9856 43.6782 40.229 44.1489 40.5577 44.5741C40.9613 45.0949 41.4668 45.5019 41.8932 45.9953C42.172 46.3182 42.4008 46.673 42.457 47.1277C42.509 47.5461 42.353 47.8895 42.0971 48.176C41.8162 48.4921 41.4439 48.6604 41.0778 48.8195C40.5535 49.0469 40.0335 49.2766 39.5425 49.5881C39.1098 49.8632 38.777 50.2544 38.5066 50.6773C37.949 51.5505 37.7597 52.5669 37.7452 53.6243C37.741 53.8699 37.7369 54.1177 37.7181 54.3633C37.7077 54.4997 37.6765 54.6748 37.5642 54.7112C37.4893 54.7362 37.4373 54.5543 37.3895 54.4565C36.8007 53.2673 36.3784 51.9984 35.927 50.7432C35.3196 49.0515 34.5437 47.462 33.5327 46.0135C32.998 45.2472 32.3615 44.581 31.7207 43.9238C31.0904 43.2757 30.4143 42.6891 29.7383 42.0979C28.9498 41.4089 28.1739 40.7062 27.5956 39.7876C27.3106 39.3328 27.0734 38.853 26.9736 38.305C26.9258 38.0458 27.0298 37.9071 27.2648 37.9048C27.4084 37.9048 27.5519 37.9048 27.6954 37.948C27.9368 38.0185 28.1822 38.0776 28.4256 38.1367C28.8958 38.2504 29.3721 38.3141 29.8548 38.3482C30.225 38.3732 30.5912 38.3732 30.9615 38.3482C31.5481 38.3118 32.1056 38.4028 32.5716 38.8666C32.9668 39.26 33.3933 39.6102 33.8301 39.9468C34.1588 40.1992 34.4376 40.5175 34.6518 40.8972C34.9139 41.3611 35.0263 41.8796 35.1116 42.4048C35.2114 43.0233 35.2572 43.6509 35.4819 44.2422C35.7939 45.0676 36.5199 45.7361 37.3624 45.3586C37.7701 45.1767 38.0531 44.8334 38.1404 44.3718C38.2236 43.9443 38.1467 43.51 37.9782 43.0984C37.7868 42.6254 37.5247 42.2002 37.3 41.75C37.0483 41.2429 36.8215 40.7381 36.8091 40.1332C36.7945 39.4306 37.2251 38.8485 37.8013 38.6643C38.3838 38.4778 38.9496 38.5665 39.5155 38.7325C40.0688 38.8939 40.5847 39.1691 41.1318 39.3442C41.731 39.5352 42.3217 39.5784 42.8834 39.1918C43.2953 38.9076 43.5449 38.2663 43.4243 37.782C43.3452 37.4636 43.1934 37.1885 42.9666 36.9748C42.7087 36.7269 42.3821 36.6223 42.0555 36.5609C41.6956 36.4927 41.3274 36.5404 40.9675 36.5836C40.4537 36.6428 39.944 36.7178 39.426 36.6314C39.0204 36.5632 38.6501 36.4086 38.363 36.0879C38.2257 35.9333 38.1342 35.7173 38.1279 35.4967C38.1155 35.0942 38.2985 34.7827 38.5669 34.5212C38.856 34.2393 39.1951 34.0482 39.5404 33.8663C40.021 33.6139 40.5202 33.4025 40.9488 33.0432C41.2837 32.7612 41.5583 32.4133 41.6061 31.9563C41.6561 31.4765 41.5271 31.0308 41.1672 30.6851C40.7844 30.3168 40.2248 30.2895 39.8046 30.5146C39.2783 30.7966 38.8852 31.2422 38.4899 31.6925C38.051 32.1927 37.6162 32.6975 36.9963 32.9454C36.5449 33.125 36.0165 33.0113 35.771 32.5156C35.4923 31.9494 35.4694 31.3355 35.5089 30.717C35.5463 30.128 35.6254 29.5414 35.6608 28.9502C35.6982 28.3248 35.6067 27.7336 35.174 27.2629C34.9181 26.9855 34.6185 26.8491 34.2587 26.8854C33.4994 26.9605 33.0396 27.6768 33.0313 28.4726C33.0251 29.0206 33.1499 29.5436 33.2601 30.0689C33.3829 30.6624 33.4973 31.2559 33.4286 31.8744C33.3766 32.3383 33.2497 32.7658 33.0001 33.1478C32.4114 34.0505 31.5606 34.4075 30.5953 34.4212C29.8735 34.4325 29.1891 34.2324 28.6087 33.6958C28.2654 33.3797 27.9763 33.0136 27.7932 32.5816C27.5103 31.9108 27.3688 31.1968 27.3564 30.4418C27.3356 29.3299 27.5186 28.2771 27.9513 27.2766C28.4589 26.101 29.2515 25.2096 30.2791 24.5615C31.4066 23.8498 32.6277 23.4632 33.9154 23.3586C34.683 23.2972 35.4548 23.3541 36.2183 23.5019C37.5746 23.7656 38.8477 24.2955 40.0834 24.9367C41.4418 25.6416 42.7378 26.4716 44.0567 27.2561C45.4754 28.0997 46.9129 28.9047 48.4564 29.4527C49.6942 29.8915 50.9548 30.1735 52.2654 30.144C53.1266 30.1258 53.9525 29.9325 54.7555 29.6028C55.4919 29.3003 56.1305 28.841 56.6006 28.1338C56.8628 27.7382 56.9668 27.2788 56.9148 26.8172C56.8378 26.1396 56.507 25.5666 56.1388 25.0277C55.7041 24.3955 55.1798 23.8521 54.6639 23.3018C54.1563 22.7629 53.6175 22.258 53.1204 21.7078C52.669 21.2075 52.2383 20.6845 51.8597 20.1138C51.5851 19.6999 51.3293 19.277 51.0942 18.8358C50.7218 18.1332 50.3557 17.426 49.9875 16.7188C49.7462 16.2549 49.4508 15.8343 49.1533 15.4136C48.8912 15.043 48.6187 14.6837 48.3087 14.3653C47.7637 13.8059 47.2 13.2807 46.5176 12.9078C46.1577 12.7099 45.802 12.4916 45.4338 12.3097C44.3687 11.789 43.2433 11.4797 42.0929 11.2796C40.8656 11.0659 39.6361 11.0341 38.4025 11.2296C37.6266 11.3524 36.8756 11.5548 36.1371 11.8345C35.1449 12.2119 34.2379 12.7622 33.3642 13.3853C32.4447 14.0402 31.598 14.8087 30.7035 15.5046C29.6384 16.3368 28.5151 17.0576 27.3168 17.6352C26.4515 18.0513 25.5715 18.4311 24.7082 18.8517C23.356 19.5112 22.0767 20.3093 20.9159 21.3189C20.3043 21.8487 19.7405 22.4354 19.2163 23.0676C18.8003 23.5701 18.405 24.0931 18.0472 24.6456C17.5417 25.4301 17.0695 26.2374 16.6472 27.0787C16.1833 28.0042 15.7714 28.957 15.4406 29.9484C15.114 30.9262 14.827 31.9199 14.6023 32.9318C14.4192 33.7572 14.2632 34.5894 14.1488 35.4285C14.0781 35.9401 14.0115 36.4518 13.9886 36.9702C13.9616 37.6046 13.8971 38.2391 13.8804 38.8735C13.868 39.3942 13.8784 39.9172 13.8971 40.4379C13.9241 41.1701 13.9616 41.9023 14.024 42.6322C14.1155 43.6805 14.2944 44.7129 14.4983 45.7407C14.7354 46.939 15.0662 48.1078 15.4344 49.2675C15.8817 50.6728 16.462 52.0075 17.1048 53.315C17.8641 54.859 18.7254 56.328 19.7655 57.6673C20.531 58.6542 21.3527 59.5796 22.2098 60.4733C23.0169 61.3146 23.8969 62.0536 24.8164 62.7358C26.233 63.7864 27.7204 64.7005 29.291 65.4509C30.5745 66.0648 31.8851 66.5924 33.2456 66.963C34.0818 67.1904 34.9202 67.4087 35.7752 67.5383C36.2328 67.6088 36.6926 67.6679 37.1502 67.7293C37.8409 67.8225 38.5315 67.893 39.2263 67.8976C39.7797 67.9021 40.333 67.8976 40.9155 67.8976C41.1298 67.8885 41.3752 67.8817 41.6186 67.8657C42.1491 67.8294 42.6796 67.7953 43.2079 67.7293C44.1524 67.6111 45.0843 67.4383 46.008 67.1972C47.2769 66.8675 48.5064 66.4195 49.7191 65.8988C50.9319 65.3781 52.0886 64.7346 53.2181 64.0274C54.2666 63.3702 55.2589 62.6267 56.2033 61.8081C57.1894 60.9508 58.0693 59.9662 58.9181 58.9498C60.239 57.3671 61.4144 55.6708 62.4108 53.8221C63.1951 52.3691 63.8399 50.8479 64.3746 49.2698C64.9633 47.5393 65.3939 45.7611 65.6414 43.9306C65.7538 43.1052 65.8412 42.2775 65.862 41.4475C65.8932 40.2196 65.8661 38.9917 65.7205 37.7706L65.7288 37.7661ZM45.101 16.0185C46.0745 16.0321 46.9358 16.9712 46.9337 18.115C46.9462 19.2338 46.1619 20.1592 45.0885 20.1479C43.9818 20.1342 43.1788 19.2292 43.1622 18.0672C43.1455 16.7688 44.0567 16.0048 45.101 16.0185Z" fill="#FFFFFF"/>
</g>
</g>
</svg>
