<svg width="80" height="80" viewBox="0 0 80 80" fill="none" xmlns="http://www.w3.org/2000/svg">
<g id="EGG-ROBOT">
<mask id="mask0_3062_209" style="mask-type:alpha" maskUnits="userSpaceOnUse" x="0" y="0" width="80" height="80">
<path id="Rectangle 3055" d="M0 0H80V80H0V0Z" fill="#D9D9D9"/>
</mask>
<g mask="url(#mask0_3062_209)">
<path id="Vector" d="M60.5246 41.0437C60.7477 40.4573 60.8729 39.8121 60.8729 39.1366V30.8486C60.8729 28.7561 60.1394 26.7866 58.8055 25.3037L58.6562 25.1379L62.1458 21.2631C63.003 20.3113 63.4733 19.0476 63.4733 17.7019C63.4733 16.3562 63.0014 15.0925 62.1458 14.1425L60.6418 12.4725C58.8745 10.5101 55.9964 10.5083 54.2291 12.4725L50.7394 16.3473L50.5083 16.0906C49.1744 14.6095 47.4006 13.795 45.5161 13.795H34.7004C32.3536 13.795 30.1401 14.7557 28.4241 16.5095L25.0693 12.7844C23.302 10.822 20.4255 10.822 18.6566 12.7844L17.1526 14.4544C15.3852 16.4168 15.3852 19.6126 17.1526 21.575L20.501 25.293L20.4929 25.3019C19.159 26.783 18.4255 28.7525 18.4255 30.845V39.1312C18.4255 39.7978 18.5459 40.4448 18.7722 41.0419C16.6469 41.3538 15 43.3786 15 45.8222V48.6062C15 51.1176 16.7368 53.1869 18.9488 53.4097L18.3003 54.1298C17.48 55.0406 17.0273 56.2526 17.0273 57.5412C17.0273 58.8298 17.4784 60.0401 18.3003 60.9526L24.2747 67.5866C25.9682 69.467 28.7243 69.467 30.4178 67.5866L32.1915 65.6171C33.0118 64.7063 33.4644 63.4943 33.4644 62.2056C33.4644 61.4428 33.3055 60.7085 33.0069 60.0454L38.9654 53.4275H40.333L46.2931 60.0454C45.9945 60.7067 45.8356 61.4428 45.8356 62.2056C45.8356 63.4943 46.2882 64.7063 47.1085 65.6171L48.8822 67.5866C49.7025 68.4974 50.794 69 51.9545 69C53.1151 69 54.2066 68.4974 55.0269 67.5866L61.0013 60.9526C62.6948 59.0723 62.6948 56.0119 61.0013 54.1316L60.3529 53.4115C62.5632 53.1887 64.3 51.1194 64.3 48.608V45.824C64.3 43.3804 62.6531 41.3556 60.5278 41.0437H60.5246ZM46.9062 34.4169C46.7826 35.5077 45.98 36.3989 44.9993 36.5361C44.2978 36.6359 43.614 36.3775 43.1228 35.8321C42.6316 35.2867 42.4005 34.5274 42.4904 33.7503C42.614 32.6595 43.4166 31.7683 44.3989 31.631C44.4969 31.6168 44.5948 31.6096 44.6927 31.6096C45.2882 31.6096 45.8532 31.8645 46.2754 32.3333C46.7666 32.8787 46.9977 33.638 46.9094 34.4169H46.9062ZM43.8468 26.7741C42.1645 27.0094 40.6845 27.938 39.6428 29.2944C39.532 29.15 39.4164 29.0092 39.2945 28.8719C38.1419 27.5922 36.6395 26.849 35.0439 26.7331L35.5014 26.2251L43.8082 26.2287L44.2593 26.7313C44.1228 26.742 43.9848 26.7545 43.8484 26.7741H43.8468ZM36.808 34.4169C36.6844 35.5077 35.8818 36.3989 34.9011 36.5361C34.1996 36.6359 33.5158 36.3775 33.0246 35.8321C32.5334 35.2867 32.3039 34.5274 32.3922 33.7503C32.5158 32.6595 33.3184 31.7683 34.2991 31.631C34.397 31.6168 34.495 31.6096 34.5929 31.6096C35.1884 31.6096 35.7534 31.8645 36.1756 32.3333C36.6668 32.8787 36.8979 33.638 36.8096 34.4151L36.808 34.4169ZM29.62 39.133V38.953C29.7115 39.0688 29.8078 39.1829 29.9057 39.2934C30.5976 40.0616 31.4162 40.6373 32.3039 40.9991H29.2861C29.4996 40.4234 29.62 39.7925 29.62 39.133ZM39.6556 38.871C39.7664 39.0154 39.882 39.1562 40.0039 39.2934C40.6958 40.0616 41.5144 40.6373 42.4021 40.9991H36.9027C37.9814 40.5607 38.9253 39.821 39.6556 38.871ZM49.6768 38.9672V39.133C49.6768 39.7836 49.7907 40.4145 50.0058 40.9991H47.0009C48.0427 40.5749 48.9577 39.8709 49.6768 38.9672ZM20.2698 18.1136C20.2217 18.0602 20.2217 17.971 20.2698 17.9176L21.7739 16.2475C21.822 16.1922 21.9023 16.1922 21.9504 16.2475L26.4417 21.2363C27.5301 22.4448 29.3022 22.4448 30.3921 21.2363L31.2589 20.2738C32.1787 19.2525 33.4002 18.6911 34.7004 18.6911H45.5161C46.224 18.6911 46.8902 18.9977 47.391 19.5538L48.765 21.0795C49.855 22.2879 51.6255 22.2879 52.7138 21.0795L57.3463 15.9356C57.3945 15.8821 57.4748 15.8821 57.5229 15.9356L59.027 17.6056C59.0751 17.6591 59.0751 17.7482 59.027 17.8017L54.3944 22.9456C53.3061 24.154 53.3061 26.1218 54.3944 27.332L55.685 28.765C56.1874 29.3229 56.4635 30.0626 56.4635 30.8486L56.4539 39.1455L54.0862 39.1348V32.7521C54.0862 31.4421 53.6271 30.2105 52.7924 29.2837L46.9239 22.7674C46.0892 21.8405 44.98 21.3308 43.8002 21.329H35.4998C34.32 21.329 33.2108 21.8388 32.3761 22.7656L26.5076 29.2819C25.6729 30.2087 25.2138 31.4403 25.2122 32.7504L25.2025 39.1419L22.8349 39.1312V30.845C22.8349 30.059 23.111 29.3193 23.6118 28.7632L24.7627 27.4853C25.2908 26.8989 25.5814 26.12 25.5814 25.2912C25.5814 24.4624 25.2908 23.6835 24.7627 23.0989L20.2714 18.1118L20.2698 18.1136ZM59.8874 48.5367H51.8036C50.7474 48.5367 49.8036 49.2372 49.3991 50.3209C48.9946 51.4045 49.2161 52.6415 49.9625 53.4703L52.2114 55.9674C52.7025 56.5128 53.3559 56.814 54.0509 56.814C54.7459 56.814 55.3993 56.5128 55.8904 55.9674L56.1505 55.6786L57.8311 57.5448L51.9481 64.0771L50.2675 62.211L50.5275 61.9222C51.0203 61.3768 51.2916 60.6496 51.2916 59.8779C51.2916 59.1061 51.0203 58.3807 50.5291 57.8353L42.9206 49.3869C42.4294 48.8397 41.7745 48.5385 41.0778 48.5385H38.2142C37.5175 48.5385 36.8642 48.8397 36.3746 49.3851L28.7644 57.8353C28.2733 58.3807 28.002 59.1079 28.002 59.8797C28.002 60.6514 28.2733 61.3786 28.7644 61.9222L29.0245 62.2128L27.3439 64.0789L21.4609 57.5466L23.1415 55.6804L23.4015 55.9692C23.8927 56.5146 24.546 56.8158 25.2411 56.8158C25.9361 56.8158 26.5894 56.5146 27.0822 55.9692L29.3311 53.4721C30.0775 52.6433 30.299 51.4063 29.8961 50.3226C29.4916 49.239 28.5477 48.5385 27.4915 48.5385H19.4094V45.8988H59.8874V48.5385V48.5367Z" fill="#FFFFFF"/>
</g>
</g>
</svg>
