<svg  xmlns="http://www.w3.org/2000/svg" fill="F2D047" viewBox="0 0 20 12"><path fill="#000000" d="m14.17 3.055 1.172 1.375c.134.155.253.282.301.354.35.348.547.818.547 1.308-.033.578-.41.971-.76 1.392l-.82.962-.427.498a.116.116 0 0 0 .028.177.12.12 0 0 0 .066.017h4.273c.653 0 1.475.548 1.427 1.38-.001.378-.154.74-.426 1.008-.272.267-.64.418-1.024.42h-6.692c-.44 0-1.624.047-1.955-.962a1.2 1.2 0 0 1-.028-.653c.096-.319.249-.62.45-.887.337-.498.701-.996 1.06-1.48.463-.632.939-1.245 1.407-1.89a.12.12 0 0 0 0-.147l-1.7-1.993a.12.12 0 0 0-.148-.034.1.1 0 0 0-.042.034c-.455.606-2.449 3.286-2.874 3.829s-1.472.573-2.052 0L3.294 5.135a.122.122 0 0 0-.207.085v5.054a1.7 1.7 0 0 1-.309 1.005c-.207.296-.502.52-.845.641a1.48 1.48 0 0 1-1.32-.184 1.44 1.44 0 0 1-.45-.51A1.4 1.4 0 0 1 0 10.57V1.483C.015 1.156.135.841.342.585.549.328.833.142 1.154.054a1.64 1.64 0 0 1 1.563.418l4.089 4.03a.12.12 0 0 0 .144.02.1.1 0 0 0 .038-.035L9.892.53a1.45 1.45 0 0 1 1.104-.52h7.554a1.47 1.47 0 0 1 1.091.489 1.42 1.42 0 0 1 .346 1.13c-.053.35-.233.669-.507.898a1.5 1.5 0 0 1-.983.347h-4.23a.12.12 0 0 0-.103.063.12.12 0 0 0 .007.12"></path></svg>