<svg data-v-b0f40a6a="" xmlns="http://www.w3.org/2000/svg" width="55" height="10" fill="none"><g fill="#000" clip-path="url(#a)"><path d="M.423 2.983a4.8 4.8 0 0 1 1.112-1.572A5.1 5.1 0 0 1 3.163.416 5.3 5.3 0 0 1 5.096.062c.672 0 1.318.112 1.94.348a4.9 4.9 0 0 1 1.634.988 5 5 0 0 1 1.137 1.566c.28.61.417 1.293.417 2.058 0 .758-.137 1.448-.41 2.057a5 5 0 0 1-1.132 1.566 4.8 4.8 0 0 1-1.634 1.007A5.5 5.5 0 0 1 5.115 10a5.5 5.5 0 0 1-1.933-.342 4.7 4.7 0 0 1-1.634-1 4.7 4.7 0 0 1-1.12-1.56C.138 6.487 0 5.797 0 5.04c0-.764.137-1.448.423-2.057m1.23 3.636a3.7 3.7 0 0 0 .802 1.23c.336.342.74.616 1.2.802.453.193.944.292 1.46.292s.994-.1 1.46-.298a3.6 3.6 0 0 0 1.194-.808c.335-.342.603-.758.795-1.237a4 4 0 0 0 .299-1.578c0-.566-.112-1.088-.305-1.567a4.1 4.1 0 0 0-.802-1.236 3.5 3.5 0 0 0-1.2-.808 3.5 3.5 0 0 0-1.46-.286c-.516 0-1.006.093-1.46.292a3.6 3.6 0 0 0-1.2.814c-.335.354-.609.765-.795 1.243a4.1 4.1 0 0 0-.292 1.566c0 .572.1 1.094.298 1.579m5.774.118a2.3 2.3 0 0 1-.547.671 2.2 2.2 0 0 1-.727.417 2.912 2.912 0 0 1-2.02-.08 2.46 2.46 0 0 1-.895-.629 2.7 2.7 0 0 1-.584-.932 3.2 3.2 0 0 1-.212-1.162c0-.423.069-.815.187-1.187.124-.36.31-.678.56-.945.248-.261.54-.466.894-.628.342-.149.746-.23 1.193-.23.317 0 .61.05.877.137.273.087.51.217.72.391.218.168.392.386.535.634.15.261.23.56.286.902H6.656a1.22 1.22 0 0 0-.484-.728c-.25-.18-.541-.267-.895-.267-.491 0-.89.174-1.163.528-.254.355-.391.808-.391 1.368 0 .255.043.497.105.74.081.236.193.434.33.608s.292.317.49.41c.2.106.417.156.66.156.379 0 .677-.1.913-.28.249-.192.398-.441.435-.764h1.082c-.056.33-.156.628-.305.882M10.597 2.033V.28L18.384.26v1.76l-2.853.005.02 7.738-2.09.006-.012-7.744zM22.418.255l2.225 6.525h.03L26.763.248l2.946-.006.019 9.497h-1.952l-.012-6.731-.032.006-2.312 6.731-1.61.006-2.349-6.669h-.03l.012 6.67-1.952.005-.018-9.496zM35.712 0l-3.686 9.95h-1.51L34.196 0zM38.57.224l.007 3.934 3.71-3.94L44.904.21l-3.717 3.754 4.083 5.743-2.622.006-2.866-4.263-1.199 1.212.006 3.057-2.082.007L36.49.23zM48.173.205l.012 3.934L51.89.2l2.617-.006-3.71 3.754 4.083 5.742-2.623.007-2.859-4.264-1.212 1.212.006 3.058-2.082.006-.018-9.496z"></path></g><defs><clipPath id="a"><path fill="#fff" d="M0 0h54.879v10H0z"></path></clipPath></defs></svg>