<svg width="80" height="80" viewBox="0 0 80 80" fill="none" xmlns="http://www.w3.org/2000/svg">
<g id="EGG-DMN">
<g id="Group 7344">
<g id="Layer_2-2">
<path id="Vector" d="M17.4066 51.3864C17.3816 50.884 17.4116 50.4007 17.4566 49.9174C17.5365 49.1009 17.6414 48.2899 17.7813 47.4844C17.8438 47.1213 17.9137 46.7636 18.0086 46.4113C18.0686 46.1901 17.9886 46.0536 17.7813 46.0017C17.2792 45.8789 16.8071 45.6686 16.3399 45.4338C15.2008 44.8576 14.1117 44.1777 13.0825 43.3913C12.5354 42.9735 12.0059 42.5367 11.5063 42.0479C10.7169 41.2751 10.0399 40.4014 9.42789 39.4593C8.99324 38.7876 8.61853 38.0749 8.29629 37.3349C7.95905 36.5595 7.66679 35.7621 7.45695 34.9266C7.29208 34.2712 7.17467 33.6077 7.07975 32.9415C7.02229 32.5373 6.97733 32.125 7.0123 31.7127C7.06226 31.112 7.09973 30.514 7.23962 29.9242C7.36452 29.4026 7.43197 28.8647 7.54438 28.3377C7.71175 27.5595 7.92658 26.795 8.1539 26.0331C8.4137 25.1648 8.71596 24.3156 9.07817 23.491C9.47036 22.5981 9.90002 21.727 10.3597 20.8751C10.8768 19.9194 11.4363 18.9937 11.9984 18.0708C12.453 17.3226 12.9376 16.599 13.4697 15.9164C13.9893 15.2529 14.5364 14.6166 15.2033 14.1197C15.3232 14.0296 15.4381 13.9313 15.583 13.8903C15.7704 13.8357 15.9028 13.964 15.8678 14.1716C15.8328 14.3736 15.7979 14.5757 15.7429 14.7723C15.5306 15.5368 15.3033 16.2987 15.0934 17.0632C14.8261 18.0244 14.5214 18.9746 14.304 19.9522C14.1342 20.7085 14.0068 21.4731 13.8919 22.2404C13.7994 22.8575 13.742 23.4773 13.6695 24.0972C13.6496 24.2637 13.6521 24.433 13.6446 24.6023C13.6196 25.1293 13.5796 25.659 13.6146 26.186C13.6571 26.7977 13.697 27.4121 13.8044 28.0182C13.9368 28.7637 14.1567 29.4736 14.4564 30.1535C14.7937 30.9126 15.2283 31.6007 15.7579 32.2206C16.2925 32.8459 16.897 33.3756 17.529 33.8726C18.0336 34.2685 18.5657 34.618 19.1227 34.9156C19.6823 35.216 20.2668 35.459 20.8564 35.6802C21.7007 35.9997 22.575 36.1963 23.4368 36.4475C23.7216 36.5294 23.9714 36.6932 24.2162 36.8598C24.5784 37.1056 24.6434 37.051 24.9456 36.8025C25.5077 36.3383 26.0822 35.8877 26.6493 35.4317C27.666 34.6153 28.6852 33.807 29.7019 32.9906C30.249 32.551 30.7985 32.1114 31.3306 31.6444C31.7852 31.243 32.2324 30.8307 32.672 30.4075C33.1392 29.9569 33.6313 29.5392 34.1084 29.105C34.3857 28.8511 34.648 28.5835 34.8778 28.2777C35.0352 28.0701 35.2275 27.8954 35.3899 27.6906C35.6372 27.382 35.7971 27.0134 35.9869 26.6639C36.3916 25.9157 36.6614 25.1047 36.9237 24.2883C37.3134 23.0705 37.6631 21.8417 37.9354 20.5857C38.1202 19.7337 38.2626 18.8681 38.435 18.0135C38.5799 17.3008 38.7223 16.5881 38.8397 15.87C38.9371 15.2747 39.0395 14.6822 39.1644 14.0951C39.2069 13.8958 39.2568 13.6964 39.3917 13.5381C39.4667 13.448 39.5341 13.4452 39.6116 13.5326C39.7789 13.721 39.8239 13.9668 39.8639 14.2098C39.9988 15.0508 40.1212 15.8945 40.2685 16.7356C40.3834 17.3854 40.5233 18.0298 40.6607 18.677C40.8381 19.5044 41.0329 20.329 41.2678 21.14C41.5375 22.0629 41.7923 22.994 42.1346 23.8896C42.4368 24.676 42.794 25.4351 43.1987 26.1669C43.5934 26.8796 44.0481 27.5513 44.5227 28.2012C44.775 28.548 45.0747 28.8538 45.3345 29.1951C45.6193 29.5665 45.9615 29.8723 46.2738 30.2109C46.651 30.6205 47.0682 30.9809 47.4778 31.3523C48.1473 31.9612 48.8418 32.5291 49.5462 33.0862C50.1732 33.5804 50.8027 34.0719 51.4322 34.5607C52.2866 35.2215 53.1359 35.8905 53.9527 36.6059C54.0776 36.7151 54.2025 36.8216 54.3324 36.9253C54.5223 37.0755 54.6397 37.0864 54.8495 36.8707C55.1218 36.5895 55.459 36.4966 55.7963 36.3902C56.6181 36.1362 57.455 35.9396 58.2568 35.6147C58.674 35.4454 59.0837 35.257 59.4884 35.0549C60.2852 34.6535 61.0371 34.1675 61.7591 33.6268C62.2862 33.2336 62.7833 32.7967 63.2804 32.3598C63.4727 32.1905 63.6975 32.0786 63.9224 31.9694C64.3345 31.7673 64.6343 31.4123 64.9091 31.0328C65.3937 30.3638 65.5861 29.5747 65.7085 28.7473C65.8409 27.8599 65.8508 26.9697 65.8433 26.0768C65.8433 25.8311 65.8059 25.5826 65.7884 25.3368C65.7684 25.0474 65.8533 24.788 66.0107 24.5668C66.1831 24.3238 66.2755 24.0726 66.2081 23.7613C66.1581 23.5319 66.2805 23.379 66.4404 23.2589C66.6552 23.0978 66.905 23.0295 67.1523 22.9585C67.5145 22.852 67.8667 22.7046 68.239 22.6363C68.6561 22.5599 69.0758 22.5107 69.453 22.8056C69.6204 22.9367 69.6878 23.1524 69.8277 23.3053C70.0725 23.5729 70.1924 23.9251 70.3348 24.261C70.6021 24.8836 70.7944 25.5389 70.9768 26.1942C71.1816 26.9315 71.349 27.6824 71.5364 28.4278C71.6637 28.9303 71.7712 29.4354 71.8511 29.9488C71.9136 30.3665 72.0135 30.787 71.9985 31.2103C71.9735 31.9421 71.976 32.6739 71.8536 33.4029C71.7062 34.2767 71.4964 35.1259 71.2191 35.956C71.0792 36.371 70.9093 36.7752 70.747 37.182C70.4572 37.9002 70.075 38.5637 69.6928 39.2245C69.418 39.6996 69.1058 40.1529 68.776 40.587C68.4588 41.0021 68.129 41.4035 67.7693 41.7748C67.2872 42.2718 66.7776 42.7333 66.238 43.1565C65.5686 43.6808 64.8791 44.1668 64.1622 44.6064C63.5951 44.9532 63.0081 45.259 62.4186 45.5539C62.0389 45.7423 61.6492 45.8898 61.242 45.9881C60.9947 46.0482 60.9497 46.1519 61.0296 46.4277C61.2395 47.1404 61.3469 47.8776 61.4893 48.604C61.5492 48.9125 61.5367 49.2347 61.5792 49.546C61.7016 50.4498 61.6567 51.3536 61.6517 52.2602C61.6517 52.6834 61.5717 53.1067 61.5367 53.5326C61.4868 54.1361 61.3194 54.715 61.207 55.3048C61.1296 55.7062 60.9522 56.0775 60.8248 56.4625C60.5825 57.1998 60.2228 57.8742 59.8331 58.5241C59.3635 59.3078 58.8064 60.0204 58.1894 60.673C57.5399 61.3584 56.8205 61.9291 56.0436 62.4261C55.7138 62.6363 55.3866 62.8575 55.0394 63.035C54.3674 63.3763 53.6904 63.6958 52.996 63.9798C52.3115 64.2583 51.6221 64.5095 50.9226 64.7389C50.0558 65.0228 49.179 65.2686 48.2972 65.4925C47.4729 65.7 46.6385 65.872 45.8067 66.0331C45.1822 66.1533 44.5552 66.2543 43.9232 66.328C43.3636 66.3963 42.804 66.4618 42.2395 66.5028C41.7174 66.541 41.1978 66.5656 40.6757 66.6038C40.2885 66.6311 39.9013 66.6339 39.5166 66.6366C38.9196 66.6366 38.3201 66.582 37.7206 66.5601C37.4108 66.5492 37.1035 66.5247 36.7938 66.5001C36.2767 66.4564 35.7571 66.4127 35.2425 66.3362C34.8378 66.2762 34.4307 66.2352 34.026 66.1669C33.4514 66.0686 32.8769 65.9758 32.3073 65.8557C31.5229 65.6891 30.7411 65.5007 29.9692 65.2768C29.1898 65.0529 28.4179 64.8099 27.6435 64.5668C26.8441 64.3156 26.0648 64.0043 25.2929 63.6657C24.3936 63.2725 23.5068 62.8438 22.6924 62.2704C22.1778 61.9073 21.6782 61.5168 21.2211 61.0635C20.9888 60.8314 20.7639 60.5911 20.5341 60.3563C20.1669 59.9822 19.8846 59.5208 19.5749 59.0921C19.1552 58.5132 18.818 57.8742 18.5282 57.2134C18.206 56.4789 17.9162 55.7225 17.7738 54.9143C17.7139 54.562 17.6264 54.218 17.564 53.8658C17.5265 53.6555 17.504 53.4398 17.4865 53.2268C17.4341 52.6179 17.3666 52.009 17.4041 51.4083L17.4066 51.3864ZM24.3711 51.9434C24.3436 52.2547 24.4186 52.4622 24.6234 52.566C25.078 52.7926 25.5502 52.9456 26.0623 52.9237C26.2546 52.9155 26.4195 53.0002 26.5069 53.2132C26.5594 53.336 26.6543 53.4179 26.7792 53.4207C27.1689 53.4371 27.5486 53.579 27.9433 53.4862C28.1281 53.4425 28.3155 53.4753 28.5028 53.4753C28.7401 53.4753 28.985 53.4562 29.2198 53.3824C29.2522 53.3715 29.2822 53.3579 29.3172 53.3661C29.547 53.4207 29.7693 53.4098 29.9767 53.2705C30.0341 53.2295 30.0966 53.2405 30.159 53.235C30.2764 53.2241 30.3863 53.2896 30.5038 53.265C30.9259 53.1722 31.3106 52.9729 31.6653 52.7244C31.9151 52.5496 32.1699 52.3967 32.4372 52.2602C32.5596 52.1974 32.667 52.0854 32.8019 52.0718C33.1941 52.0308 33.4489 51.7578 33.6837 51.4601C33.7937 51.3209 33.9011 51.1871 34.0584 51.1215C34.1684 51.0751 34.2483 50.9959 34.2858 50.8731C34.3307 50.7311 34.4232 50.641 34.5406 50.5672C34.653 50.4962 34.7629 50.4061 34.7829 50.2505C34.8029 50.0976 34.8878 50.002 34.9852 49.901C35.1876 49.6907 35.4249 49.5187 35.5897 49.2648C35.7671 48.9862 35.9844 48.7569 36.2967 48.675C36.5815 48.5985 36.8662 48.5111 37.1635 48.5876C37.2135 48.6012 37.2684 48.5876 37.3209 48.5712C37.4807 48.5193 37.6381 48.4756 37.8155 48.5193C38.1177 48.593 38.2726 48.4893 38.4175 48.1807C38.4974 48.0087 38.5899 47.8476 38.7223 47.722C38.8721 47.58 39.0145 47.4325 39.112 47.2387C39.1444 47.1759 39.2069 47.1486 39.2743 47.1486C39.5066 47.1486 39.7315 47.0803 39.9588 47.0312C40.3085 46.9547 40.5183 47.0776 40.6982 47.4052C40.8431 47.6701 41.0204 47.9213 41.2902 48.0606C41.3777 48.107 41.4851 48.1452 41.5076 48.2572C41.5675 48.5412 41.7399 48.7678 41.8348 49.0327C41.8848 49.1692 41.9747 49.2566 42.0996 49.2784C42.2045 49.2975 42.2919 49.3439 42.3769 49.4067C42.4443 49.4559 42.5168 49.4969 42.5917 49.4914C42.7791 49.4777 42.9564 49.5405 43.1388 49.5597C43.1912 49.5651 43.2437 49.6115 43.2937 49.587C43.501 49.4859 43.6259 49.5542 43.7533 49.7617C43.8657 49.9474 44.0406 50.0894 44.1904 50.2505C44.2579 50.3242 44.3203 50.4061 44.3153 50.5099C44.2979 50.8567 44.4228 51.198 44.3503 51.5475C44.3328 51.6349 44.3578 51.7223 44.3978 51.8069C44.4727 51.9598 44.5452 52.1155 44.5901 52.2848C44.6651 52.5524 44.805 52.749 45.0722 52.82C45.1672 52.8445 45.2646 52.8964 45.3345 52.9811C45.442 53.1094 45.5793 53.1667 45.7267 53.2077C46.2563 53.3579 46.8034 53.2869 47.338 53.3633C47.4354 53.377 47.5378 53.3688 47.6402 53.3442C48.0599 53.2486 48.4846 53.194 48.9092 53.1422C49.1515 53.1121 49.3963 53.1176 49.6361 53.022C49.9184 52.9101 50.2032 52.7954 50.498 52.708C50.7353 52.6397 50.9851 52.5496 51.1799 52.3694C51.3798 52.1865 51.5921 52.0417 51.8344 51.9434C52.0417 51.8588 52.2241 51.6731 52.4714 51.7851C52.4839 51.7905 52.5089 51.7769 52.5239 51.7632C52.7087 51.5994 52.9385 51.5366 53.1509 51.441C53.3632 51.3454 53.4931 51.1325 53.678 51.0014C53.8428 50.8813 54.0027 50.712 54.215 50.9331C54.27 50.9905 54.3649 50.9495 54.4299 50.8949C54.6947 50.6737 54.9744 50.4799 55.2867 50.3461C55.4291 50.2833 55.489 50.1331 55.4341 49.9692C55.4041 49.8764 55.3891 49.7808 55.4066 49.688C55.4541 49.4341 55.4266 49.1801 55.4316 48.9262C55.4341 48.7132 55.4391 48.5002 55.4216 48.2899C55.4091 48.1534 55.3991 48.0196 55.4216 47.8831C55.4466 47.7275 55.484 47.5691 55.459 47.4134C55.4116 47.1295 55.3691 46.8428 55.2942 46.567C55.1793 46.1437 55.0144 45.7369 54.897 45.3136C54.8795 45.2508 54.837 45.1853 54.7896 45.1471C54.4673 44.8904 54.2075 44.5627 53.9128 44.2733C53.7504 44.1149 53.5605 43.9893 53.4282 43.7982C53.2933 43.6043 53.1209 43.4814 52.9186 43.405C52.8261 43.3695 52.7362 43.3203 52.6663 43.2493C52.404 42.9872 52.1017 42.8124 51.767 42.6896C51.5396 42.6049 51.2973 42.5203 51.12 42.3401C50.9326 42.1489 50.7328 42.0124 50.4805 41.9742C50.2681 41.9414 50.0558 41.8649 49.8485 42.0151C49.801 42.0506 49.7286 42.0561 49.6661 42.0588C49.5587 42.0643 49.4663 42.108 49.3813 42.1653C49.194 42.2909 49.0016 42.3947 48.7868 42.4465C48.6994 42.4684 48.6045 42.4984 48.5395 42.5749C48.3022 42.8507 48.0074 43.05 47.7401 43.2821C47.5478 43.4487 47.3579 43.648 47.0707 43.5988C46.9832 43.5852 46.9133 43.6726 46.8683 43.7599C46.7559 43.9866 46.5786 44.1122 46.3537 44.1559C46.2039 44.1859 46.1214 44.2733 46.0889 44.4262C46.069 44.5108 46.0315 44.5873 45.964 44.631C45.7817 44.7484 45.5993 44.8713 45.4045 44.9669C45.2671 45.0351 45.1747 45.1252 45.1172 45.2781C45.0648 45.4201 45.0023 45.5867 44.8399 45.5922C44.6201 45.5976 44.5052 45.7178 44.4278 45.9198C44.3603 46.0973 44.2504 46.212 44.063 46.2366C43.9756 46.2475 43.8907 46.2939 43.8232 46.3704C43.7708 46.4304 43.7008 46.4823 43.6309 46.5069C43.4585 46.5697 43.3286 46.6871 43.2062 46.8264C43.0813 46.9711 42.904 46.9984 42.7416 46.9028C42.5667 46.7991 42.3894 46.7144 42.187 46.6926C41.9947 46.6735 41.8723 46.5506 41.8273 46.3403C41.8098 46.2584 41.7699 46.1847 41.6999 46.1355C41.4776 45.9799 41.2553 45.8215 40.998 45.7314C40.5084 45.5621 40.0212 45.3764 39.4967 45.3792C39.4342 45.3792 39.3717 45.3573 39.3243 45.3082C39.1619 45.1443 38.9571 45.1334 38.7547 45.128C38.6473 45.128 38.5474 45.1798 38.4924 45.2727C38.41 45.4147 38.2876 45.4911 38.1602 45.5703C38.0603 45.6331 37.9853 45.7178 37.9154 45.8161C37.8729 45.8734 37.843 45.9444 37.7905 45.9908C37.5432 46.212 37.3384 46.4659 37.196 46.7827C37.1285 46.9329 37.0036 47.0394 36.8612 47.0994C36.7513 47.1458 36.6789 47.0284 36.5889 46.982C36.5415 46.9574 36.4915 46.9356 36.4416 46.9165C36.3017 46.8591 36.1643 46.7936 36.0444 46.6898C35.9544 46.6134 35.8495 46.5724 35.7321 46.5369C35.4723 46.4605 35.205 46.3676 35.1201 46.0263C35.0951 45.9253 35.0152 45.8597 34.9427 45.7997C34.8578 45.7287 34.7754 45.6604 34.6929 45.584C34.5231 45.4229 34.3582 45.2399 34.1134 45.2263C33.976 45.2181 33.8811 45.1443 33.7912 45.0406C33.6862 44.9177 33.6163 44.7429 33.4664 44.6829C33.2016 44.5764 32.9893 44.3934 32.7894 44.1859C32.7295 44.1258 32.662 44.0685 32.5896 44.0303C32.1849 43.8091 31.8627 43.4596 31.4855 43.1947C31.3306 43.0855 31.1807 43.0227 31.0009 43.0227C30.836 43.0227 30.6736 43.0336 30.5087 42.9954C30.3314 42.9517 30.1315 42.9708 29.9767 42.8862C29.7444 42.7578 29.4946 42.7005 29.2647 42.5831C28.94 42.4165 28.6402 42.4875 28.333 42.6295C28.1656 42.7087 28.0132 42.8206 27.8284 42.8616C27.5886 42.9135 27.3662 43.0282 27.1239 43.0828C26.8766 43.1401 26.6218 43.2329 26.4095 43.4132C26.2946 43.5115 26.2171 43.6562 26.0847 43.7299C25.8924 43.8391 25.6975 43.9374 25.5252 44.0931C25.3478 44.2542 25.1105 44.3088 24.9182 44.4562C24.6709 44.6474 24.3786 44.7621 24.1413 44.9778C23.8215 45.2645 23.5542 45.5867 23.4493 46.04C23.4069 46.2202 23.4618 46.3977 23.4618 46.5752C23.4618 47.0312 23.4943 47.4844 23.5093 47.9377C23.5243 48.3582 23.5542 48.7623 23.6891 49.161C23.7941 49.4723 23.804 49.8081 23.8365 50.1385C23.854 50.3106 23.9689 50.4307 24.0139 50.5864C24.0738 50.7966 24.1263 51.0123 24.2062 51.2171C24.3086 51.4711 24.4385 51.7223 24.3636 51.9516L24.3711 51.9434ZM20.7614 53.1831C20.7764 53.3196 20.754 53.4398 20.7864 53.5627C20.9238 54.0787 21.0637 54.5921 21.1786 55.1136C21.2436 55.4085 21.2985 55.7034 21.4709 55.9464C21.7856 56.397 21.988 56.9213 22.2703 57.3936C22.3452 57.5165 22.4126 57.6449 22.5076 57.7513C22.6799 57.9452 22.8623 58.1254 23.0197 58.3384C23.1021 58.4531 23.172 58.5787 23.282 58.6716C23.5717 58.9146 23.869 59.1521 24.1238 59.4443C24.2862 59.63 24.456 59.8184 24.6409 59.9795C24.8707 60.1788 25.1005 60.3809 25.3853 60.4928C25.7075 60.6212 26.0173 60.7905 26.3021 60.9953C26.6268 61.2301 26.9865 61.3885 27.3263 61.5878C27.5161 61.6997 27.7384 61.7134 27.9233 61.8308C28.2855 62.0629 28.6727 62.224 29.0749 62.3414C29.3597 62.4233 29.6244 62.5517 29.9017 62.6527C30.1191 62.7319 30.3489 62.7701 30.5712 62.8302C31.0034 62.9449 31.433 63.0705 31.8802 63.1306C32.4072 63.2015 32.9193 63.3818 33.4514 63.4446C33.7812 63.4828 34.1059 63.5565 34.4406 63.5702C34.678 63.5811 34.9178 63.5647 35.1501 63.6002C35.6247 63.6739 36.1018 63.6739 36.5765 63.7176C36.8213 63.7395 37.0686 63.734 37.3159 63.7422C37.7131 63.7559 38.1077 63.8077 38.5074 63.7886C38.6099 63.7832 38.7148 63.7695 38.8122 63.7968C38.9521 63.835 39.0945 63.8296 39.2319 63.8159C39.7165 63.7695 40.2036 63.7094 40.6907 63.7231C40.8756 63.7286 41.0579 63.6958 41.2403 63.6876C41.6749 63.6685 42.0996 63.5019 42.5392 63.5647C42.7391 63.592 42.9339 63.5292 43.1313 63.5319C43.3536 63.5347 43.5709 63.5019 43.7908 63.45C43.9831 63.4036 44.1805 63.3872 44.3778 63.3708C44.7575 63.3408 45.1372 63.2971 45.5219 63.3108C45.5494 63.3108 45.5769 63.2944 45.6043 63.2889C45.8541 63.237 46.1089 63.1879 46.3612 63.1934C46.5011 63.1961 46.636 63.1961 46.7709 63.1661C47.0432 63.1033 47.3105 63.0159 47.5853 62.9695C48.1148 62.8766 48.6394 62.7537 49.164 62.6254C49.4438 62.5571 49.6986 62.4179 49.9659 62.3168C50.3306 62.1776 50.7128 62.1066 51.0775 61.9346C51.3873 61.7899 51.7095 61.6561 52.0318 61.5359C52.2016 61.4731 52.369 61.3885 52.5089 61.2683C52.9535 60.8888 53.4706 60.6239 53.8953 60.2089C54.1476 59.9631 54.4698 59.802 54.7521 59.589C54.9045 59.4743 55.1043 59.4033 55.1868 59.2067C55.3167 58.8873 55.5615 58.6852 55.7938 58.4777C55.9886 58.3029 56.191 58.1473 56.3109 57.8906C56.4033 57.694 56.4982 57.4892 56.6306 57.3254C56.8629 57.0332 57.0228 56.6946 57.1852 56.3615C57.475 55.7662 57.7073 55.1355 57.9671 54.5238C58.2194 53.9258 58.3068 53.2951 58.3992 52.667C58.4617 52.2465 58.4142 51.8096 58.3668 51.3864C58.3468 51.198 58.3842 51.0041 58.3143 50.8212C58.2818 50.7365 58.2493 50.6519 58.1419 50.6601C58.042 50.6683 58.022 50.7502 57.9995 50.8348C57.9671 50.9604 57.9671 51.0942 57.9146 51.2171C57.7772 51.553 57.6623 51.9025 57.5474 52.2493C57.4475 52.5496 57.2476 52.7763 57.1302 53.0575C57.1003 53.1285 57.0303 53.1831 56.9554 53.2186C56.743 53.3196 56.5757 53.4944 56.4558 53.6937C56.2709 54.0077 56.0311 54.2426 55.7438 54.4255C55.4141 54.633 55.1268 54.9088 54.7746 55.0836C54.5373 55.201 54.3474 55.4276 54.0602 55.414C54.0377 55.414 54.0102 55.4222 53.9902 55.4358C53.8004 55.586 53.5705 55.6461 53.3657 55.7662C53.0609 55.9437 52.7262 56.0502 52.3915 56.1567C52.2841 56.1922 52.1791 56.214 52.0667 56.214C51.8544 56.214 51.6396 56.184 51.4372 56.2796C51.1649 56.4052 50.8752 56.4106 50.5879 56.4298C50.393 56.4434 50.2057 56.4598 50.0258 56.5472C49.9484 56.5854 49.8635 56.6455 49.7785 56.6182C49.5137 56.5335 49.2864 56.6373 49.0566 56.7629C48.9342 56.8312 48.8068 56.8803 48.6569 56.8475C48.537 56.823 48.4046 56.8257 48.2872 56.8885C48.1473 56.9649 47.9999 56.9731 47.8501 56.9677C47.6952 56.9622 47.5378 56.9622 47.3829 56.9677C47.1506 56.9759 46.9208 56.9677 46.6985 56.8776C46.5636 56.823 46.4062 56.8011 46.2713 56.8639C45.7117 57.1233 45.1172 57.0878 44.5327 57.1206C44.1954 57.1397 43.8582 57.126 43.531 57.2489C43.2812 57.3418 43.0039 57.238 42.7466 57.3363C42.6142 57.3855 42.4668 57.3008 42.3319 57.35C42.0022 57.4728 41.6624 57.5056 41.3177 57.4892C41.0729 57.4783 40.8431 57.5821 40.5983 57.5629C40.5233 57.5575 40.4309 57.5902 40.366 57.6394C40.1836 57.7759 39.9838 57.806 39.7739 57.806C39.629 57.806 39.4817 57.7978 39.3368 57.8114C38.8921 57.8551 38.48 58.0626 38.0278 58.1091C37.5932 58.1527 37.1685 58.2756 36.7413 58.0954C36.7039 58.079 36.6514 58.0817 36.6114 58.0927C36.3092 58.1773 36.0044 58.1691 35.6972 58.1555C35.4698 58.1445 35.24 58.1582 35.0127 58.15C34.8778 58.1446 34.7429 58.0872 34.6105 58.1309C34.051 58.3111 33.4814 58.221 32.9243 58.1664C32.3898 58.1118 31.8702 57.9043 31.3306 57.8251C31.0133 57.7787 30.7236 57.6039 30.3988 57.5629C30.244 57.5438 30.0991 57.5111 29.9417 57.5466C29.512 57.6394 29.1074 57.5739 28.7376 57.3008C28.6727 57.2517 28.5978 57.2298 28.5203 57.2162C28.3155 57.1807 28.1081 57.1643 27.9333 57.0196C27.8833 56.9786 27.8109 56.9677 27.7409 56.9649C27.5661 56.9568 27.4012 56.9103 27.2413 56.8312C26.9815 56.7028 26.7267 56.5608 26.4594 56.4543C26.3146 56.397 26.1697 56.3342 26.0673 56.1977C25.9798 56.0802 25.8599 56.0256 25.7325 55.9901C25.5177 55.9301 25.3029 55.8727 25.138 55.6925C25.0955 55.6461 25.0281 55.6161 24.9681 55.6079C24.6709 55.5696 24.4635 55.3539 24.2412 55.1737C24.0763 55.0399 23.9464 54.8706 23.7616 54.7532C23.4893 54.5812 23.1895 54.4474 22.9622 54.1934C22.6475 53.8412 22.3352 53.4944 22.1279 53.0466C21.973 52.708 21.6832 52.4622 21.5758 52.0854C21.5308 51.9271 21.4459 51.7905 21.366 51.654C21.2261 51.4192 21.0737 51.198 21.1112 50.8867C21.1237 50.7802 21.0587 50.6628 20.9813 50.5754C20.8838 50.4635 20.7564 50.4744 20.674 50.6C20.6315 50.6655 20.6315 50.7365 20.6266 50.8103C20.6191 50.9932 20.6665 51.1843 20.5941 51.3591C20.5291 51.512 20.5216 51.6595 20.5716 51.8178C20.6515 52.069 20.5941 52.3448 20.674 52.596C20.7365 52.7926 20.8039 52.9865 20.7689 53.1831H20.7614Z" fill="#000000"/>
<path id="Vector_2" d="M25.5798 48.1727C25.5248 47.6457 25.6547 47.1242 25.6897 46.5945C25.6997 46.447 25.7122 46.305 25.7496 46.163C25.7871 46.0183 25.8721 45.9255 26.0044 45.8873C26.1244 45.8518 26.2293 45.7971 26.2892 45.6661C26.3042 45.6333 26.3467 45.6005 26.3816 45.5951C26.6315 45.5487 26.8388 45.3739 27.0861 45.3248C27.1835 45.3056 27.2585 45.2346 27.2834 45.1172C27.3109 44.9862 27.3884 44.9206 27.5083 44.8797C27.7955 44.7814 28.0254 44.5629 28.2876 44.41C28.5025 44.2871 28.5999 44.2735 28.7997 44.4401C28.9196 44.5384 29.062 44.5902 29.2069 44.6257C29.5167 44.7022 29.7815 44.8524 29.9938 45.1145C30.1062 45.2538 30.2486 45.3575 30.4035 45.4367C30.5209 45.4968 30.5783 45.6005 30.6233 45.7289C30.7557 46.1193 30.8831 46.5125 31.0804 46.8703C31.1379 46.974 31.1854 47.0723 31.1454 47.2061C31.1154 47.3071 31.1604 47.4136 31.1953 47.5119C31.3477 47.9434 31.3402 48.3666 31.1329 48.7735C31.0879 48.8636 31.043 48.9564 31.033 49.0465C30.9855 49.4397 30.7207 49.6172 30.4459 49.7838C30.3635 49.8329 30.2661 49.8575 30.1762 49.8903C30.1262 49.9094 30.0662 49.9285 30.0438 49.9804C29.9638 50.166 29.8114 50.1688 29.6716 50.136C29.5516 50.1087 29.4592 50.1497 29.3593 50.1906C29.1145 50.2916 28.8722 50.3899 28.5974 50.3381C28.3776 50.2971 28.1552 50.3381 27.9554 50.4609C27.8305 50.5374 27.7131 50.5237 27.5807 50.4855C27.2909 50.4036 27.0037 50.3299 26.7713 50.106C26.6814 50.0186 26.584 49.9394 26.4866 49.8657C26.3866 49.792 26.2842 49.7373 26.1543 49.7292C25.9195 49.7128 25.7846 49.5162 25.7372 49.3059C25.6572 48.9373 25.5498 48.5659 25.5823 48.17L25.5798 48.1727ZM29.167 47.2498C29.152 47.1624 29.1819 47.045 29.1495 46.9303C29.0795 46.6764 28.9546 46.4497 28.8797 46.2013C28.8297 46.0402 28.6748 45.991 28.53 46.0702C28.4075 46.1385 28.2926 46.1193 28.1752 46.0675C28.0703 46.0183 27.9654 46.021 27.868 46.0729C27.7206 46.1521 27.5807 46.2422 27.4833 46.3979C27.3609 46.5945 27.2659 46.8102 27.0911 46.9631C27.0636 46.9877 27.0311 47.0368 27.0336 47.0696C27.0536 47.3099 26.9462 47.5502 27.0361 47.7877C27.0761 47.8942 27.0861 47.998 27.0861 48.1099C27.0861 48.3229 27.3534 48.5659 27.5332 48.525C27.783 48.4676 28.0353 48.4567 28.2876 48.4294C28.6274 48.3939 28.8972 48.211 29.077 47.8942C29.1844 47.7085 29.1645 47.4901 29.1645 47.2525L29.167 47.2498Z" fill="#000000"/>
<path id="Vector_3" d="M53.065 46.9453C53.0875 47.0655 53.0251 47.172 53.0326 47.2921C53.0351 47.3686 53.0401 47.4532 53.08 47.5024C53.2299 47.6853 53.1725 47.8792 53.11 48.0621C53.0451 48.2533 52.9551 48.4362 52.8702 48.6192C52.8252 48.7202 52.7653 48.8076 52.6729 48.8622C52.5829 48.9141 52.5005 48.9769 52.4305 49.0615C52.3056 49.2171 52.1233 49.1926 51.9634 49.2226C51.881 49.239 51.8085 49.2554 51.7386 49.31C51.6187 49.4056 51.4913 49.4793 51.3339 49.4875C51.1266 49.4957 50.9717 49.6813 50.7719 49.7141C50.4022 49.7769 50.0474 49.8916 49.7002 50.0363C49.6877 50.0418 49.6727 50.0445 49.6577 50.0472C49.4579 50.05 49.278 49.9489 49.0882 49.9053C48.8759 49.8588 48.7485 49.6977 48.671 49.4847C48.6136 49.3291 48.5236 49.2035 48.3912 49.1107C48.3088 49.0533 48.2663 48.9523 48.2264 48.854C48.1689 48.7147 48.084 48.6082 47.9691 48.5209C47.8217 48.4062 47.7218 48.2396 47.6193 48.0812C47.5394 47.9584 47.447 47.8573 47.3346 47.7672C47.2396 47.6935 47.1822 47.5897 47.1622 47.4532C47.1297 47.232 47.0648 47.019 47.0248 46.7979C46.9774 46.533 47.0598 46.3064 47.2571 46.1535C47.4695 45.9896 47.6918 45.8422 47.8716 45.6319C47.9166 45.58 47.9816 45.5336 48.044 45.5172C48.4412 45.4107 48.7335 45.1049 49.0682 44.881C49.1307 44.8401 49.1906 44.7991 49.263 44.7827C49.4479 44.7363 49.6153 44.6025 49.7876 44.5588C50.1848 44.4578 50.5121 44.182 50.9117 44.1028C51.0641 44.0728 51.2115 44.1083 51.3514 44.1601C51.6287 44.2639 51.9234 44.3458 52.1133 44.608C52.2532 44.8018 52.3556 45.0257 52.4755 45.236C52.548 45.3643 52.6054 45.5063 52.6953 45.6265C52.7628 45.7166 52.8077 45.8203 52.8277 45.9377C52.8477 46.0688 52.8952 46.189 52.9501 46.3064C53.0451 46.5057 53.0551 46.7296 53.0725 46.9481L53.065 46.9453ZM49.8676 45.5882C49.8001 45.5882 49.7302 45.5828 49.6627 45.5882C49.5928 45.5937 49.0332 46.0524 49.0182 46.1234C48.9733 46.3255 48.9208 46.5275 48.8958 46.7351C48.8659 46.9863 48.9908 47.1938 49.0357 47.4232C49.1257 47.901 49.4579 48.1823 49.8926 48.1386C50.1523 48.114 50.4096 48.0485 50.6669 47.9993C50.9592 47.9447 51.1616 47.7618 51.2989 47.4805C51.4363 47.202 51.4114 46.9071 51.2115 46.6777C51.1441 46.6013 51.1116 46.5194 51.0966 46.4156C51.0591 46.189 50.9467 45.9924 50.7744 45.8749C50.5021 45.6893 50.1898 45.6073 49.8676 45.5855V45.5882Z" fill="#000000"/>
<path id="Vector_4" d="M45.3939 62.5512C45.2365 62.5266 45.0741 62.5949 44.9118 62.6277C44.8143 62.6496 44.7319 62.6168 44.6445 62.6086C44.4396 62.5949 44.2448 62.6578 44.045 62.6824C43.7627 62.7179 43.4854 62.6988 43.2031 62.7042C42.8834 62.7124 42.8759 62.6906 43.0183 62.3764C43.1207 62.1496 43.2306 61.9283 43.383 61.7316C43.4979 61.5813 43.5453 61.3819 43.6503 61.2289C43.8976 60.8682 44.0749 60.4529 44.3797 60.136C44.5296 59.9803 44.607 59.759 44.6969 59.554C44.7794 59.3683 44.9018 59.2207 45.0367 59.0841C45.1266 58.9912 45.2415 59.0185 45.3139 59.1497C45.3889 59.2863 45.4214 59.4475 45.4913 59.5841C45.6412 59.8792 45.7136 60.2125 45.8735 60.5021C45.916 60.5786 45.9335 60.6688 45.9235 60.7589C45.906 60.9037 45.9509 61.0158 46.0534 61.1086C46.2232 61.2616 46.2232 61.4775 46.2032 61.6879C46.1883 61.8409 46.1433 61.9857 46.2082 62.1441C46.2557 62.2616 46.2307 62.3846 46.0983 62.4092C45.8685 62.4501 45.6512 62.5676 45.3989 62.554L45.3939 62.5512Z" fill="#000000"/>
<path id="Vector_5" d="M36.0099 59.1599C36.1373 59.1818 36.2647 59.2145 36.3921 59.22C36.6819 59.2337 36.9592 59.1326 37.2415 59.0861C37.254 59.0861 37.2689 59.067 37.2814 59.067C37.5637 59.0971 37.8385 58.9768 38.1133 59.0096C38.4105 59.0451 38.7078 59.0233 39.0051 59.0315C39.2674 59.0397 39.2749 59.0342 39.2049 59.3184C39.135 59.5943 38.9801 59.8293 38.8652 60.0834C38.7103 60.4276 38.468 60.6872 38.2357 60.9631C38.0833 61.1434 37.9809 61.3675 37.8235 61.5505C37.7511 61.6352 37.771 61.7609 37.7361 61.8647C37.6661 62.0696 37.5462 62.1024 37.4113 61.944C37.3264 61.8456 37.249 61.7363 37.179 61.6216C37.1041 61.4959 37.0241 61.3839 36.9092 61.2992C36.7968 61.2145 36.7618 61.0669 36.7194 60.9331C36.607 60.5861 36.4071 60.2965 36.2123 60.0041C36.0824 59.8101 35.9875 59.5888 35.8501 59.3976C35.7701 59.2828 35.8601 59.1626 36.0149 59.1599H36.0099Z" fill="#000000"/>
<path id="Vector_6" d="M46.6975 59.9508C46.745 59.776 46.6401 59.6612 46.5601 59.5355C46.3478 59.1995 46.2379 58.8252 46.2079 58.4236C46.1979 58.2788 46.2729 58.2105 46.3853 58.1585C46.6576 58.0274 46.9523 58.0165 47.2396 57.9782C47.402 57.9564 47.5519 57.8607 47.7167 57.8826C47.9615 57.9181 48.2088 57.9099 48.4536 57.9126C48.5835 57.9126 48.7109 57.9126 48.8383 57.8607C48.9208 57.8279 49.0057 57.8443 49.0632 57.9208C49.1181 57.9973 49.1256 58.0875 49.0732 58.1722C48.9732 58.3389 48.8733 58.5083 48.7684 58.6722C48.6535 58.8498 48.5835 59.0465 48.5286 59.2569C48.4586 59.5274 48.3437 59.7705 48.1564 59.9782C47.9291 60.2295 47.7892 60.5546 47.6118 60.8442C47.5119 61.0082 47.3895 61.1503 47.2821 61.3033C47.2421 61.3606 47.1896 61.3825 47.1272 61.3634C47.0548 61.3415 47.0697 61.2759 47.0722 61.2186C47.0722 61.1229 47.0448 61.0328 47.0223 60.9426C46.9948 60.8279 46.9548 60.7131 46.9548 60.5902C46.9548 60.5 46.9199 60.418 46.8499 60.3579C46.73 60.2541 46.6651 60.1284 46.6975 59.9563V59.9508Z" fill="#000000"/>
<path id="Vector_7" d="M42.3652 58.373C42.6375 58.4004 42.9722 58.4359 43.3045 58.4687C43.4194 58.4796 43.5193 58.4413 43.6192 58.3758C43.7541 58.2856 43.909 58.261 44.0639 58.2829C44.1488 58.2965 44.2088 58.3512 44.1488 58.4605C44.1313 58.4905 44.1138 58.5288 44.0864 58.5452C43.884 58.6763 43.7966 58.8676 43.7666 59.1216C43.7366 59.3675 43.6092 59.5697 43.4244 59.7227C43.317 59.8101 43.2445 59.9222 43.257 60.0724C43.282 60.3402 43.1771 60.5041 42.9473 60.5861C42.8548 60.6189 42.7974 60.6981 42.7699 60.8019C42.6775 61.1544 42.4551 61.4085 42.2403 61.668C42.1854 61.7336 42.1154 61.7199 42.0804 61.6516C41.9331 61.3757 41.7432 61.1134 41.6458 60.8238C41.5683 60.5997 41.5733 60.3211 41.5359 60.0697C41.5034 59.8429 41.4759 59.6189 41.321 59.4331C41.2211 59.3129 41.1637 59.1572 41.1187 58.9987C41.0837 58.8812 41.1187 58.7856 41.2161 58.7282C41.5534 58.5178 41.9106 58.3758 42.3677 58.3758L42.3652 58.373Z" fill="#000000"/>
<path id="Vector_8" d="M48.0478 62.0851C47.9503 62.0688 47.8229 62.1343 47.768 61.9841C47.7205 61.8529 47.773 61.7354 47.8554 61.6535C48.1527 61.3529 48.36 60.9786 48.6098 60.6371C48.8396 60.3256 49.017 59.9705 49.2918 59.6972C49.4317 59.5579 49.4542 59.3421 49.5341 59.1645C49.634 58.9432 49.8339 58.8448 50.0037 58.7109C50.0837 58.6481 50.1836 58.7109 50.241 58.8011C50.4783 59.1809 50.6682 59.5852 50.7781 60.0306C50.8156 60.1808 50.888 60.3229 50.9455 60.4677C50.973 60.536 50.9954 60.6043 50.9954 60.6808C50.9979 61.0742 51.0004 61.0715 50.5858 61.2846C50.3559 61.4021 50.1161 61.4813 49.8588 61.5223C49.6715 61.5524 49.5041 61.689 49.3118 61.7136C48.9446 61.7627 48.6198 61.9513 48.2726 62.066C48.1952 62.0906 48.1177 62.0715 48.0403 62.0851H48.0478Z" fill="#000000"/>
<path id="Vector_9" d="M32.1524 62.4935C31.8401 62.4881 31.5353 62.3542 31.2181 62.2859C30.9808 62.2367 30.736 62.234 30.5087 62.1138C30.2189 61.9608 29.9216 61.8214 29.6194 61.6957C29.4495 61.6247 29.4595 61.5701 29.4795 61.3734C29.5269 60.9007 29.7692 60.54 30.0116 60.1739C30.104 60.0346 30.1664 59.8707 30.2863 59.7477C30.5112 59.5155 30.736 59.5155 30.9608 59.7532C31.0907 59.8898 31.2006 60.0401 31.2556 60.234C31.313 60.439 31.4629 60.5592 31.6153 60.6739C31.7177 60.7504 31.7901 60.8515 31.8276 60.9827C31.9026 61.2586 32.005 61.5182 32.2098 61.7176C32.2748 61.7804 32.3097 61.8733 32.3297 61.9635C32.3572 62.081 32.3872 62.1957 32.4571 62.2941C32.5246 62.3897 32.5071 62.4471 32.3897 62.4771C32.3172 62.4963 32.2448 62.4771 32.1574 62.4935H32.1524Z" fill="#000000"/>
<path id="Vector_10" d="M39.8507 63.1204C39.7333 63.1176 39.6434 63.1231 39.5534 63.0903C39.3961 63.0302 39.2462 63.0876 39.0913 63.1204C38.8765 63.1668 38.6541 63.1422 38.4468 63.052C38.3619 63.0165 38.3394 62.9318 38.3769 62.8417C38.4018 62.7843 38.4243 62.7187 38.4668 62.6832C38.6691 62.5111 38.7666 62.287 38.7965 62.0138C38.8165 61.8417 38.8965 61.6969 39.0139 61.5767C39.1413 61.4483 39.2462 61.2898 39.3961 61.186C39.4135 61.1723 39.426 61.145 39.436 61.1204C39.5384 60.8527 39.7233 60.6368 39.8332 60.3745C39.8907 60.2379 39.9856 60.145 40.0955 60.0685C40.2854 59.9401 40.3453 59.9893 40.3978 60.2188C40.4677 60.5221 40.5526 60.8199 40.5776 61.1341C40.5876 61.257 40.6351 61.3854 40.7075 61.4811C40.9373 61.7789 41.0298 62.145 41.1497 62.5001C41.1622 62.5384 41.1747 62.5794 41.1772 62.6204C41.1796 62.7023 41.2321 62.798 41.1447 62.8635C41.0647 62.9264 40.9898 62.8909 40.9149 62.8444C40.8149 62.7816 40.705 62.798 40.6401 62.8799C40.5152 63.0384 40.3428 63.0438 40.1854 63.0766C40.0705 63.1012 39.9506 63.1422 39.8532 63.1149L39.8507 63.1204Z" fill="#000000"/>
<path id="Vector_11" d="M34.3024 59.4798C34.3024 59.4962 34.3074 59.518 34.2999 59.5262C34.1301 59.7392 34.2175 60.034 34.0876 60.2688C33.9652 60.4927 33.8903 60.7493 33.7929 60.9923C33.7754 61.0387 33.7479 61.0797 33.7079 61.0961C33.5505 61.1534 33.5131 61.279 33.5306 61.4455C33.5356 61.5029 33.538 61.5602 33.5106 61.6148C33.4631 61.7158 33.4057 61.754 33.3007 61.6967C33.0984 61.582 32.966 61.3827 32.8486 61.1916C32.6263 60.8312 32.4239 60.4517 32.3065 60.0286C32.2541 59.8402 32.1292 59.7009 31.9743 59.6081C31.8219 59.518 31.717 59.387 31.652 59.2177C31.6246 59.1494 31.6121 59.0675 31.6695 59.0102C31.717 58.9638 31.7744 58.9474 31.8494 58.9583C32.339 59.0266 32.8211 59.1358 33.3207 59.1331C33.6205 59.1331 33.9128 59.2368 34.2 59.3242C34.255 59.3406 34.3074 59.3979 34.3024 59.4798Z" fill="#000000"/>
<path id="Vector_12" d="M36.6105 62.9621C36.5581 62.9785 36.5106 62.9403 36.4607 62.9266C36.3407 62.8938 36.2258 62.9321 36.1084 62.9266C35.6113 62.9102 35.1142 62.8884 34.6171 62.8638C34.5572 62.8611 34.4947 62.8447 34.4373 62.8201C34.3348 62.7764 34.2899 62.7082 34.3323 62.5717C34.4872 62.0912 34.6471 61.6134 34.8544 61.1547C34.8994 61.0564 34.9419 60.9581 34.9518 60.8435C34.9593 60.7343 35.0143 60.6333 35.0767 60.5486C35.1717 60.4176 35.3166 60.4094 35.4315 60.5213C35.5239 60.6114 35.5988 60.7152 35.6413 60.8407C35.6963 60.9964 35.7912 61.1274 35.8461 61.2748C35.9536 61.5561 36.1534 61.7444 36.3383 61.9519C36.3782 61.9983 36.4232 62.0448 36.4332 62.1076C36.4731 62.3369 36.5856 62.5253 36.7279 62.6918C36.7779 62.7491 36.8029 62.8092 36.7754 62.8747C36.7454 62.9403 36.6805 62.9594 36.6105 62.9566V62.9621Z" fill="#000000"/>
<path id="Vector_13" d="M28.0282 58.8374C28.0457 58.649 27.9532 58.4934 27.8933 58.3296C27.8708 58.2723 27.8258 58.2149 27.8708 58.1521C27.9133 58.0948 27.9707 58.1166 28.0307 58.1357C28.4029 58.2504 28.7826 58.3241 29.1673 58.3705C29.2922 58.3869 29.4146 58.4415 29.5345 58.4907C29.6569 58.5398 29.6569 58.6408 29.6019 58.7473C29.557 58.8347 29.5145 58.9248 29.4546 58.9985C29.1798 59.3561 29.1673 59.8585 28.885 60.208C28.8725 60.2243 28.8675 60.2462 28.855 60.2626C28.7051 60.4646 28.6027 60.4537 28.5128 60.2134C28.3754 59.8421 28.1631 59.5036 28.0632 59.1132C28.0407 59.0203 28.0132 58.9302 28.0257 58.8347L28.0282 58.8374Z" fill="#000000"/>
<path id="Vector_14" d="M27.6062 60.7902C27.4464 60.7438 27.2615 60.6837 27.0967 60.5854C26.7469 60.3752 26.3997 60.1595 26.07 59.9165C25.8851 59.7773 25.8751 59.7117 25.985 59.5043C26.1299 59.2285 26.2648 58.95 26.3997 58.6688C26.4472 58.5705 26.5071 58.4804 26.5746 58.3985C26.672 58.2811 26.7394 58.2975 26.7994 58.4368C26.8244 58.4968 26.8419 58.5651 26.8593 58.6279C26.8943 58.7616 26.9093 58.9009 27.0317 58.9937C27.0867 59.0347 27.1216 59.1193 27.1191 59.2039C27.1091 59.4797 27.1816 59.7227 27.3564 59.9247C27.4364 60.0148 27.4714 60.1267 27.5038 60.2441C27.5438 60.3861 27.6537 60.4871 27.7137 60.6182C27.7711 60.7383 27.7386 60.7956 27.6087 60.7956L27.6062 60.7902Z" fill="#000000"/>
<path id="Vector_15" d="M52.0717 57.8596C52.0916 57.9907 52.0517 58.108 51.9742 58.2173C51.9068 58.3128 51.8718 58.4329 51.9043 58.5449C51.9717 58.7633 51.9093 58.9489 51.8119 59.1291C51.7669 59.211 51.7194 59.2875 51.6945 59.3803C51.6795 59.4404 51.6345 59.4813 51.5721 59.4677C51.5146 59.4568 51.5021 59.3967 51.4996 59.3448C51.4921 58.9708 51.2873 58.6978 51.0974 58.4247C50.965 58.2309 50.8701 58.0316 50.9001 57.7859C50.9226 57.6002 51.03 57.4801 51.1849 57.4173C51.3822 57.3381 51.5845 57.2726 51.7819 57.1989C51.9068 57.1525 51.9867 57.2153 52.0117 57.3381C52.0467 57.5047 52.0867 57.6739 52.0742 57.8596H52.0717Z" fill="#000000"/>
<path id="Vector_16" d="M53.522 59.3266C53.5095 59.4521 53.442 59.5694 53.3596 59.6594C53.0998 59.943 52.7776 60.1203 52.4378 60.2676C52.3504 60.3058 52.3229 60.2676 52.3204 60.1776C52.3179 60.0794 52.3554 59.9949 52.3929 59.9103C52.4953 59.6839 52.5627 59.4439 52.6277 59.2011C52.6677 59.0457 52.6177 58.8766 52.6652 58.7156C52.7126 58.5465 52.7651 58.3802 52.7926 58.2029C52.81 58.0801 52.87 58.0801 52.9649 58.1538C53.3246 58.432 53.4046 58.8684 53.5245 59.2857C53.527 59.2966 53.5245 59.3075 53.5245 59.3266H53.522Z" fill="#000000"/>
<path id="Vector_17" d="M54.1485 56.3631C54.3533 56.3631 54.3733 56.4068 54.3334 56.576C54.2984 56.7262 54.1785 56.8299 54.156 56.9883C54.1285 57.1903 54.096 57.3896 54.0711 57.5917C54.0661 57.6408 54.0511 57.6818 54.0336 57.7254C54.0161 57.7691 53.9911 57.821 53.9462 57.821C53.8987 57.821 53.8812 57.7664 53.8612 57.7227C53.7563 57.4961 53.6539 57.2722 53.509 57.0702C53.3891 56.9037 53.4341 56.7317 53.6014 56.6033C53.7813 56.4668 53.9786 56.3822 54.1485 56.3604V56.3631Z" fill="#000000"/>
<path id="Vector_18" d="M25.0889 57.5906C25.1064 57.4295 25.0639 57.2793 25.0189 57.1264C24.994 57.0391 24.974 56.949 25.0464 56.8753C25.1239 56.7961 25.2113 56.848 25.2737 56.8889C25.4186 56.979 25.551 57.0937 25.6859 57.2029C25.7684 57.2684 25.7758 57.3612 25.7384 57.4568C25.6335 57.7107 25.5635 57.9783 25.4236 58.2131C25.3961 58.2595 25.3837 58.3223 25.3112 58.3168C25.2488 58.3113 25.2338 58.2595 25.2163 58.2131C25.1388 58.0138 25.0714 57.8145 25.0889 57.5906Z" fill="#000000"/>
<path id="Vector_19" d="M24.4285 58.4441C24.3885 58.4387 24.3785 58.4441 24.371 58.436C24.1088 58.2667 23.829 58.1247 23.6491 57.8353C23.5767 57.7206 23.6091 57.6305 23.6991 57.5705C23.849 57.4695 23.9314 57.3248 23.9664 57.1446C23.9664 57.1337 23.9714 57.1255 23.9739 57.1145C24.0013 57.0354 24.0363 56.9398 24.1212 56.9535C24.1937 56.9644 24.2112 57.0599 24.2312 57.1391C24.2611 57.2483 24.2486 57.3603 24.2237 57.4585C24.1537 57.7234 24.2486 57.9199 24.411 58.0974C24.471 58.1629 24.5184 58.2285 24.5159 58.3295C24.5159 58.4196 24.481 58.4551 24.431 58.4496L24.4285 58.4441Z" fill="#000000"/>
<path id="Vector_20" d="M54.7578 58.1967C54.7878 58.0493 54.8203 57.9073 54.8427 57.7654C54.8677 57.607 54.8852 57.4459 54.9002 57.2848C54.9077 57.2084 54.9127 57.1292 54.9876 57.1019C55.0751 57.0692 55.135 57.1292 55.1775 57.2057C55.2299 57.3012 55.2724 57.4022 55.3274 57.4951C55.3773 57.5797 55.3573 57.6616 55.2974 57.7053C55.115 57.8391 55.0001 58.0329 54.8727 58.2186C54.8477 58.2541 54.8178 58.2868 54.7803 58.2786C54.7453 58.2704 54.7653 58.224 54.7603 58.1995L54.7578 58.1967Z" fill="#000000"/>
<path id="Vector_21" d="M55.6392 55.8081C55.6317 55.9088 55.6242 56.0258 55.5093 56.0312C55.4194 56.0312 55.3419 55.9578 55.3245 55.8462C55.317 55.7864 55.4843 55.6259 55.5418 55.6395C55.6192 55.6585 55.6492 55.7211 55.6392 55.8081Z" fill="#000000"/>
<path id="Vector_22" d="M23.2526 56.0806C23.1377 56.1051 23.1227 55.991 23.1252 55.934C23.1302 55.8417 23.1877 55.7576 23.2876 55.7413C23.385 55.725 23.4275 55.8092 23.4225 55.8825C23.415 55.9829 23.3576 56.067 23.2526 56.0806Z" fill="#000000"/>
<path id="Vector_23" d="M56.4272 55.8227C56.4147 55.8681 56.3897 55.9109 56.3448 55.9163C56.3048 55.9216 56.2848 55.8842 56.2898 55.8441C56.2923 55.8013 56.3173 55.7639 56.3598 55.7585C56.3947 55.7532 56.4222 55.7773 56.4297 55.8227H56.4272Z" fill="#000000"/>
<path id="Vector_24" d="M28.7169 47.3389C28.6994 47.5901 28.522 47.8276 28.2647 48.0051C28.1873 48.0597 28.0999 48.0406 28.0224 47.986C27.91 47.9041 27.7951 47.8276 27.6852 47.7403C27.5553 47.6365 27.5228 47.4727 27.4879 47.3144C27.4754 47.2598 27.4979 47.197 27.5328 47.1697C27.6727 47.0604 27.7651 46.9021 27.8925 46.782C28.0424 46.64 28.2373 46.5745 28.4196 46.67C28.627 46.7792 28.7194 46.9895 28.7169 47.3417V47.3389Z" fill="#000000"/>
<path id="Vector_25" d="M50.7091 46.9551C50.6916 47.2063 50.5142 47.4438 50.2569 47.6213C50.1795 47.6759 50.0921 47.6568 50.0146 47.6022C49.9022 47.5203 49.7873 47.4438 49.6774 47.3565C49.5475 47.2527 49.515 47.0889 49.48 46.9306C49.4676 46.876 49.49 46.8132 49.525 46.7859C49.6649 46.6767 49.7573 46.5183 49.8847 46.3982C50.0346 46.2562 50.2295 46.1907 50.4118 46.2862C50.6191 46.3954 50.7116 46.6057 50.7091 46.9579V46.9551Z" fill="#000000"/>
</g>
</g>
</g>
</svg>
