<svg width="96" height="96" viewBox="0 0 96 96" fill="none" xmlns="http://www.w3.org/2000/svg">
<g id="Helmet">
<g id="Group 986">
<g id="Group 7338">
<path id="Vector" d="M74.4421 68.2697C74.439 68.2283 74.4375 68.1899 74.4375 68.1484" stroke="#000000" stroke-width="0.8" stroke-miterlimit="10"/>
<path id="Vector_2" d="M49.5399 40.6663C50.951 41.373 55.0905 43.6663 55.0905 43.6663L52.6433 39.7095C52.2947 39.1446 51.7611 38.7143 51.1337 38.4931L48.148 37.4402C49.5639 39.0532 48.3331 38.7311 48.0206 38.6902C46.1816 38.4426 40.8281 36.8633 40.8281 36.8633L48.9605 41.885C47.3307 39.6446 49.2394 40.5172 49.5399 40.6663Z" fill="#000000"/>
<path id="Vector_3" d="M29.1481 32.3242L31.2071 34.3831C31.6001 34.7762 31.7168 35.3689 31.5003 35.8817L28.4204 43.1731C28.2039 43.6859 28.319 44.2786 28.7136 44.6717L33.6882 49.7998" stroke="#000000" stroke-width="0.8" stroke-linecap="round" stroke-linejoin="round"/>
<path id="Vector_4" d="M67.3604 32.2637L66.1935 33.4306C65.2615 34.3625 64.9867 35.7674 65.4995 36.9819L68.0882 43.1111C68.3046 43.6239 68.1895 44.2165 67.7949 44.6096L62.8203 49.7377" stroke="#000000" stroke-width="0.8" stroke-linecap="round" stroke-linejoin="round"/>
<path id="Vector_5" d="M54.7928 24.6543L51.2246 33.4651C51.0588 34.0317 50.5398 34.4216 49.9487 34.4216H48.2521H48.1047H46.4081C45.817 34.4216 45.2981 34.0317 45.1322 33.4651L41.5625 24.6543" stroke="#000000" stroke-width="0.8" stroke-linecap="round" stroke-linejoin="round"/>
<path id="Vector_6" d="M23.125 45.377L26.9404 49.1923V57.1425L23.8789 60.3575" stroke="#000000" stroke-width="0.8" stroke-linecap="round" stroke-linejoin="round"/>
<path id="Vector_7" d="M73.2451 45.377L69.4297 49.1923V57.1425L72.4912 60.3575" stroke="#000000" stroke-width="0.8" stroke-linecap="round" stroke-linejoin="round"/>
<path id="Subtract" fill-rule="evenodd" clip-rule="evenodd" d="M55.5805 47.9961C60.747 47.9961 64.9355 51.7102 64.9355 56.6863C64.9355 61.6624 60.747 66.571 55.5805 66.571C54.1411 66.571 52.7785 65.6956 51.5608 64.9132C51.2588 64.7192 50.9658 64.5309 50.6827 64.3631C49.0536 63.3974 47.0147 63.3974 45.3856 64.3631C45.1025 64.5309 44.8095 64.7192 44.5075 64.9132C43.2898 65.6956 41.9272 66.571 40.4878 66.571C35.3213 66.571 31.1328 61.6624 31.1328 56.6863C31.1328 51.7102 35.3213 47.9961 40.4878 47.9961H55.579H55.5805ZM36.5288 50.4703L38.4434 64.4575C38.4818 64.7369 38.7213 64.9457 39.0023 64.9457H39.9773C40.3074 64.9457 40.5668 64.6632 40.5407 64.3347L39.3662 50.0327C39.3385 49.6995 39.0299 49.4631 38.7014 49.523L36.9864 49.8392C36.69 49.8945 36.4874 50.1724 36.5288 50.4718V50.4703ZM36.647 63.8272L34.8215 52.3733V52.3718C34.7708 52.0539 34.8384 51.7469 34.975 51.6747L35.4832 51.406C35.6337 51.3262 35.8072 51.5657 35.8548 51.9204L37.427 63.6183C37.4731 63.9699 37.3779 64.2832 37.2197 64.2985L36.9664 64.3231C36.8313 64.3369 36.6946 64.125 36.647 63.8272Z" fill="#000000"/>
<path id="Vector_8" d="M73.6364 48.0369C73.6364 47.6714 73.4813 45.657 72.7643 42.9333C72.6844 42.6278 72.4557 42.3775 72.1547 42.2823C71.6573 42.1257 71.2228 41.7726 70.9802 41.2643L68.5789 36.259C68.3654 35.8138 68.3347 35.3271 68.4591 34.8864C68.6403 34.2385 68.5021 33.5414 68.0998 33.0025C64.3996 28.051 58.2796 23.7949 48.1784 23.7949C38.0772 23.7949 31.9757 28.0387 28.2754 32.9795C27.8685 33.5215 27.7319 34.2262 27.9192 34.8788C28.0467 35.3225 28.0175 35.8123 27.8025 36.2606L25.4012 41.2659C25.1602 41.7695 24.7303 42.1226 24.2374 42.2808C23.9242 42.3821 23.6739 42.6247 23.591 42.944C22.8755 45.6632 22.7205 47.673 22.7205 48.0384C22.7205 48.0799 22.7205 48.1198 22.7158 48.1612C22.6575 49.0901 22.0802 59.8408 26.8153 68.4818C27.8317 70.3366 30.6552 69.6042 30.6552 67.49V62.1269C30.6552 58.7399 31.6241 53.753 33.5341 50.9541C35.7834 47.6576 41.3721 47.8388 48.1784 47.8388C54.9847 47.8388 60.5734 47.6576 62.8228 50.9541C64.7328 53.7515 65.7016 58.7384 65.7016 62.1269V67.49C65.7016 69.6042 68.5251 70.3366 69.5415 68.4818C74.2766 59.8408 73.6993 49.0901 73.641 48.1612C73.6379 48.1198 73.6364 48.0799 73.6364 48.0384V48.0369Z" stroke="#000000" stroke-width="1.5" stroke-miterlimit="10"/>
<path id="Vector_9" d="M27.9127 34.877L27.0621 34.9737C26.841 34.9982 26.6475 35.1349 26.5492 35.3345L23.9898 40.5164C23.9038 40.6899 23.8992 40.8941 23.9775 41.0706L24.3997 42.0272" stroke="#000000" stroke-width="0.8" stroke-miterlimit="10"/>
<path id="Vector_10" d="M68.4688 34.877L69.3193 34.9737C69.5404 34.9982 69.7339 35.1349 69.8322 35.3345L72.3916 40.5164C72.4776 40.6899 72.4822 40.8941 72.4039 41.0706L71.9817 42.0272" stroke="#000000" stroke-width="0.8" stroke-miterlimit="10"/>
</g>
</g>
</g>
</svg>
