<svg width="80" height="80" viewBox="0 0 80 80" fill="none" xmlns="http://www.w3.org/2000/svg">
<g id="EGG-HUMAN">
<g id="Group 7343">
<g id="SKULL_-_PANTONE_P_169-1_U">
<path id="Vector" d="M22.0046 30.4795C22.2414 29.8182 22.5558 29.1992 22.9412 28.625C23.2039 28.2319 23.473 27.846 23.7443 27.46C24.0479 27.0246 24.3515 26.5892 24.6658 26.1632C24.7713 26.0196 24.7885 25.8926 24.7347 25.7207C24.4893 24.9347 24.2632 24.1392 24.007 23.3578C23.6905 22.3905 23.4536 21.4044 23.2663 20.3995C23.0725 19.3569 22.8292 18.3284 22.6182 17.2881C22.5256 16.8339 22.4589 16.3726 22.3965 15.9113C22.3642 15.6736 22.3534 15.4312 22.3556 15.1912C22.3556 15.0805 22.3922 14.937 22.4632 14.8711C22.5752 14.7628 22.728 14.7887 22.8529 14.8828C23.6323 15.4689 24.4117 16.0502 25.1825 16.648C25.7488 17.0881 26.3022 17.5517 26.8598 18.0036C26.9653 18.0883 27.073 18.1683 27.1763 18.2507C28.2873 19.1474 29.3983 20.0464 30.5114 20.9408C30.6901 21.0843 30.8688 21.2938 31.0669 21.3244C31.2607 21.3573 31.4803 21.202 31.6892 21.1291C31.9712 21.0302 32.2533 20.929 32.5375 20.8349C33.515 20.5148 34.4903 20.1877 35.47 19.8793C36.0405 19.7005 36.6176 19.5451 37.1946 19.3922C37.3927 19.3404 37.5046 19.2462 37.58 19.0227C37.6661 18.7614 37.8168 18.5214 37.9589 18.286C38.2001 17.8883 38.4692 17.5141 38.6996 17.1116C38.9084 16.7468 39.1582 16.4267 39.4295 16.1184C39.5371 15.9961 39.6297 15.8525 39.7159 15.7113C39.8407 15.5089 39.9505 15.2971 40.0754 15.097C40.4393 14.5086 40.8075 13.925 41.1713 13.3389C41.2338 13.2377 41.2941 13.1342 41.3457 13.0283C41.7225 12.2257 42.095 11.4208 42.474 10.6206C42.7818 9.97108 43.1414 9.35916 43.5849 8.80609C43.839 8.48837 44.0436 8.12357 44.2718 7.77996C44.3923 7.59874 44.5108 7.41752 44.6378 7.24336C44.7304 7.11627 44.8423 6.94447 44.9952 7.01742C45.1115 7.07155 45.217 7.2363 45.2622 7.37751C45.3591 7.68347 45.4172 8.00354 45.4797 8.32127C45.5959 8.89552 45.7036 9.46978 45.8134 10.044C45.9081 10.5406 45.9878 11.0396 46.0976 11.5315C46.2397 12.1716 46.3947 12.8071 46.5648 13.4378C46.75 14.118 46.9588 14.7887 47.1569 15.4642C47.4734 16.5468 47.7878 17.627 48.1043 18.7096C48.1301 18.7967 48.1775 18.8744 48.2098 18.9568C48.3519 19.3074 48.4983 19.6581 48.6296 20.0135C48.677 20.1453 48.7373 20.2371 48.8535 20.303C49.4112 20.6136 49.915 20.9925 50.3456 21.5033C50.5609 21.7598 50.8624 21.9269 51.1143 22.1505C51.6116 22.5882 52.1068 23.0307 52.5977 23.4802C52.9896 23.8379 53.3772 24.2004 53.7561 24.5722C53.8831 24.697 54.008 24.7134 54.163 24.6781C54.9683 24.4875 55.7757 24.3016 56.5831 24.1157C57.173 23.9792 57.7651 23.8615 58.3486 23.6967C59.128 23.4779 59.8988 23.2119 60.6783 22.9883C60.9818 22.9012 61.294 22.8471 61.6062 22.8118C62.3706 22.7271 63.1371 22.6588 63.9036 22.5859C64.3062 22.5482 64.6722 22.3694 65.049 22.2281C65.232 22.1599 65.4215 22.1081 65.6131 22.0728C65.71 22.054 65.8177 22.0728 65.9146 22.1034C66.1299 22.174 66.2074 22.3411 66.1277 22.5765C66.0782 22.7271 66.005 22.873 65.9318 23.0119C65.8263 23.2143 65.7208 23.419 65.5916 23.6049C65.1395 24.2475 64.8617 24.9888 64.5775 25.7278C64.289 26.4833 63.895 27.1611 63.4364 27.806C63.1349 28.2272 62.8809 28.6885 62.6203 29.1451C62.3275 29.6605 62.0562 30.1948 61.7677 30.7149C61.5029 31.1927 61.1972 31.6398 60.8247 32.0281C60.773 32.0823 60.7278 32.1482 60.6869 32.2C60.6912 32.2376 60.6869 32.2611 60.6955 32.2753C61.1175 33.0119 61.406 33.8168 61.6601 34.6311C62.2845 36.6175 62.3964 38.6297 61.6687 40.6114C61.3909 41.3692 61.0012 42.08 60.6244 42.7884C60.224 43.5439 59.789 44.4311 59.5953 45.0454C59.957 45.3702 60.3122 45.7279 60.7579 45.9397C61.8151 46.4434 62.7581 47.1282 63.6021 47.9873C64.0371 48.4297 64.5043 48.8298 64.9521 49.2558C65.217 49.5076 65.4796 49.7665 65.7315 50.0372C66.005 50.3314 66.3 50.5832 66.6617 50.7385C67.0212 50.8939 67.3248 51.1386 67.5423 51.5011C67.7318 51.8188 67.7124 51.9553 67.3959 52.1153C67.2559 52.1859 67.0966 52.2165 66.9437 52.2448C66.5885 52.3107 66.2268 52.3413 65.8758 52.4283C65.2686 52.579 64.6636 52.5554 64.0543 52.4778C63.6388 52.426 63.2232 52.3954 62.812 52.506C62.1704 52.6755 61.5158 52.7319 60.8613 52.8073C60.7687 52.8167 60.6761 52.8331 60.59 52.8637C59.9828 53.0732 59.3627 53.1744 58.7276 53.1768C58.1312 53.1768 57.5778 53.3886 57.0266 53.6004C56.9513 53.6286 56.8781 53.7228 56.8393 53.8051C56.624 54.2829 56.3269 54.6971 56.0211 55.1043C55.653 55.5938 55.1535 55.8998 54.6453 56.1657C54.1458 56.4293 53.6118 56.6152 53.1016 56.8576C52.5827 57.1048 52.0745 57.3754 51.5664 57.6437C51.2348 57.8202 51.0131 58.1168 50.8731 58.4839C50.7569 58.7922 50.6427 59.1052 50.5609 59.4253C50.4705 59.7807 50.4705 60.1479 50.5695 60.5056C50.6255 60.7009 50.6169 60.8939 50.5351 61.0681C50.3521 61.454 50.1798 61.8494 49.9559 62.2095C49.6717 62.6661 49.2282 62.8897 48.7588 63.0427C48.565 63.1062 48.3605 63.1392 48.1581 63.1721C47.5897 63.2615 47.0191 63.3416 46.4485 63.4239C46.1816 63.4616 45.9124 63.4828 45.6476 63.5322C45.3935 63.5793 45.1373 63.6357 44.8897 63.7158C44.6077 63.8076 44.4096 64.0311 44.2825 64.3088C44.0629 64.7984 43.7636 65.222 43.4385 65.6245C43.1285 66.0057 42.9196 66.4411 42.8357 66.9377C42.7474 67.4578 42.4826 67.8391 42.1122 68.1568C41.7419 68.4746 41.3457 68.717 40.8807 68.8299C40.4005 68.9476 39.9269 69.0865 39.4553 69.2395C39.2163 69.3171 38.9903 69.4371 38.762 69.5478C38.6006 69.6254 38.4498 69.729 38.2905 69.809C38.0343 69.9384 37.8211 70.122 37.6209 70.3409C37.44 70.5386 37.2226 70.701 37.0094 70.861C36.9212 70.9269 36.807 70.9622 36.6994 70.9881C36.4841 71.0375 36.3678 70.9316 36.3377 70.6939C36.2709 70.1903 36.0384 69.8161 35.6035 69.6066C35.1729 69.3995 34.7185 69.3077 34.2535 69.2653C33.9779 69.2394 33.7281 69.3124 33.515 69.536C33.3836 69.6725 33.2157 69.7713 33.0521 69.8631C32.8626 69.969 32.686 69.922 32.5569 69.7384C32.4686 69.6113 32.4018 69.463 32.3265 69.3242C32.1349 68.9664 31.9432 68.6064 31.7516 68.2486C31.6396 68.0392 31.5126 67.8368 31.4222 67.6155C31.2521 67.2037 31.0282 66.8365 30.7655 66.4929C30.2746 65.8504 30.0098 65.109 29.9645 64.2688C29.9215 63.4686 29.7148 62.7132 29.4047 61.9906C29.2282 61.5788 28.9181 61.3505 28.5048 61.3364C28.115 61.3222 27.7253 61.3623 27.3378 61.3576C26.9588 61.3528 26.5799 61.3175 26.201 61.3011C25.3656 61.2658 24.5818 60.988 23.7938 60.7221C23.1328 60.4985 22.5321 60.1455 21.9788 59.6983C21.7376 59.503 21.6278 59.2394 21.6493 58.9076C21.7247 57.8202 21.6407 56.7376 21.5072 55.6621C21.4103 54.8831 21.2015 54.1393 20.8484 53.4474C20.7429 53.2403 20.6116 53.1485 20.3833 53.1626C19.7417 53.1979 19.1065 53.132 18.4757 52.9955C18.2152 52.9391 17.9417 52.9296 17.6747 52.9414C16.792 52.9838 15.9135 52.9532 15.0351 52.8708C14.8305 52.852 14.6604 52.7649 14.5119 52.619C14.3418 52.4542 14.3246 52.2918 14.4516 52.0847C14.7121 51.6611 15.0135 51.2869 15.3753 50.9574C15.7865 50.5808 16.1805 50.176 16.5551 49.7571C16.8071 49.477 17.0181 49.1523 17.2441 48.8416C17.5326 48.4462 17.8104 48.0391 18.1097 47.6531C18.2367 47.486 18.297 47.3212 18.297 47.1047C18.2927 46.5069 18.3034 45.9091 18.3099 45.3113C18.3164 44.6877 18.4369 44.0852 18.6006 43.4897C18.8869 42.4377 19.0635 41.3622 19.1776 40.2701C19.268 39.404 19.3692 38.5379 19.479 37.6766C19.5049 37.4789 19.4747 37.333 19.3563 37.1776C18.8568 36.5257 18.381 35.8502 17.8707 35.2054C17.3303 34.5229 16.7661 33.8639 16.2042 33.2025C15.5841 32.4753 14.9855 31.7269 14.4516 30.922C14.3547 30.7737 14.2772 30.6113 14.1868 30.4584C14.1114 30.3313 14.0339 30.2065 13.9564 30.0818C13.8746 29.95 13.7518 29.8253 13.8293 29.6488C13.9047 29.4769 14.0597 29.4628 14.2126 29.4652C14.8155 29.4746 15.414 29.4958 16.0104 29.6205C16.5831 29.7405 17.1623 29.8158 17.735 29.9335C18.0623 29.9994 18.3788 30.1171 18.7039 30.1971C18.9838 30.2654 19.2659 30.3407 19.5501 30.3642C20.336 30.4278 21.1218 30.4678 21.9077 30.5148C21.9249 30.5148 21.9422 30.5054 22.0003 30.4913M25.568 28.9804C25.5357 28.9662 25.5012 28.9521 25.4689 28.938C25.4345 28.9992 25.4043 29.0627 25.3656 29.1192C25.0125 29.6134 24.6227 30.0842 24.3105 30.6066C23.6065 31.7857 22.9455 32.9978 22.2608 34.1887C21.9292 34.7653 21.7075 35.3819 21.6127 36.0526C21.546 36.5233 21.4922 36.9964 21.434 37.4671C21.3888 37.8178 21.5245 38.0414 21.841 38.1449C21.9637 38.1849 22.0907 38.2296 22.2048 38.2932C22.4417 38.4273 22.4675 38.6462 22.2522 38.818C22.0821 38.9545 21.8883 39.0557 21.6946 39.1522C21.2855 39.3593 20.9431 39.6323 20.801 40.1289C20.773 40.2254 20.7321 40.3172 20.6955 40.4113C20.4458 41.0562 20.3553 41.7293 20.3446 42.4283C20.3381 42.8519 20.4996 43.1908 20.6761 43.5368C20.7386 43.6592 20.8355 43.7321 20.9711 43.7251C21.3113 43.7039 21.6623 43.7345 21.9465 43.4568C22.0132 43.3932 22.1101 43.3626 22.1941 43.3226C22.6699 43.0967 23.1479 42.8731 23.6237 42.6448C24.0866 42.4236 24.5603 42.3436 25.062 42.4636C25.3763 42.5389 25.7014 42.5672 26.0201 42.6307C26.2182 42.6684 26.4163 42.7201 26.61 42.7813C26.778 42.8331 26.9395 42.9108 27.1053 42.9696C27.1978 43.0025 27.2904 43.0355 27.2883 43.1626C27.2883 43.2967 27.2258 43.405 27.0988 43.4238C26.9911 43.4379 26.8792 43.4168 26.7672 43.4121C26.5842 43.405 26.3969 43.3791 26.216 43.4003C25.7725 43.4474 25.3333 43.518 24.8897 43.5768C23.4472 43.7745 22.2974 44.4853 21.5115 45.855C21.2812 46.2575 21.012 46.634 20.7601 47.02C20.6309 47.2177 20.4996 47.413 20.3704 47.6107C20.1852 47.8931 20.14 48.2085 20.2111 48.538C20.3338 49.0934 20.5104 49.623 20.8656 50.0631C20.9647 50.1831 21.0508 50.3172 21.1326 50.4514C21.5589 51.1645 21.9788 51.8823 22.4051 52.5931C22.8292 53.2991 23.0381 54.0452 22.8744 54.8995C22.7862 55.3561 22.756 55.8221 22.911 56.281C22.9455 56.3846 22.9498 56.4999 22.967 56.6105C23.0402 57.0812 23.0962 57.5543 23.1866 58.0179C23.2814 58.5004 23.4472 58.6416 23.9015 58.6581C24.1878 58.6698 24.4763 58.6369 24.7627 58.6345C25.2622 58.6298 25.7617 58.6322 26.2634 58.6369C26.5239 58.6393 26.7823 58.6793 27.0407 58.6628C27.2409 58.651 27.4541 58.6157 27.6328 58.5263C28.1215 58.2792 28.565 58.371 29.015 58.6393C29.9818 59.2135 30.7892 59.9972 31.5083 60.8963C31.6418 61.0634 31.7645 61.2446 31.8657 61.4376C32.2274 62.1342 32.7033 62.7249 33.2609 63.238C33.3104 63.2827 33.3578 63.3345 33.3923 63.3933C33.4525 63.4992 33.4891 63.6169 33.4267 63.7369C33.3643 63.8546 33.2609 63.7887 33.1748 63.7958C32.9164 63.817 32.7269 63.6193 32.503 63.5369C32.2124 63.4286 31.9777 63.2427 31.7817 62.9885C31.6633 62.8332 31.5406 62.6802 31.4136 62.532C31.3727 62.4849 31.3145 62.459 31.2155 62.3884C31.2155 62.5437 31.1983 62.652 31.2198 62.7485C31.2435 62.8661 31.3059 62.9721 31.3404 63.0874C31.4803 63.5581 31.6698 64.0217 31.7408 64.5042C31.8442 65.2008 32.1413 65.7421 32.6451 66.1493C32.8346 66.3023 32.9143 66.4882 32.9638 66.7259C33.0456 67.1213 33.1446 67.512 33.2415 67.9027C33.276 68.0368 33.3126 68.1804 33.4741 68.1968C33.8078 67.9262 33.8293 67.8509 33.6743 67.4625C33.6269 67.3425 33.5667 67.2272 33.5214 67.1048C33.4719 66.973 33.4181 66.8412 33.3966 66.7024C33.3858 66.6271 33.4224 66.5259 33.4676 66.4623C33.5279 66.3776 33.6248 66.4035 33.6937 66.4623C33.8035 66.5541 33.9111 66.6506 34.0037 66.7589C34.1824 66.9636 34.3482 67.1825 34.5248 67.3896C34.641 67.5237 34.7874 67.5614 34.9662 67.5214C34.9748 67.2696 34.9705 67.0248 35.0006 66.7871C35.0178 66.6435 35.0652 66.4906 35.1384 66.3705C35.2353 66.2105 35.3839 66.2223 35.4743 66.3917C35.5518 66.5376 35.6035 66.7047 35.6508 66.8671C35.7197 67.1095 35.7714 67.3566 35.8317 67.6014C35.8575 67.705 35.9006 67.7756 36.0039 67.8156C36.187 67.8838 36.3678 67.9686 36.5444 68.058C36.6671 68.1192 36.7726 68.1003 36.8889 68.0415C37.046 67.9615 37.0912 67.8156 37.1171 67.6508C37.1623 67.3566 37.2441 67.0766 37.4142 66.8412C37.4659 66.7706 37.5585 66.7024 37.636 66.693C37.7479 66.6812 37.7716 66.8083 37.7953 66.9071C37.875 67.2437 37.9331 67.5755 37.847 67.9262C37.8018 68.1098 37.8793 68.3239 37.9805 68.3569C38.1376 68.411 38.2345 68.2957 38.34 68.1898C38.4821 68.0462 38.6242 67.8932 38.7879 67.7873C38.9903 67.6579 39.141 67.4955 39.2357 67.2672C39.451 66.7541 39.6685 66.2434 39.8816 65.7304C39.929 65.615 39.9764 65.495 40.1185 65.5303C40.2627 65.5656 40.2649 65.6927 40.2477 65.8198C40.2111 66.0905 40.168 66.3588 40.1336 66.6294C40.1142 66.773 40.0539 66.9212 40.1271 67.0648C40.7902 67.053 41.2768 66.4906 41.2768 65.8998C41.2768 65.7492 41.3113 65.5986 41.3264 65.4479C41.3974 64.7301 41.4857 64.596 42.1058 64.3512C42.4266 64.2241 42.7022 64.0264 42.9584 63.7911C43.0424 63.7134 43.1242 63.6216 43.1737 63.5181C43.2146 63.4286 43.2404 63.3015 43.2146 63.2098C43.1802 63.0827 43.0488 63.1015 42.9476 63.1109C42.8744 63.118 42.8012 63.1368 42.7302 63.158C42.4933 63.2239 42.2565 63.2498 42.0132 63.1956C41.9142 63.1745 41.8108 63.1768 41.7075 63.1745C41.3716 63.1674 41.1003 63.3015 40.8721 63.5769C40.7429 63.7322 40.5943 63.8758 40.4307 63.9888C39.8149 64.4148 39.2572 64.909 38.7728 65.5068C38.6587 65.648 38.5144 65.7704 38.3659 65.8716C38.2001 65.9845 38.0687 65.8857 38.0881 65.6715C38.0989 65.5633 38.129 65.4479 38.1807 65.3585C38.5317 64.749 38.8934 64.1418 39.4037 63.6734C39.7589 63.3463 40.1013 63.0097 40.4048 62.6237C40.7106 62.2378 41.0981 61.9883 41.5847 61.9577C41.7139 61.9506 41.8409 61.9106 41.968 61.88C42.6677 61.7176 43.3739 61.6329 44.0931 61.6188C44.9177 61.6023 45.7402 61.527 46.5497 61.3223C46.7737 61.2658 47.0062 61.2328 47.2344 61.2022C47.5746 61.1575 47.9148 61.1269 48.255 61.0822C48.4186 61.061 48.5499 60.9622 48.6511 60.8209C48.9655 60.3785 49.099 59.8913 48.9418 59.3382C48.888 59.1453 48.8212 58.9546 48.7545 58.7663C48.5693 58.2462 48.522 57.7002 48.5499 57.1518C48.5909 56.394 48.972 55.8197 49.4629 55.3326C49.8547 54.9466 50.281 54.603 50.6944 54.2405C50.759 54.1841 50.843 54.1393 50.8817 54.0664C51.0325 53.784 51.2628 53.6004 51.5083 53.4333C51.7796 53.2474 51.9195 52.972 51.9475 52.6307C51.9604 52.4589 51.9518 52.2871 51.9518 52.1153C51.9518 51.9906 51.9518 51.8682 52.1219 51.7976C52.3544 52.2354 52.432 52.6943 52.2899 53.1815C52.2166 53.4309 52.1155 53.6757 51.997 53.904C51.898 54.0946 51.7839 54.2994 51.6289 54.4265C51.3124 54.6807 51.1401 55.0596 50.8688 55.349C50.7482 55.4785 50.7547 55.6691 50.8107 55.8362C50.8688 56.0127 51.0217 55.9821 51.1444 55.9774C51.5513 55.961 51.8743 55.7374 52.1219 55.4102C52.432 55.0007 52.8023 54.6971 53.2544 54.5088C53.5946 54.3676 53.8638 54.1252 54.0726 53.8051C54.4085 53.2944 54.7358 52.779 55.0716 52.2683C55.33 51.8776 55.5023 51.4422 55.6508 50.9927C55.7111 50.8115 55.7735 50.6303 55.836 50.4514C56.1977 49.4206 56.568 48.3921 56.9168 47.3542C57.074 46.8858 57.2742 46.4434 57.496 46.0103C57.8814 45.2478 58.2604 44.4829 58.4972 43.6427C58.5661 43.3932 58.6845 43.1579 58.7943 42.9249C59.1044 42.28 59.4489 41.6587 59.6362 40.9456C59.8321 40.1972 60.0862 39.4676 60.2929 38.7215C60.4457 38.1661 60.5275 37.5942 60.4543 37.0105C60.4134 36.6787 60.379 36.3468 60.3187 36.0197C60.2821 35.8149 60.2197 35.6102 60.1421 35.4172C60.028 35.1301 59.8924 34.8524 59.7654 34.5723C59.6857 34.3958 59.6233 34.2075 59.4682 34.0404C59.4187 34.1581 59.3778 34.2451 59.3434 34.3369C58.9967 35.2666 58.6393 36.1891 58.312 37.1258C58.1419 37.613 57.8879 38.0249 57.5326 38.3638C57.3518 38.5356 57.158 38.6956 56.9793 38.8698C56.9233 38.9239 56.863 39.0039 56.8522 39.0816C56.7898 39.4911 56.7424 39.903 56.6908 40.3148C56.497 41.9011 55.6831 43.0684 54.5893 44.0522C54.4257 44.1981 54.2664 44.3582 54.1372 44.5394C53.9154 44.8501 53.7217 45.1842 53.515 45.509C53.4008 45.6903 53.2609 45.8268 53.0413 45.8173C52.9831 45.6102 52.9702 45.5538 53.0477 45.4784C53.2631 45.2666 53.3556 44.9771 53.4956 44.7159C53.8379 44.0781 54.1932 43.4497 54.5441 42.819C54.8326 42.2989 55.1255 41.7811 55.2999 41.1974C55.4506 40.6914 55.4312 40.1854 55.3257 39.6559C55.0824 39.6818 54.8628 39.7312 54.6453 39.7288C53.5925 39.7076 52.6128 39.4182 51.7451 38.7427C51.4652 38.5262 51.1918 38.3002 50.9097 38.0837C50.8128 38.0084 50.7052 37.9425 50.5954 37.8954C50.4942 37.8507 50.3779 37.8272 50.2875 37.9849C50.3693 38.1284 50.449 38.2885 50.5459 38.4344C50.6772 38.6297 50.8171 38.8204 50.9679 38.9969C51.1896 39.2558 51.4308 39.4958 51.6525 39.7547C51.7516 39.8724 51.8377 40.0089 51.9045 40.1525C51.9647 40.2842 51.898 40.3902 51.771 40.3643C51.6396 40.3407 51.4997 40.2866 51.3942 40.2019C51.2219 40.0654 51.0626 39.9053 50.9183 39.7359C50.2983 39.011 49.6222 38.3473 49.0086 37.613C48.494 36.9964 48.0246 36.3468 47.5897 35.6643C47.0126 34.7559 46.6359 33.765 46.5906 32.6448C46.5648 31.9976 46.539 31.348 46.5088 30.7008C46.4722 29.9076 46.5368 29.1216 46.6918 28.3473C46.7026 28.2978 46.7048 28.239 46.7306 28.2037C46.7672 28.1543 46.821 28.1001 46.8749 28.0931C46.9072 28.0884 46.9739 28.159 46.9847 28.2061C47.017 28.3708 47.0557 28.5426 47.0514 28.7097C47.0428 29.0204 47.0902 29.3146 47.1957 29.5993C47.2215 29.6723 47.3033 29.7641 47.3615 29.7664C47.4239 29.7688 47.4928 29.6793 47.5509 29.6229C47.5768 29.597 47.5875 29.5523 47.6004 29.5146C47.7447 29.0227 47.8717 28.5261 48.0354 28.0437C48.1129 27.8107 48.2334 27.5847 48.3712 27.387C48.9483 26.5704 49.7664 26.1326 50.6018 25.7302C51.0002 25.5395 51.4179 25.3936 51.8248 25.2265C51.87 25.2077 51.9088 25.17 51.9755 25.1253C51.771 24.9676 51.5815 24.8405 51.4136 24.6876C50.8387 24.1604 50.2746 23.6167 49.6975 23.0919C49.3401 22.7671 48.9224 22.5459 48.5284 22.3388C48.2744 22.6023 48.0311 22.8377 47.805 23.0895C47.355 23.5932 46.8081 23.9274 46.216 24.1816C46.089 24.2357 45.9275 24.2145 45.8155 24.2875C45.4624 24.511 45.0684 24.5911 44.683 24.6946C44.2244 24.817 43.7637 24.9582 43.2964 25.0147C42.6139 25.0971 41.9249 25.0924 41.2445 24.9653C40.463 24.8217 39.7029 24.6028 39.0592 24.0545C38.5187 23.5932 37.9654 23.1507 37.4207 22.6918C37.3044 22.5929 37.2054 22.4682 37.1085 22.3482C37.0546 22.2823 36.9836 22.1834 37.0826 22.1175C37.1343 22.0822 37.2312 22.1246 37.3087 22.1411C37.3324 22.1458 37.3496 22.1811 37.3733 22.1975C37.9245 22.5506 38.4757 22.906 39.0269 23.2566C39.1065 23.3084 39.197 23.3437 39.3003 23.2213C39.24 23.1507 39.1819 23.0778 39.1216 23.0095C38.9903 22.8659 38.846 22.7341 38.7297 22.5788C38.4477 22.1928 38.0946 21.9057 37.7264 21.6256C37.4917 21.4468 37.2829 21.4327 37.0288 21.5339C36.0707 21.9151 35.1061 22.2799 34.148 22.6612C33.9413 22.7436 33.7454 22.8542 33.543 22.9507C33.543 22.9742 33.543 22.9954 33.543 23.0189C33.7518 23.1225 33.9564 23.2331 34.1695 23.3272C34.5571 23.499 34.8822 23.7579 35.1319 24.1251C35.3085 24.384 35.4829 24.6405 35.7348 24.8288C35.8382 24.9041 35.9178 25.0335 35.9781 25.1559C36.2752 25.7725 36.6283 26.3562 36.8695 27.0081C37.2398 28.0036 37.4185 29.0251 37.3302 30.0959C37.2786 30.729 37.1924 31.348 36.7877 31.8493C36.4087 32.3223 36.0341 32.8001 35.6465 33.2614C34.9898 34.0404 34.1049 34.3958 33.2394 34.7865C33.1985 34.8053 33.149 34.8076 33.1037 34.8171C32.46 34.9559 31.814 35.0995 31.1703 35.2336C31.0755 35.2525 30.9743 35.236 30.8818 35.236C30.8408 35.0948 30.9227 35.0359 30.9959 35.01C31.1961 34.9394 31.4007 34.883 31.6052 34.8335C31.7215 34.8053 31.8528 34.8288 31.9583 34.7794C32.3071 34.6194 32.6667 34.4687 32.9875 34.2522C33.4138 33.9674 33.8056 33.6238 34.2126 33.3037C34.2212 33.2967 34.2212 33.2708 34.2233 33.2543C33.9607 33.2826 33.8293 33.3296 33.5667 33.5391C33.1985 33.8309 32.7894 34.0051 32.3459 34.0969C32.1994 34.1275 32.0552 34.1581 31.9088 34.184C31.1143 34.3275 30.3284 34.5252 29.5145 34.504C29.2454 34.497 29.0021 34.4311 28.7717 34.2899C28.1344 33.9062 27.5531 33.4355 27.0191 32.8989C26.4141 32.2894 26.0244 31.5504 25.8888 30.6513C25.8048 30.0936 25.6778 29.5452 25.5701 28.9945M48.9246 30.9455C49.0064 31.7198 49.043 32.4683 49.3509 33.1578C49.6782 33.8898 50.266 34.2522 51.0045 34.1322C51.3059 34.0828 51.5643 33.9274 51.8226 33.7697C52.5116 33.3461 53.1769 32.8848 53.7647 32.3059C54.1587 31.9175 54.5807 31.5739 55.0243 31.2585C55.2267 31.115 55.414 30.9479 55.5991 30.7808C56.1396 30.2889 56.6585 29.7711 57.2355 29.324C58.0063 28.7285 58.734 28.0672 59.4833 27.4412C59.6663 27.2882 59.8579 27.1446 60.0603 27.0269C60.1788 26.9587 60.323 26.9375 60.4586 26.9163C60.5706 26.8999 60.6438 26.9634 60.5986 27.0999C60.5168 27.3447 60.463 27.6153 60.3316 27.8248C60.1529 28.1025 59.9268 28.352 59.6943 28.5803C59.2357 29.0321 58.7039 29.3616 58.1118 29.5664C57.9525 29.6205 57.7974 29.6911 57.6489 29.7711C57.3324 29.9429 57.0116 30.1218 56.7941 30.4348C56.4216 30.9714 56.118 31.5598 55.9889 32.2211C55.7972 33.1978 55.3989 34.0475 54.8111 34.8006C54.7142 34.923 54.6216 35.0524 54.542 35.1866C54.3073 35.5819 54.2039 36.0197 54.2384 36.488C54.2685 36.8858 54.5269 37.26 55.035 37.0811C55.4183 36.947 55.7326 36.7069 55.9889 36.3751C56.0642 36.2786 56.1223 36.1515 56.1482 36.0268C56.2709 35.4525 56.5659 34.9959 56.9319 34.5817C57.2678 34.2028 57.608 33.8286 57.9331 33.4403C58.4434 32.833 58.8912 32.1741 59.2077 31.4209C59.4962 30.7361 59.8364 30.0865 60.2433 29.4793C60.6804 28.825 61.139 28.1872 61.5847 27.5377C61.729 27.3282 61.8754 27.1164 62.0003 26.8928C62.3469 26.2691 62.6849 25.6407 63.0208 25.01C63.0811 24.897 63.1328 24.7746 63.1586 24.6475C63.1974 24.4616 63.1479 24.3887 62.9799 24.3392C62.4912 24.1933 62.0046 24.1863 61.5373 24.4098C61.1713 24.584 60.7945 24.6475 60.4005 24.664C59.69 24.6946 59.001 24.8335 58.3723 25.2242C58.2604 25.2948 58.1398 25.3512 58.0235 25.4124C57.2226 25.829 56.3893 26.1279 55.4936 26.1703C54.6776 26.2079 53.8638 26.2597 53.0477 26.2856C52.2769 26.3091 51.5449 26.4998 50.8301 26.8034C50.3951 26.9869 50.0463 27.2835 49.7686 27.7C49.5167 28.079 49.3703 28.4979 49.2777 28.9451C49.183 29.4087 49.0861 29.8723 48.9999 30.3383C48.9612 30.5454 48.9461 30.7573 48.9224 30.9385M26.5928 23.0989C26.6208 23.0801 26.651 23.0636 26.6789 23.0448C26.7694 23.1225 26.8835 23.1837 26.9459 23.2825C27.172 23.6402 27.4067 23.9956 27.5918 24.3769C27.9385 25.0924 28.2421 25.8337 28.6641 26.5068C28.9418 26.9493 29.1894 27.4129 29.4241 27.886C29.7729 28.592 30.1519 29.2745 30.5846 29.9241C30.7956 30.2442 31.0023 30.569 31.1853 30.9079C31.4545 31.4115 31.8636 31.6681 32.3674 31.7763C32.4492 31.7928 32.5332 31.8022 32.615 31.8187C32.8949 31.8799 33.1511 31.8234 33.3772 31.6328C33.4934 31.5339 33.614 31.4327 33.7088 31.3127C33.9693 30.9808 34.1674 30.6066 34.3267 30.2018C34.6281 29.4346 34.6906 28.6156 34.8176 27.8083C34.8822 27.3964 34.7788 27.0434 34.5506 26.728C34.4322 26.5633 34.2987 26.3939 34.1394 26.2832C33.7647 26.022 33.3793 25.7749 32.9832 25.556C32.5052 25.2901 32.0767 24.9559 31.7365 24.504C31.1853 23.7744 30.5373 23.1507 29.9172 22.4964C29.4672 22.0187 28.9526 21.6468 28.3691 21.3832C28.1646 21.2914 27.9772 21.1549 27.7792 21.0467C27.5229 20.9055 27.2646 20.769 27.0084 20.6278C26.778 20.5007 26.5519 20.3642 26.3151 20.2488C26.1751 20.1806 26.0223 20.117 25.8715 20.1006C25.6412 20.0747 25.5809 20.1782 25.6196 20.4301C25.6907 20.8984 25.7488 21.3691 25.8242 21.8351C25.9211 22.4329 25.9964 23.0377 26.145 23.6191C26.3861 24.5534 26.6919 25.4689 26.9524 26.3986C27.1289 27.0269 27.284 27.6647 27.4239 28.3025C27.566 28.9403 27.678 29.5876 27.8028 30.2301C27.9643 31.0538 28.3325 31.7551 28.8492 32.3741C28.944 32.4871 29.043 32.5483 29.1916 32.5177C29.4435 32.4683 29.6136 32.3012 29.6265 32.014C29.6351 31.7928 29.6373 31.5622 29.5834 31.3527C29.4198 30.6984 29.2497 30.0441 29.0387 29.4087C28.8772 28.9239 28.6512 28.4673 28.4531 27.9989C28.1775 27.3447 27.9406 26.6669 27.6112 26.0479C27.1741 25.2218 26.9029 24.3322 26.6316 23.4402C26.5993 23.3343 26.6057 23.2143 26.595 23.0989M44.3385 19.604C44.3385 19.0462 44.317 18.4578 44.3471 17.8718C44.3622 17.587 44.4634 17.3022 44.5495 17.0269C44.5732 16.9539 44.6895 16.8692 44.7562 16.8739C44.8273 16.8786 44.9005 16.9775 44.9565 17.0528C44.9888 17.0951 44.9952 17.1657 44.9995 17.2246C45.034 17.82 45.0792 18.4178 45.0964 19.0133C45.1136 19.5687 45.1653 20.11 45.4517 20.5854C45.5938 20.8207 45.766 21.0349 45.9232 21.2608C46.0373 21.4279 46.1966 21.4962 46.3775 21.5197C46.5691 21.5433 46.6617 21.5103 46.7263 21.3079C46.8038 21.0608 46.8727 20.8019 46.8921 20.5454C46.9502 19.8299 46.778 19.1545 46.5002 18.519C46.2612 17.973 46.104 17.4035 46.005 16.8174C45.8715 16.0196 45.7682 15.2194 45.5744 14.4357C45.3268 13.4307 45.0835 12.4211 44.8445 11.4138C44.8208 11.3173 44.8316 11.2137 44.8122 11.1149C44.767 10.9007 44.739 10.6748 44.6529 10.4794C44.5495 10.2394 44.3773 10.2135 44.205 10.3994C44.0758 10.5406 43.9682 10.7101 43.8735 10.8819C43.501 11.5597 43.1371 12.2422 42.7732 12.9247C42.7022 13.0565 42.6354 13.1883 42.5708 13.3248C42.3103 13.885 42.067 14.4545 41.7871 15.0029C41.645 15.2829 41.4685 15.5583 41.2575 15.7772C40.6223 16.4409 40.0926 17.194 39.6082 17.9871C39.3972 18.3331 39.2163 18.6955 39.1044 19.1003C39.0269 19.3851 39.0204 19.6652 39.1431 19.9288C39.3132 20.2983 39.4726 20.6819 39.69 21.0184C39.9721 21.4538 40.267 21.9034 40.7084 22.1693C41.3371 22.5482 42.0024 22.8283 42.7388 22.833C42.8766 22.833 43.0165 22.8448 43.1543 22.8589C43.6926 22.9201 44.0672 22.6353 44.1943 22.0563C44.233 21.8798 44.2696 21.6986 44.2782 21.5174C44.3041 20.8913 44.3191 20.263 44.3385 19.604ZM58.7168 47.3871C58.6565 47.6201 58.607 47.8108 58.5553 48.0085C58.6544 48.0438 58.7233 48.072 58.7943 48.0908C59.5737 48.2979 60.3015 48.6439 61.0055 49.0605C61.0938 49.1123 61.1885 49.164 61.2617 49.2393C61.307 49.2864 61.3457 49.3947 61.3242 49.4465C61.2962 49.5147 61.2144 49.5853 61.1476 49.5971C61.0507 49.6159 60.9452 49.5971 60.8462 49.5735C60.5921 49.5171 60.3402 49.4535 60.0883 49.3876C59.517 49.2401 58.9486 49.2456 58.3831 49.4041C58.3831 49.4041 58.3659 49.4088 58.3551 49.4088C58.2194 49.4229 58.1398 49.5053 58.1032 49.6489C57.9891 50.096 57.8685 50.5432 57.7544 50.9904C57.6833 51.2681 57.6144 51.5481 57.5348 51.8564C57.9094 51.8329 58.2625 51.8329 58.5941 51.6846C59.1625 51.4281 59.7611 51.3787 60.3639 51.3646C60.7321 51.3551 61.1024 51.3646 61.4728 51.3575C61.6579 51.3528 61.8409 51.3151 62.0261 51.3081C62.545 51.2869 63.0639 51.2704 63.5828 51.2539C63.7356 51.2492 63.8885 51.2375 63.9574 51.0586C64.0328 50.8633 64.0048 50.675 63.8691 50.5244C63.7464 50.3879 63.6108 50.2608 63.4665 50.1525C62.9046 49.7242 62.3361 49.3029 61.7699 48.8793C61.4168 48.6157 61.0464 48.3921 60.6395 48.2344C60.3165 48.1097 60.0022 47.9567 59.6857 47.8155C59.3778 47.679 59.0721 47.5401 58.7211 47.3848M21.0379 32.4377C20.8484 32.3976 20.6482 32.3647 20.4565 32.3106C20.0819 32.2047 19.6857 32.1388 19.3391 31.9622C18.409 31.4868 17.4078 31.2656 16.4367 30.9314C16.3226 30.8914 16.1633 30.8302 16.0427 31.0208C16.1116 31.122 16.1805 31.2256 16.2537 31.3268C16.6671 31.8987 17.0783 32.473 17.5003 33.0354C17.6941 33.292 17.8987 33.5415 18.1183 33.7697C18.5123 34.1816 18.9235 34.5793 19.3262 34.9818C19.3671 35.0218 19.4037 35.0736 19.4489 35.1042C19.5393 35.1677 19.6491 35.1042 19.6384 34.9889C19.6319 34.9112 19.6039 34.8265 19.563 34.7653C19.451 34.5935 19.3326 34.4217 19.2034 34.264C18.8503 33.8309 18.424 33.4897 18.002 33.1414C17.8405 33.0072 17.6963 32.8472 17.552 32.6918C17.5154 32.6518 17.509 32.5765 17.4788 32.4824C17.5606 32.4894 17.6123 32.4777 17.6468 32.4988C18.0235 32.7366 18.4025 32.9695 18.7707 33.219C19.2443 33.5391 19.7094 33.8709 20.1788 34.1957C20.2154 34.2193 20.2606 34.2263 20.3015 34.2404C20.5491 33.6356 20.7903 33.0472 21.04 32.4353M18.3487 50.1219C18.3164 50.1384 18.2905 50.1454 18.269 50.1643C17.946 50.449 17.6209 50.7315 17.3044 51.0209C17.2032 51.1127 17.0956 51.2092 17.074 51.3881C17.664 51.3881 18.2346 51.3881 18.8051 51.3857C18.8611 51.3857 18.9149 51.341 18.9666 51.3175C18.7577 50.9103 18.5575 50.5267 18.3487 50.1219Z" fill="#000000"/>
<path id="Vector_2" d="M41.3892 58.3405C41.2428 58.3829 41.1093 58.3617 40.9823 58.2958C40.8488 58.2252 40.7217 58.1428 40.5925 58.0652C40.3988 57.9498 40.2007 57.8392 40.0091 57.7168C39.6839 57.505 39.3459 57.3097 39.0445 57.0626C38.8658 56.9143 38.7366 56.6884 38.6053 56.4836C38.3404 56.0741 38.1466 55.6293 38.039 55.1374C37.9766 54.8526 37.8818 54.5749 37.8022 54.2948C37.6794 53.8689 37.5933 53.4335 37.5718 52.9839C37.5632 52.8027 37.533 52.6215 37.4986 52.4426C37.1756 50.7858 37.5589 49.3313 38.56 48.0651C38.728 47.8533 38.9411 47.6815 39.1543 47.5214C39.3287 47.392 39.4708 47.2414 39.5612 47.0366C39.7959 46.5071 40.1684 46.1235 40.6248 45.8269C40.7045 45.7751 40.7885 45.7257 40.8531 45.6551C41.1201 45.3609 41.4452 45.3091 41.8026 45.3539C42.1621 45.3986 42.5239 45.4551 42.8813 45.4433C43.3528 45.4292 43.8243 45.3727 44.2937 45.3068C45.0085 45.2079 45.7083 45.288 46.38 45.5374C47.1401 45.8199 47.7515 46.3141 48.1326 47.1261C48.3587 47.6132 48.6408 48.0675 48.9034 48.5335C49.1769 49.0183 49.4546 49.5007 49.6097 50.0468C49.853 50.9058 49.7841 51.7695 49.6097 52.6309C49.4396 53.4758 48.9573 54.043 48.2791 54.4408C48.1068 54.542 47.9303 54.6314 47.7602 54.7349C47.4243 54.9397 47.1465 55.2104 46.914 55.554C46.5544 56.0882 46.1023 56.526 45.5899 56.8861C45.4004 57.0202 45.1937 57.1049 44.9676 57.1285C43.8652 57.2461 42.7629 57.1944 41.6626 57.0861C41.4689 57.0673 41.2794 57.0131 41.0878 56.9755C41.0339 56.9637 40.978 56.9472 40.9241 56.9402C40.7971 56.9237 40.6787 56.9472 40.6098 57.0814C40.5366 57.2226 40.5689 57.3685 40.6593 57.4768C40.8229 57.6674 41.0016 57.8463 41.1803 58.0204C41.2686 58.1075 41.3806 58.1687 41.3892 58.3358" fill="#000000"/>
<path id="Vector_3" d="M31.7847 51.2591C31.7525 51.5486 31.7158 51.9205 31.6663 52.2876C31.6513 52.4053 31.5953 52.5159 31.563 52.6336C31.4769 52.9419 31.38 53.2502 31.3111 53.5632C31.2142 54.0174 31.1044 54.4646 30.902 54.8812C30.7771 55.1401 30.6759 55.4131 30.5769 55.6884C30.4477 56.0509 30.2108 56.3215 29.9482 56.5616C29.8534 56.6487 29.692 56.6534 29.5563 56.6769C29.5154 56.684 29.4422 56.6369 29.4293 56.5945C29.4164 56.5545 29.4465 56.4674 29.4809 56.4439C29.7458 56.2603 29.8276 55.9544 29.9352 55.6649C30.058 55.3307 29.875 54.9871 29.5585 55.0271C29.2226 55.0695 28.9384 54.9494 28.6499 54.8106C28.2731 54.627 27.8834 54.5211 27.47 54.4952C27.175 54.4764 26.8843 54.4034 26.5915 54.3611C26.2427 54.3116 25.8939 54.2787 25.5473 54.2222C25.3298 54.1869 25.1016 54.1563 24.9035 54.0645C24.0164 53.6503 23.3576 52.9631 22.942 52.0076C22.7052 51.4639 22.6406 50.8873 22.7009 50.2895C22.7224 50.0706 22.7353 49.8447 22.7181 49.6258C22.6234 48.5573 22.9743 47.6889 23.6698 46.9546C24.0466 46.5568 24.4772 46.3121 25.0004 46.2791C25.4159 46.2509 25.7949 46.0979 26.1738 45.9308C26.387 45.8367 26.613 45.7613 26.8391 45.7213C27.7025 45.5684 28.5185 45.7378 29.2656 46.2368C29.4443 46.3544 29.5972 46.5262 29.7393 46.698C29.8879 46.8769 30.0214 47.0746 30.1419 47.2794C30.4175 47.7524 30.734 48.1831 31.0958 48.5808C31.4833 49.0068 31.6405 49.5646 31.7137 50.1459C31.7568 50.4872 31.7632 50.8308 31.7912 51.2615" fill="#000000"/>
<path id="Vector_4" d="M32.6673 58.0366C32.6673 57.9684 32.6673 57.9566 32.6673 57.9472C32.846 57.0623 32.8567 56.1326 33.2723 55.3136C33.3261 55.2077 33.3799 55.1018 33.4445 55.0029C33.7998 54.4499 34.0108 53.8474 33.9979 53.1625C33.9936 52.8824 34.0668 52.6447 34.3015 52.4917C34.5232 52.3482 34.6847 52.3929 34.8117 52.6353C34.8397 52.6871 34.8699 52.7459 34.872 52.8024C34.8957 53.2378 35.1175 53.5838 35.3134 53.9368C35.5696 54.3981 35.7957 54.8735 35.9421 55.3866C36.1036 55.9467 36.3426 56.4574 36.7065 56.8881C37.2447 57.5259 37.4234 58.3167 37.5225 59.1381C37.544 59.3169 37.4902 59.524 37.4234 59.6935C37.2447 60.1501 37.0682 60.6019 36.9454 61.0844C36.8464 61.4704 36.6806 61.8399 36.5277 62.207C36.4352 62.4283 36.3469 62.4541 36.151 62.3412C35.8129 62.1482 35.5438 61.8799 35.4211 61.468C35.3608 61.2656 35.3156 61.0562 35.2359 60.8632C35.1605 60.682 35.0593 60.5101 34.9495 60.3501C34.8849 60.2536 34.7751 60.1759 34.6589 60.2418C34.5469 60.3054 34.5814 60.4325 34.5943 60.5431C34.6137 60.7125 34.6352 60.8844 34.6416 61.0538C34.646 61.1668 34.6223 61.2797 34.5082 61.3315C34.3876 61.388 34.2864 61.3362 34.211 61.2397C34.1206 61.1268 34.0302 61.0091 33.9613 60.8773C33.5996 60.183 33.2421 59.484 32.8869 58.7827C32.7599 58.5332 32.6522 58.2743 32.6651 58.0366" fill="#000000"/>
<path id="Vector_5" d="M45.3717 42.5533C45.2081 42.5886 44.9454 42.6145 44.7021 42.6992C43.9098 42.9793 43.1002 43.104 42.2691 43.1205C41.7222 43.1323 41.1818 43.2405 40.65 43.3911C40.4002 43.4617 40.1419 43.5065 39.8856 43.5441C39.7608 43.563 39.6273 43.5441 39.5002 43.5229C39.4034 43.5065 39.328 43.4406 39.3366 43.3135C39.3452 43.1934 39.4098 43.1323 39.5153 43.1181C39.5799 43.1087 39.6445 43.1087 39.7091 43.0946C39.9696 43.0311 40.2301 42.9652 40.4907 42.8969C40.706 42.8381 40.917 42.751 41.1344 42.7133C41.4682 42.6545 41.761 42.5227 41.9698 42.2262C42.3488 41.6919 42.8849 41.5013 43.4555 41.3624C43.9248 41.2471 44.3899 41.1129 44.8571 40.9859C45.0724 40.927 45.2877 40.8635 45.503 40.8117C45.8411 40.7293 46.1576 40.8164 46.4202 41.0447C46.7389 41.3201 47.0554 41.6072 47.3289 41.9343C47.7638 42.4521 48.2633 42.8357 48.8662 43.0922C49.4195 43.3276 49.9341 43.6406 50.3195 44.1702C50.5843 44.5326 50.8857 44.8621 51.1592 45.2175C51.2345 45.314 51.2819 45.4458 51.3142 45.5705C51.3551 45.7211 51.2604 45.8176 51.129 45.7611C51.03 45.7188 50.9396 45.6387 50.8534 45.5658C50.5412 45.2951 50.2377 45.0151 49.9255 44.7468C49.6456 44.5067 49.3269 44.3514 48.9738 44.2737C48.7951 44.2337 48.6099 44.1749 48.4506 44.0807C47.8908 43.7512 47.2901 43.5088 46.7798 43.0687C46.4073 42.7463 45.9595 42.5604 45.3717 42.5604" fill="#000000"/>
<path id="Vector_6" d="M36.7228 44.4229C36.2965 44.7403 36.0876 45.2316 35.8422 45.6924C35.6549 46.045 35.4008 46.2801 35.0218 46.3459C34.8388 46.3765 34.6644 46.4658 34.4814 46.4823C34.2446 46.5034 34.0013 46.4917 33.7644 46.4635C33.6719 46.4541 33.5771 46.3765 33.5039 46.306C33.2585 46.0756 33.0195 45.8358 32.7805 45.596C32.6384 45.4549 32.4855 45.3562 32.2853 45.3586C32.2358 45.3586 32.1862 45.2998 32.1367 45.2669C32.1798 45.2222 32.2142 45.1587 32.2637 45.1352C32.4295 45.0576 32.5889 45.0953 32.7439 45.1846C32.9398 45.2974 33.1422 45.3985 33.336 45.5184C33.9001 45.864 34.475 45.8146 35.052 45.5725C35.1317 45.5396 35.1941 45.4479 35.2565 45.3774C35.5063 45.0929 35.7388 44.7896 36.0037 44.524C36.1199 44.4088 36.2922 44.3477 36.4493 44.296C36.5225 44.2701 36.6173 44.3242 36.7034 44.3406C36.7099 44.3688 36.7163 44.3947 36.7228 44.4229Z" fill="#000000"/>
<path id="Vector_7" d="M44.7854 13.9019C44.8026 14.1725 44.8327 14.4432 44.8371 14.7161C44.8414 15.0173 44.8327 15.3209 44.8155 15.6221C44.8091 15.7398 44.7854 15.8786 44.6368 15.888C44.5033 15.8951 44.3935 15.8151 44.3569 15.6833C44.2966 15.4621 44.2406 15.2338 44.2256 15.0056C44.1997 14.6338 44.1782 14.2549 44.2148 13.8854C44.245 13.5913 44.3461 13.2995 44.4473 13.0195C44.5141 12.8359 44.6993 12.85 44.7854 13.0336C44.8177 13.1018 44.8327 13.1866 44.8327 13.2642C44.8327 13.476 44.8177 13.6878 44.8091 13.8996C44.8005 13.8996 44.794 13.8996 44.7854 13.8996" fill="#000000"/>
</g>
</g>
</g>
</svg>
