<svg width="80" height="80" viewBox="0 0 80 80" fill="none" xmlns="http://www.w3.org/2000/svg">
<path d="M25.429 59.2528C22.939 62.4296 19.632 69.3277 26.331 71.506C34.705 74.2289 46.299 69.1544 57.378 61.9757" stroke="#fed712" stroke-width="3"/>
<path d="M39.286 34.6054C37.435 33.4325 38.719 31.6084 40.423 30.8268C42.128 30.0451 43.976 30.078 45.259 30.8269C46.821 31.7389 46.679 33.4325 45.259 34.2146C43.55 35.1553 41.162 35.7941 39.286 34.6054Z" stroke="#fed712" stroke-width="2"/>
<path d="M52.614 40.576C52.086 40.8423 52.218 42.1739 51.954 42.307C51.427 42.5733 50.346 41.7211 49.713 42.0407C48.922 42.4402 47.867 44.837 48.658 47.2339C49.449 49.6307 51.031 50.5628 53.141 50.1634C55.25 49.7639 54.064 46.1686 53.8 45.636C53.405 44.837 54.064 44.5707 54.723 45.2365C55.646 46.1686 58.678 47.2339 59.865 46.435C61.052 45.636 60.129 43.6386 57.624 41.6412C55.119 39.6438 53.141 40.3096 52.614 40.576Z" stroke="#fed712" stroke-width="2"/>
<path d="M52.879 31.0069C52.888 30.5924 53.037 30.2866 53.378 30.0727C54.239 29.6391 57.52 28.8986 60.543 31.6242C62.077 33.0071 62.681 34.3362 62.792 35.3559C62.906 36.3949 62.517 37.079 62.114 37.3286C61.923 37.4474 61.561 37.5384 61.029 37.5469C60.512 37.555 59.894 37.4847 59.243 37.3395C57.93 37.0471 56.559 36.4691 55.66 35.7138C54.929 35.0995 53.902 33.8577 53.318 32.6325C53.026 32.0184 52.868 31.4567 52.879 31.0069Z" stroke="#fed712"/>
<path d="M53.776 32.1997C53.776 32.0255 53.838 31.8565 54.112 31.6939C54.862 31.3297 57.272 30.4835 59.533 32.617C60.74 33.7559 61.294 34.773 61.454 35.5222C61.614 36.2762 61.376 36.6737 61.124 36.8221C61.004 36.893 60.753 36.9486 60.342 36.9214C59.948 36.8953 59.472 36.7977 58.963 36.639C57.94 36.3205 56.854 35.7793 56.111 35.1854C55.483 34.6841 54.627 33.89 54.137 33.1293C53.889 32.7439 53.776 32.4286 53.776 32.1997Z" stroke="#fed712"/>
<path d="M54.792 33.3864C54.786 33.2196 54.831 33.1224 54.932 33.0454C55.3 32.8387 56.885 32.4653 58.461 33.8761C59.306 34.6326 59.737 35.3071 59.897 35.8001C60.061 36.3081 59.916 36.4934 59.85 36.5411C59.813 36.5677 59.673 36.6238 59.375 36.6347C59.099 36.6449 58.756 36.614 58.384 36.542C57.632 36.3962 56.857 36.0996 56.377 35.7373C55.983 35.4397 55.404 34.8092 55.06 34.1773C54.887 33.8601 54.8 33.5883 54.792 33.3864Z" stroke="#fed712"/>
<path d="M57.622 34.7883C56.787 34.1127 55.851 34.2253 55.584 34.3379C55.016 34.6194 55.758 35.4807 56.185 35.7735C56.72 36.1394 57.856 36.3646 58.19 36.1957C58.524 36.0268 58.457 35.4639 57.622 34.7883Z" stroke="#fed712"/>
<path d="M52.378 30.2132C52.386 29.9108 52.48 29.7203 52.738 29.5637C53.133 29.3852 54.212 29.1316 55.634 29.318C57.056 29.5045 58.776 30.1269 60.42 31.6614C62.155 33.2797 62.994 34.6772 63.271 35.6678C63.549 36.6641 63.235 37.0018 63.06 37.1036C62.946 37.1703 62.6 37.2657 61.944 37.2513C61.33 37.2379 60.578 37.1322 59.778 36.9418C58.155 36.5557 56.499 35.863 55.497 35.0715C54.677 34.424 53.506 33.0927 52.848 31.7941C52.516 31.1406 52.369 30.5986 52.378 30.2132Z" stroke="#fed712" stroke-width="2"/>
<path d="M33.383 41.2729C35.398 39.2905 38.561 39.2312 41.172 41.187C42.475 42.1631 43.483 43.618 43.784 45.1149C44.08 46.5821 43.707 48.1093 42.21 49.3458C39.195 51.8356 35.122 50.681 33.14 48.4885C31.605 46.7907 31.23 43.3913 33.383 41.2729Z" stroke="#fed712"/>
<path d="M34.997 42.8613L34.997 42.8613C36.5 41.4198 38.873 41.3654 40.848 42.8071C41.831 43.5257 42.584 44.5919 42.809 45.6765C43.026 46.7286 42.757 47.8242 41.642 48.7222C39.378 50.5444 36.309 49.7021 34.815 48.091C33.674 46.861 33.398 44.3953 34.997 42.8613Z" stroke="#fed712"/>
<path d="M36.474 44.3198L36.474 44.3197C37.296 43.5893 38.628 43.5431 39.757 44.3061C40.316 44.6846 40.724 45.2338 40.842 45.7631C40.951 46.2503 40.83 46.7672 40.225 47.2179C38.958 48.1631 37.215 47.7269 36.373 46.8868C35.767 46.2816 35.626 45.0729 36.474 44.3198ZM36.142 43.9459L36.142 43.9462L36.142 43.9459Z" stroke="#fed712"/>
<path d="M38.931 45.3805C38.505 45.2077 37.975 45.209 37.633 45.3913C37.268 45.5858 37.332 45.8947 37.592 46.0503C37.917 46.2447 38.589 46.3514 39.093 46.1259C39.601 45.8991 39.357 45.5534 38.931 45.3805Z" stroke="#fed712"/>
<path d="M41.472 39.883C38.703 37.6299 35.165 37.7454 33.033 40.0238C30.661 42.5587 31.081 46.5862 32.769 48.6141C34.879 51.1488 39.252 52.5391 42.528 49.6C45.825 46.6428 44.241 42.1363 41.472 39.883Z" stroke="#fed712" stroke-width="2"/>
<path d="M51.878 42.2527C52.211 42.9515 53.878 45.3326 54.378 45.2527" stroke="#fed712" stroke-linecap="round"/>
<path d="M39.378 61.2524C40 61.0845 41.138 59.9175 40.711 56.5929C40.445 54.9557 41.378 54.5779 41.778 54.452C42.178 54.3261 43.634 54.0747 44.034 54.4525C44.434 54.8303 45.034 56.253 46.034 59.2531" stroke="#fed712" stroke-width="2"/>
<path d="M54.02 63.2527C53.429 60.5234 52.276 54.9326 52.385 54.4043C52.521 53.744 53.202 52.8195 54.02 53.4799C54.837 54.1402 57.697 59.687 58.378 62.4604" stroke="#fed712" stroke-width="2"/>
<path d="M66.378 56.7527C65.381 55.2406 62.843 50.2151 62.556 49.6421C62.197 48.9258 62.436 48.6871 62.795 48.4483C63.154 48.2096 63.513 48.0902 64.231 48.6871C64.949 49.2839 69.04 52.7977 69.878 53.7527" stroke="#fed712" stroke-width="2"/>
<path d="M67.378 54.2524C65.878 52.2524 63.878 49.7524 62.878 48.7524" stroke="#fed712" stroke-width="2"/>
<path d="M55.378 60.2524C54.887 58.6235 53.799 54.9429 53.378 53.2524" stroke="#fed712" stroke-width="2"/>
<path d="M71.379 43.0422C71.004 43.2155 70.084 43.4582 69.408 43.0422C68.732 42.6262 67.531 41.8288 67.015 41.4821C66.874 41.3088 66.48 41.0661 66.029 41.4821C65.466 42.0021 65.167 42.3876 65.748 43.0422C66.378 43.7525 70.175 47.1891 70.879 47.7525" stroke="#fed712" stroke-width="2"/>
<path d="M21.641 53.4144C20.808 51.5504 19.819 46.942 19.429 44.8709C18.691 42.584 17.086 37.3629 16.566 34.7739C15.915 31.5378 15.265 25.9715 15.395 24.8065C15.525 23.6415 15.525 22.6059 16.826 22.8648C18.127 23.1237 22.552 25.0654 24.894 26.7482C27.237 28.431 30.099 31.1494 30.75 31.7966C31.401 32.4439 31.661 33.0911 33.092 32.0556C34.523 31.0201 37.907 29.3372 39.729 28.5606C40.338 28.301 40.578 28.2973 40.802 27.525C40.835 27.4128 40.867 27.2844 40.9 27.1366C41.161 25.9715 41.681 21.3115 42.202 17.9459C42.722 14.5803 43.893 10.9558 44.284 9.53184C44.674 8.10783 45.715 7.97846 46.496 8.62572C47.277 9.27301 50.27 13.2859 51.831 16.5221C53.393 19.7583 55.735 26.2307 55.865 26.619C55.995 27.0074 57.557 28.3019 58.598 29.0786C59.639 29.8553 66.666 33.9976 68.358 35.0332C70.049 36.0688 71.611 40.2111 71.611 40.7289C71.611 41.2467 71.611 42.9295 71.09 43.318C70.673 43.6286 69.354 44.7417 68.747 45.2595L72 48.4956C72.521 49.0134 72.391 49.6606 72.261 50.049C72.13 50.4373 71.22 51.9907 70.829 52.7674C70.439 53.5441 69.398 54.7091 69.137 54.968C68.877 55.2269 67.706 54.7091 67.186 54.4502C66.874 54.5537 66.449 55.1837 66.276 55.4858C66.536 55.8741 67.082 56.7026 67.186 56.9097C67.316 57.1686 67.836 57.298 67.186 57.8158C66.536 58.3336 59.639 62.0876 59.118 62.3465C58.598 62.6054 57.687 62.6054 57.297 62.3465C56.906 62.0876 56.646 61.6992 55.735 60.6638C54.694 60.9744 54.347 62.5192 54.304 63.2527H46.756C46.539 62.476 45.975 60.5602 45.455 59.1104C41.811 59.2398 40.77 60.9226 39.078 61.6992C37.387 62.476 30.75 61.57 28.147 60.9226C25.545 60.2754 22.682 55.7448 21.641 53.4144Z" stroke="#fed712" stroke-width="3"/>
<path d="M50 46.6688C49.81 45.9981 49.874 45.3587 50.047 44.8593C50.134 44.6094 50.246 44.4024 50.359 44.2494C50.462 44.1096 50.551 44.0358 50.604 44.0041C50.632 43.9992 50.713 43.9951 50.865 44.0532C51.039 44.1194 51.25 44.247 51.467 44.4338C51.905 44.8105 52.294 45.3627 52.439 45.9352C52.459 46.0138 52.479 46.0948 52.501 46.1775C52.664 46.8133 52.855 47.5553 52.881 48.1689C52.896 48.5192 52.852 48.7434 52.784 48.864C52.755 48.9151 52.726 48.942 52.694 48.9595C52.661 48.9781 52.597 49.0014 52.479 49.0014C51.313 49.0014 50.412 48.1161 50 46.6688Z" stroke="#fed712"/>
<path d="M56.557 42.621L56.557 42.621L56.567 42.6285L56.567 42.6285C56.9 42.8842 57.671 43.4789 58.145 44.0831C58.391 44.3971 58.486 44.6266 58.489 44.7594C58.49 44.8068 58.48 44.8358 58.458 44.8658C58.429 44.9032 58.358 44.97 58.191 45.0403C57.641 45.2704 56.986 45.1087 56.24 44.6556C55.535 44.2275 54.867 43.6115 54.306 43.0941C54.282 43.0719 54.258 43.0498 54.234 43.0279C54.076 42.8827 53.944 42.6286 53.899 42.3844C53.877 42.2653 53.882 42.1788 53.894 42.1302C53.895 42.1248 53.896 42.1204 53.897 42.1169C53.986 42.0697 54.131 42.0265 54.34 42.0093C54.563 41.991 54.825 42.0048 55.102 42.0509C55.666 42.1448 56.217 42.3599 56.557 42.621ZM53.902 42.105C53.902 42.1042 53.902 42.1039 53.902 42.1039C53.902 42.1039 53.902 42.1043 53.902 42.105Z" stroke="#fed712"/>
<path d="M24.924 31.604C26.269 32.6502 28.628 34.9555 29.445 35.7817C29.445 35.7817 27.2 37.1955 26.384 38.6014C25.848 39.5248 25.809 39.0151 24.924 40.6014C23.384 40.1014 22.195 38.3076 21.241 36.4941C20.215 34.5443 19.46 31.3021 19.473 29.7488C19.485 28.1954 20.132 28.5889 20.65 28.8518C21.169 29.1148 23.242 30.2961 24.924 31.604Z" stroke="#fed712" stroke-width="2"/>
<path d="M20.384 43.6732C21.815 43.2848 23.247 42.767 24.548 41.6014C25.384 40.6014 26.084 38.9014 26.884 38.1014C27.884 37.1014 28.884 36.6014 29.884 36.1014C30.884 35.6014 32.384 35.1014 32.384 32.6014" stroke="#fed712" stroke-width="3"/>
<path d="M45.66 21.1001C45.533 23.8933 46.113 26.4334 46.295 27.2191C46.991 26.8468 48.584 26.102 49.384 26.102C50.184 26.102 52.101 26.5297 52.96 26.7435C53.313 24.6863 52.153 21.8389 51.303 20.1895C50.345 18.3319 49.375 16.7331 48.518 15.528C47.66 14.3229 47 14.5521 46.58 15.181C46.161 15.8099 45.819 17.6086 45.66 21.1001Z" stroke="#fed712" stroke-width="2"/>
<path d="M40.884 27.102C41.384 27.2687 42.784 27.502 44.384 27.102C46.384 26.602 46.884 25.602 48.884 25.602C50.884 25.602 50.884 25.602 51.884 26.102C52.884 26.602 54.884 26.602 55.884 26.102" stroke="#fed712" stroke-width="3"/>
</svg>
