<svg width="80" height="80" viewBox="0 0 80 80" fill="none" xmlns="http://www.w3.org/2000/svg">
<g id="EGG-ROBOT">
<g id="slAD6w.tif">
<path id="Vector" d="M12.1734 40.5606C12.2013 40.4086 12.2385 40.2472 12.2385 40.0857C12.3315 38.3283 12.6013 36.6089 13.0292 34.9085C14.006 31.0802 15.7084 27.6224 18.1643 24.5541C21.0946 20.8873 24.7226 18.1799 29.0391 16.4415C30.7787 15.7386 32.574 15.2446 34.416 14.9311C35.3834 14.7696 36.3509 14.6651 37.3277 14.6177C38.3882 14.5702 39.4487 14.5701 40.4999 14.6366C45.1047 14.9691 49.3467 16.413 53.2166 18.9969C53.3097 19.0539 53.3934 19.1109 53.5143 19.1964C53.8399 16.0996 54.9841 13.3922 56.8261 10.9794C57.5424 10.0389 58.9843 8.49051 59.4494 8.18652C59.4122 8.24352 59.4029 8.28151 59.3843 8.30051C58.2587 9.67793 57.5051 11.2548 56.9842 12.9457C56.6214 14.1237 56.3981 15.3301 56.2865 16.5555C56.1935 17.6005 56.1935 18.6454 56.3051 19.6904C56.3702 20.3553 56.4912 21.0013 56.6679 21.6472C56.6772 21.6947 56.6959 21.7517 56.7331 21.8467C56.7796 21.7422 56.7982 21.6757 56.8261 21.6092C57.4586 19.9753 58.3145 18.4744 59.4308 17.135C60.668 15.6531 62.1285 14.4562 63.7751 13.4872C64.5658 13.0122 65.3845 12.6038 66.231 12.2428C66.2775 12.2238 66.3241 12.2143 66.3613 12.1953C66.3706 12.1953 66.3892 12.1953 66.4264 12.2333C66.3985 12.2333 66.3799 12.2428 66.3613 12.2618C64.8449 13.1832 63.6077 14.4182 62.5751 15.8526C61.2541 17.686 60.3052 19.6998 59.775 21.9132C59.5796 22.7492 59.4587 23.5946 59.4494 24.4591V24.6586H59.4959C59.5424 24.6016 59.589 24.5256 59.6262 24.4591C60.6123 22.7587 61.9146 21.3813 63.5519 20.3173C64.6961 19.5764 65.9333 19.0254 67.2264 18.6359C68.3334 18.3034 69.4591 18.0564 70.6033 17.9235C71.3289 17.838 72.0638 17.781 72.7894 17.7145C72.8545 17.7145 72.9196 17.7145 72.9941 17.743C72.715 17.8 72.4359 17.857 72.1568 17.933C69.9614 18.4649 67.9893 19.4339 66.2683 20.9253C64.138 22.7872 62.7704 25.124 62.1565 27.9169C62.11 28.1259 62.0821 28.3538 62.0263 28.5628C61.9984 28.6863 62.0263 28.7908 62.0728 28.8953C62.6216 29.9213 63.096 30.9852 63.496 32.0776C64.1007 33.721 64.5566 35.4119 64.8449 37.1503C65.0031 38.1288 65.1147 39.1072 65.1705 40.0952C65.2263 41.0736 65.2356 42.052 65.1891 43.021C64.9566 47.6472 63.6914 51.9505 61.3006 55.8832C58.0075 61.3074 53.4027 65.1167 47.5234 67.2921C46.035 67.843 44.4908 68.2325 42.9279 68.489C42.0628 68.6315 41.1883 68.736 40.3046 68.7835C40.258 68.7835 40.2022 68.8025 40.1464 68.812H37.2533C37.1975 68.8025 37.1324 68.7835 37.0766 68.7835C36.6114 68.736 36.1277 68.7075 35.6625 68.6505C34.3323 68.508 33.0299 68.242 31.7368 67.8905C23.597 65.6487 16.9084 59.436 13.913 51.3615C12.9455 48.7872 12.3873 46.1273 12.2292 43.3725C12.2292 43.2015 12.1827 43.0305 12.1641 42.8595V40.5701L12.1734 40.5606ZM63.8309 42.413C63.8495 28.2873 52.6957 16.717 38.7324 16.717C24.7691 16.717 13.6153 28.2684 13.5966 42.375C13.578 56.4437 24.7598 68.033 38.7138 68.0425C52.6771 68.0425 63.8495 56.4912 63.8309 42.413Z" fill="#FED712"/>
<path id="Vector_2" d="M38.7234 68.7896C25.0206 68.7611 13.1641 56.1104 13.1641 42.4217C13.1641 28.733 25.1508 15.6045 38.7141 15.6045C52.2773 15.6045 64.136 28.581 64.1267 42.4502C64.1174 56.1294 52.4262 68.7611 38.7141 68.7896L38.7234 68.7896ZM38.7141 20.554C26.0997 20.573 16.1087 31.0509 16.1087 43.6661C16.1087 56.2814 26.23 66.7403 38.6955 66.7498C51.1424 66.7498 61.3102 56.4144 61.3195 43.6757C61.3195 31.0509 51.3005 20.573 38.7141 20.5445V20.554Z" fill="#FED712"/>
<path id="Vector_3" d="M38.6589 56.2925C30.6679 56.264 24.4072 49.5949 24.4258 41.6717C24.4537 33.6156 30.8446 27.108 38.7054 27.127C46.594 27.146 52.9849 33.6726 52.9663 41.7382C52.9663 49.6518 46.6777 56.2735 38.6589 56.2925ZM50.25 43.5243C50.2314 43.2868 50.222 42.8117 50.1662 42.3462C50.0174 41.0352 49.6546 39.7907 49.0965 38.6032C47.1801 34.5561 43.1148 31.9151 38.603 31.9721C38.4356 31.9721 38.324 31.9246 38.2123 31.7916C36.7704 30.186 34.975 29.5685 32.9005 30.0435C29.7097 30.7845 28.0353 34.1191 28.9748 37.1211C29.012 37.2541 29.0027 37.3491 28.9283 37.4632C27.905 39.0972 27.3283 40.8832 27.1701 42.8212C27.0678 44.1323 27.1701 45.4243 27.4957 46.6878C28.7236 51.5614 32.8819 55.2094 37.9333 55.5609C39.3659 55.6559 40.7706 55.4945 42.1474 55.0479C46.7894 53.5659 50.2314 49.1483 50.2593 43.5337L50.25 43.5243Z" fill="#FED712"/>
<path id="Vector_4" d="M29.3139 35.438C29.3139 32.664 31.4722 30.46 34.1513 30.46C36.8305 30.46 39.0352 32.645 39.0352 35.4285C39.0352 38.1741 36.8398 40.4161 34.1513 40.3971C31.4722 40.3971 29.3047 38.1646 29.3047 35.438H29.3139Z" fill="#FED712"/>
<path id="Vector_5" d="M40.8205 49.4119C40.8205 47.4929 42.3461 45.9443 44.2439 45.9443C46.1416 45.9443 47.6672 47.5024 47.6672 49.4309C47.6672 51.3594 46.1137 52.9364 44.2532 52.9269C42.188 52.9174 40.8019 51.1789 40.8205 49.4024V49.4119Z" fill="#FED712"/>
<path id="Vector_6" d="M37.7732 39.592C38.0058 39.326 38.2198 39.0885 38.4244 38.8511C38.4803 38.7846 38.5546 38.7846 38.6291 38.7846C39.2803 38.7656 39.857 38.9461 40.3873 39.326C41.3082 39.991 41.792 41.1879 41.5408 42.2994C41.2617 43.5343 40.4989 44.3227 39.2803 44.5887C37.6616 44.9402 36.0894 43.7528 35.8848 42.0619C35.8383 41.6249 35.8848 41.1974 36.015 40.77C36.0429 40.6655 36.1081 40.599 36.2011 40.561C36.4337 40.4565 36.6476 40.333 36.8709 40.2285C36.8988 40.2095 36.936 40.2 36.9825 40.1905C36.536 40.77 36.3592 41.4159 36.4708 42.1284C36.5639 42.6983 36.8429 43.1638 37.2802 43.5248C38.1174 44.2277 39.3361 44.2182 40.164 43.5058C41.0106 42.7838 41.2245 41.5679 40.6943 40.5895C40.2292 39.725 39.0942 39.06 37.7453 39.6015H37.7546L37.7732 39.592Z" fill="#FED712"/>
<path id="Vector_7" d="M38.6899 43.3462C37.8061 43.3462 37.0898 42.6147 37.0898 41.7122C37.0898 40.8096 37.8154 40.0781 38.6899 40.0781C39.5643 40.0781 40.2993 40.8191 40.2993 41.7312C40.2993 42.6432 39.5829 43.3557 38.6899 43.3557V43.3462ZM37.8434 41.7027C37.8434 42.1777 38.2155 42.5767 38.6806 42.5862C39.1457 42.5862 39.5551 42.1872 39.5458 41.7027C39.5458 41.2277 39.1643 40.8381 38.6899 40.8381C38.2154 40.8381 37.8434 41.2181 37.8434 41.7027Z" fill="#FED712"/>
<path id="Vector_8" d="M39.131 41.7243C39.131 41.9526 38.9449 42.1239 38.7217 42.1239C38.4984 42.1239 38.3309 41.9336 38.3402 41.7052C38.3402 41.4864 38.517 41.3151 38.7402 41.3246C38.9728 41.3246 39.131 41.5054 39.131 41.7338V41.7243Z" fill="#FED712"/>
</g>
</g>
</svg>
